<?xml version="1.0" encoding="utf-8" standalone="no"?>
<!DOCTYPE svg PUBLIC "-//W3C//DTD SVG 1.1//EN"
  "http://www.w3.org/Graphics/SVG/1.1/DTD/svg11.dtd">
<svg xmlns:xlink="http://www.w3.org/1999/xlink" width="460.8pt" height="345.6pt" viewBox="0 0 460.8 345.6" xmlns="http://www.w3.org/2000/svg" version="1.1">
 <metadata>
  <rdf:RDF xmlns:dc="http://purl.org/dc/elements/1.1/" xmlns:cc="http://creativecommons.org/ns#" xmlns:rdf="http://www.w3.org/1999/02/22-rdf-syntax-ns#">
   <cc:Work>
    <dc:type rdf:resource="http://purl.org/dc/dcmitype/StillImage"/>
    <dc:date>2024-04-25T00:06:56.079559</dc:date>
    <dc:format>image/svg+xml</dc:format>
    <dc:creator>
     <cc:Agent>
      <dc:title>Matplotlib v3.6.1, https://matplotlib.org/</dc:title>
     </cc:Agent>
    </dc:creator>
   </cc:Work>
  </rdf:RDF>
 </metadata>
 <defs>
  <style type="text/css">*{stroke-linejoin: round; stroke-linecap: butt}</style>
 </defs>
 <g id="figure_1">
  <g id="patch_1">
   <path d="M 0 345.6 
L 460.8 345.6 
L 460.8 0 
L 0 0 
z
" style="fill: #ffffff"/>
  </g>
  <g id="axes_1">
   <g id="patch_2">
    <path d="M 57.6 231.552 
L 414.72 231.552 
L 414.72 41.472 
L 57.6 41.472 
z
" style="fill: #ffffff"/>
   </g>
   <g id="matplotlib.axis_1">
    <g id="xtick_1">
     <g id="line2d_1">
      <defs>
       <path id="m193906420e" d="M 0 0 
L 0 3.5 
" style="stroke: #000000; stroke-width: 0.8"/>
      </defs>
      <g>
       <use xlink:href="#m193906420e" x="73.832727" y="231.552" style="stroke: #000000; stroke-width: 0.8"/>
      </g>
     </g>
    </g>
    <g id="xtick_2">
     <g id="line2d_2">
      <g>
       <use xlink:href="#m193906420e" x="138.763636" y="231.552" style="stroke: #000000; stroke-width: 0.8"/>
      </g>
     </g>
    </g>
    <g id="xtick_3">
     <g id="line2d_3">
      <g>
       <use xlink:href="#m193906420e" x="203.694545" y="231.552" style="stroke: #000000; stroke-width: 0.8"/>
      </g>
     </g>
    </g>
    <g id="xtick_4">
     <g id="line2d_4">
      <g>
       <use xlink:href="#m193906420e" x="268.625455" y="231.552" style="stroke: #000000; stroke-width: 0.8"/>
      </g>
     </g>
    </g>
    <g id="xtick_5">
     <g id="line2d_5">
      <g>
       <use xlink:href="#m193906420e" x="333.556364" y="231.552" style="stroke: #000000; stroke-width: 0.8"/>
      </g>
     </g>
    </g>
    <g id="xtick_6">
     <g id="line2d_6">
      <g>
       <use xlink:href="#m193906420e" x="398.487273" y="231.552" style="stroke: #000000; stroke-width: 0.8"/>
      </g>
     </g>
    </g>
   </g>
   <g id="matplotlib.axis_2">
    <g id="ytick_1">
     <g id="line2d_7">
      <defs>
       <path id="mc311a9ac20" d="M 0 0 
L -3.5 0 
" style="stroke: #000000; stroke-width: 0.8"/>
      </defs>
      <g>
       <use xlink:href="#mc311a9ac20" x="57.6" y="222.912" style="stroke: #000000; stroke-width: 0.8"/>
      </g>
     </g>
     <g id="text_1">
      <!-- 0 -->
      <g transform="translate(44.2375 226.711219) scale(0.1 -0.1)">
       <defs>
        <path id="DejaVuSans-30" d="M 2034 4250 
Q 1547 4250 1301 3770 
Q 1056 3291 1056 2328 
Q 1056 1369 1301 889 
Q 1547 409 2034 409 
Q 2525 409 2770 889 
Q 3016 1369 3016 2328 
Q 3016 3291 2770 3770 
Q 2525 4250 2034 4250 
z
M 2034 4750 
Q 2819 4750 3233 4129 
Q 3647 3509 3647 2328 
Q 3647 1150 3233 529 
Q 2819 -91 2034 -91 
Q 1250 -91 836 529 
Q 422 1150 422 2328 
Q 422 3509 836 4129 
Q 1250 4750 2034 4750 
z
" transform="scale(0.015625)"/>
       </defs>
       <use xlink:href="#DejaVuSans-30"/>
      </g>
     </g>
    </g>
    <g id="ytick_2">
     <g id="line2d_8">
      <g>
       <use xlink:href="#mc311a9ac20" x="57.6" y="188.352" style="stroke: #000000; stroke-width: 0.8"/>
      </g>
     </g>
     <g id="text_2">
      <!-- L -->
      <g transform="translate(45.028125 192.151219) scale(0.1 -0.1)">
       <defs>
        <path id="DejaVuSans-4c" d="M 628 4666 
L 1259 4666 
L 1259 531 
L 3531 531 
L 3531 0 
L 628 0 
L 628 4666 
z
" transform="scale(0.015625)"/>
       </defs>
       <use xlink:href="#DejaVuSans-4c"/>
      </g>
     </g>
    </g>
    <g id="ytick_3">
     <g id="line2d_9">
      <g>
       <use xlink:href="#mc311a9ac20" x="57.6" y="153.792" style="stroke: #000000; stroke-width: 0.8"/>
      </g>
     </g>
     <g id="text_3">
      <!-- 0.4 -->
      <g transform="translate(34.696875 157.591219) scale(0.1 -0.1)">
       <defs>
        <path id="DejaVuSans-2e" d="M 684 794 
L 1344 794 
L 1344 0 
L 684 0 
L 684 794 
z
" transform="scale(0.015625)"/>
        <path id="DejaVuSans-34" d="M 2419 4116 
L 825 1625 
L 2419 1625 
L 2419 4116 
z
M 2253 4666 
L 3047 4666 
L 3047 1625 
L 3713 1625 
L 3713 1100 
L 3047 1100 
L 3047 0 
L 2419 0 
L 2419 1100 
L 313 1100 
L 313 1709 
L 2253 4666 
z
" transform="scale(0.015625)"/>
       </defs>
       <use xlink:href="#DejaVuSans-30"/>
       <use xlink:href="#DejaVuSans-2e" x="63.623047"/>
       <use xlink:href="#DejaVuSans-34" x="95.410156"/>
      </g>
     </g>
    </g>
    <g id="ytick_4">
     <g id="line2d_10">
      <g>
       <use xlink:href="#mc311a9ac20" x="57.6" y="119.232" style="stroke: #000000; stroke-width: 0.8"/>
      </g>
     </g>
     <g id="text_4">
      <!-- 0.6 -->
      <g transform="translate(34.696875 123.031219) scale(0.1 -0.1)">
       <defs>
        <path id="DejaVuSans-36" d="M 2113 2584 
Q 1688 2584 1439 2293 
Q 1191 2003 1191 1497 
Q 1191 994 1439 701 
Q 1688 409 2113 409 
Q 2538 409 2786 701 
Q 3034 994 3034 1497 
Q 3034 2003 2786 2293 
Q 2538 2584 2113 2584 
z
M 3366 4563 
L 3366 3988 
Q 3128 4100 2886 4159 
Q 2644 4219 2406 4219 
Q 1781 4219 1451 3797 
Q 1122 3375 1075 2522 
Q 1259 2794 1537 2939 
Q 1816 3084 2150 3084 
Q 2853 3084 3261 2657 
Q 3669 2231 3669 1497 
Q 3669 778 3244 343 
Q 2819 -91 2113 -91 
Q 1303 -91 875 529 
Q 447 1150 447 2328 
Q 447 3434 972 4092 
Q 1497 4750 2381 4750 
Q 2619 4750 2861 4703 
Q 3103 4656 3366 4563 
z
" transform="scale(0.015625)"/>
       </defs>
       <use xlink:href="#DejaVuSans-30"/>
       <use xlink:href="#DejaVuSans-2e" x="63.623047"/>
       <use xlink:href="#DejaVuSans-36" x="95.410156"/>
      </g>
     </g>
    </g>
    <g id="ytick_5">
     <g id="line2d_11">
      <g>
       <use xlink:href="#mc311a9ac20" x="57.6" y="84.672" style="stroke: #000000; stroke-width: 0.8"/>
      </g>
     </g>
     <g id="text_5">
      <!-- U -->
      <g transform="translate(43.28125 88.471219) scale(0.1 -0.1)">
       <defs>
        <path id="DejaVuSans-55" d="M 556 4666 
L 1191 4666 
L 1191 1831 
Q 1191 1081 1462 751 
Q 1734 422 2344 422 
Q 2950 422 3222 751 
Q 3494 1081 3494 1831 
L 3494 4666 
L 4128 4666 
L 4128 1753 
Q 4128 841 3676 375 
Q 3225 -91 2344 -91 
Q 1459 -91 1007 375 
Q 556 841 556 1753 
L 556 4666 
z
" transform="scale(0.015625)"/>
       </defs>
       <use xlink:href="#DejaVuSans-55"/>
      </g>
     </g>
    </g>
    <g id="ytick_6">
     <g id="line2d_12">
      <g>
       <use xlink:href="#mc311a9ac20" x="57.6" y="50.112" style="stroke: #000000; stroke-width: 0.8"/>
      </g>
     </g>
     <g id="text_6">
      <!-- 1 -->
      <g transform="translate(44.2375 53.911219) scale(0.1 -0.1)">
       <defs>
        <path id="DejaVuSans-31" d="M 794 531 
L 1825 531 
L 1825 4091 
L 703 3866 
L 703 4441 
L 1819 4666 
L 2450 4666 
L 2450 531 
L 3481 531 
L 3481 0 
L 794 0 
L 794 531 
z
" transform="scale(0.015625)"/>
       </defs>
       <use xlink:href="#DejaVuSans-31"/>
      </g>
     </g>
    </g>
    <g id="text_7">
     <!-- Opinion value -->
     <g transform="translate(28.617187 171.044031) rotate(-90) scale(0.1 -0.1)">
      <defs>
       <path id="DejaVuSans-4f" d="M 2522 4238 
Q 1834 4238 1429 3725 
Q 1025 3213 1025 2328 
Q 1025 1447 1429 934 
Q 1834 422 2522 422 
Q 3209 422 3611 934 
Q 4013 1447 4013 2328 
Q 4013 3213 3611 3725 
Q 3209 4238 2522 4238 
z
M 2522 4750 
Q 3503 4750 4090 4092 
Q 4678 3434 4678 2328 
Q 4678 1225 4090 567 
Q 3503 -91 2522 -91 
Q 1538 -91 948 565 
Q 359 1222 359 2328 
Q 359 3434 948 4092 
Q 1538 4750 2522 4750 
z
" transform="scale(0.015625)"/>
       <path id="DejaVuSans-70" d="M 1159 525 
L 1159 -1331 
L 581 -1331 
L 581 3500 
L 1159 3500 
L 1159 2969 
Q 1341 3281 1617 3432 
Q 1894 3584 2278 3584 
Q 2916 3584 3314 3078 
Q 3713 2572 3713 1747 
Q 3713 922 3314 415 
Q 2916 -91 2278 -91 
Q 1894 -91 1617 61 
Q 1341 213 1159 525 
z
M 3116 1747 
Q 3116 2381 2855 2742 
Q 2594 3103 2138 3103 
Q 1681 3103 1420 2742 
Q 1159 2381 1159 1747 
Q 1159 1113 1420 752 
Q 1681 391 2138 391 
Q 2594 391 2855 752 
Q 3116 1113 3116 1747 
z
" transform="scale(0.015625)"/>
       <path id="DejaVuSans-69" d="M 603 3500 
L 1178 3500 
L 1178 0 
L 603 0 
L 603 3500 
z
M 603 4863 
L 1178 4863 
L 1178 4134 
L 603 4134 
L 603 4863 
z
" transform="scale(0.015625)"/>
       <path id="DejaVuSans-6e" d="M 3513 2113 
L 3513 0 
L 2938 0 
L 2938 2094 
Q 2938 2591 2744 2837 
Q 2550 3084 2163 3084 
Q 1697 3084 1428 2787 
Q 1159 2491 1159 1978 
L 1159 0 
L 581 0 
L 581 3500 
L 1159 3500 
L 1159 2956 
Q 1366 3272 1645 3428 
Q 1925 3584 2291 3584 
Q 2894 3584 3203 3211 
Q 3513 2838 3513 2113 
z
" transform="scale(0.015625)"/>
       <path id="DejaVuSans-6f" d="M 1959 3097 
Q 1497 3097 1228 2736 
Q 959 2375 959 1747 
Q 959 1119 1226 758 
Q 1494 397 1959 397 
Q 2419 397 2687 759 
Q 2956 1122 2956 1747 
Q 2956 2369 2687 2733 
Q 2419 3097 1959 3097 
z
M 1959 3584 
Q 2709 3584 3137 3096 
Q 3566 2609 3566 1747 
Q 3566 888 3137 398 
Q 2709 -91 1959 -91 
Q 1206 -91 779 398 
Q 353 888 353 1747 
Q 353 2609 779 3096 
Q 1206 3584 1959 3584 
z
" transform="scale(0.015625)"/>
       <path id="DejaVuSans-20" transform="scale(0.015625)"/>
       <path id="DejaVuSans-76" d="M 191 3500 
L 800 3500 
L 1894 563 
L 2988 3500 
L 3597 3500 
L 2284 0 
L 1503 0 
L 191 3500 
z
" transform="scale(0.015625)"/>
       <path id="DejaVuSans-61" d="M 2194 1759 
Q 1497 1759 1228 1600 
Q 959 1441 959 1056 
Q 959 750 1161 570 
Q 1363 391 1709 391 
Q 2188 391 2477 730 
Q 2766 1069 2766 1631 
L 2766 1759 
L 2194 1759 
z
M 3341 1997 
L 3341 0 
L 2766 0 
L 2766 531 
Q 2569 213 2275 61 
Q 1981 -91 1556 -91 
Q 1019 -91 701 211 
Q 384 513 384 1019 
Q 384 1609 779 1909 
Q 1175 2209 1959 2209 
L 2766 2209 
L 2766 2266 
Q 2766 2663 2505 2880 
Q 2244 3097 1772 3097 
Q 1472 3097 1187 3025 
Q 903 2953 641 2809 
L 641 3341 
Q 956 3463 1253 3523 
Q 1550 3584 1831 3584 
Q 2591 3584 2966 3190 
Q 3341 2797 3341 1997 
z
" transform="scale(0.015625)"/>
       <path id="DejaVuSans-6c" d="M 603 4863 
L 1178 4863 
L 1178 0 
L 603 0 
L 603 4863 
z
" transform="scale(0.015625)"/>
       <path id="DejaVuSans-75" d="M 544 1381 
L 544 3500 
L 1119 3500 
L 1119 1403 
Q 1119 906 1312 657 
Q 1506 409 1894 409 
Q 2359 409 2629 706 
Q 2900 1003 2900 1516 
L 2900 3500 
L 3475 3500 
L 3475 0 
L 2900 0 
L 2900 538 
Q 2691 219 2414 64 
Q 2138 -91 1772 -91 
Q 1169 -91 856 284 
Q 544 659 544 1381 
z
M 1991 3584 
L 1991 3584 
z
" transform="scale(0.015625)"/>
       <path id="DejaVuSans-65" d="M 3597 1894 
L 3597 1613 
L 953 1613 
Q 991 1019 1311 708 
Q 1631 397 2203 397 
Q 2534 397 2845 478 
Q 3156 559 3463 722 
L 3463 178 
Q 3153 47 2828 -22 
Q 2503 -91 2169 -91 
Q 1331 -91 842 396 
Q 353 884 353 1716 
Q 353 2575 817 3079 
Q 1281 3584 2069 3584 
Q 2775 3584 3186 3129 
Q 3597 2675 3597 1894 
z
M 3022 2063 
Q 3016 2534 2758 2815 
Q 2500 3097 2075 3097 
Q 1594 3097 1305 2825 
Q 1016 2553 972 2059 
L 3022 2063 
z
" transform="scale(0.015625)"/>
      </defs>
      <use xlink:href="#DejaVuSans-4f"/>
      <use xlink:href="#DejaVuSans-70" x="78.710938"/>
      <use xlink:href="#DejaVuSans-69" x="142.1875"/>
      <use xlink:href="#DejaVuSans-6e" x="169.970703"/>
      <use xlink:href="#DejaVuSans-69" x="233.349609"/>
      <use xlink:href="#DejaVuSans-6f" x="261.132812"/>
      <use xlink:href="#DejaVuSans-6e" x="322.314453"/>
      <use xlink:href="#DejaVuSans-20" x="385.693359"/>
      <use xlink:href="#DejaVuSans-76" x="417.480469"/>
      <use xlink:href="#DejaVuSans-61" x="476.660156"/>
      <use xlink:href="#DejaVuSans-6c" x="537.939453"/>
      <use xlink:href="#DejaVuSans-75" x="565.722656"/>
      <use xlink:href="#DejaVuSans-65" x="629.101562"/>
     </g>
    </g>
   </g>
   <g id="line2d_13">
    <path d="M 57.6 84.672 
L 414.72 84.672 
" clip-path="url(#p7b131d17d6)" style="fill: none; stroke-dasharray: 5.55,2.4; stroke-dashoffset: 0; stroke: #ffc0cb; stroke-width: 1.5"/>
   </g>
   <g id="line2d_14">
    <path d="M 57.6 188.352 
L 414.72 188.352 
" clip-path="url(#p7b131d17d6)" style="fill: none; stroke-dasharray: 5.55,2.4; stroke-dashoffset: 0; stroke: #ffc0cb; stroke-width: 1.5"/>
   </g>
   <g id="line2d_15">
    <path d="M 73.832727 222.912 
L 77.079273 222.912 
L 80.325818 214.272 
L 83.572364 214.272 
L 86.818909 214.272 
L 90.065455 214.272 
L 93.312 207.792 
L 96.558545 207.792 
L 99.805091 207.792 
L 103.051636 207.792 
L 106.298182 202.932 
L 109.544727 202.932 
L 112.791273 202.932 
L 116.037818 202.932 
L 119.284364 199.287 
L 122.530909 199.287 
L 125.777455 199.287 
L 129.024 199.287 
L 132.270545 196.55325 
L 135.517091 196.55325 
L 138.763636 196.55325 
L 142.010182 196.55325 
L 145.256727 194.502937 
L 148.503273 194.502937 
L 151.749818 194.502937 
L 154.996364 194.502937 
L 158.242909 192.965203 
L 161.489455 192.965203 
L 164.736 192.965203 
L 167.982545 192.965203 
L 171.229091 191.811902 
L 174.475636 191.811902 
L 177.722182 191.811902 
L 180.968727 191.811902 
L 184.215273 190.946927 
L 187.461818 190.946927 
L 190.708364 190.946927 
L 193.954909 190.946927 
L 197.201455 190.298195 
L 200.448 190.298195 
L 203.694545 190.298195 
L 206.941091 190.298195 
L 210.187636 189.811646 
L 213.434182 189.811646 
L 216.680727 189.811646 
L 219.927273 189.811646 
L 223.173818 189.446735 
L 226.420364 189.446735 
L 229.666909 189.446735 
L 232.913455 189.446735 
L 236.16 189.173051 
L 239.406545 189.173051 
L 242.653091 189.173051 
L 245.899636 189.173051 
L 249.146182 188.967788 
L 252.392727 188.967788 
L 255.639273 188.967788 
L 258.885818 188.967788 
L 262.132364 188.813841 
L 265.378909 188.813841 
L 268.625455 188.813841 
L 271.872 188.813841 
L 275.118545 188.698381 
L 278.365091 188.698381 
L 281.611636 188.698381 
L 284.858182 188.698381 
L 288.104727 188.611786 
L 291.351273 188.611786 
L 294.597818 188.611786 
L 297.844364 188.611786 
L 301.090909 188.546839 
L 304.337455 188.546839 
L 307.584 188.546839 
L 310.830545 188.546839 
L 314.077091 188.498129 
L 317.323636 188.498129 
L 320.570182 188.498129 
L 323.816727 188.498129 
L 327.063273 188.461597 
L 330.309818 188.461597 
L 333.556364 188.461597 
L 336.802909 188.461597 
L 340.049455 188.434198 
L 343.296 188.434198 
L 346.542545 188.434198 
L 349.789091 188.434198 
L 353.035636 188.413648 
L 356.282182 188.413648 
L 359.528727 188.413648 
L 362.775273 188.413648 
L 366.021818 188.398236 
L 369.268364 188.398236 
L 372.514909 188.398236 
L 375.761455 188.398236 
L 379.008 188.386677 
L 382.254545 188.386677 
L 385.501091 188.386677 
L 388.747636 188.386677 
L 391.994182 188.378008 
L 395.240727 188.378008 
L 398.487273 188.378008 
" clip-path="url(#p7b131d17d6)" style="fill: none; stroke: #0000ff; stroke-width: 1.5; stroke-linecap: square"/>
   </g>
   <g id="line2d_16">
    <path d="M 73.832727 136.512 
L 77.079273 205.632 
L 80.325818 205.632 
L 83.572364 67.392 
L 86.818909 67.392 
L 90.065455 201.312 
L 93.312 201.312 
L 96.558545 71.712 
L 99.805091 71.712 
L 103.051636 198.072 
L 106.298182 198.072 
L 109.544727 74.952 
L 112.791273 74.952 
L 116.037818 195.642 
L 119.284364 195.642 
L 122.530909 77.382 
L 125.777455 77.382 
L 129.024 193.8195 
L 132.270545 193.8195 
L 135.517091 79.2045 
L 138.763636 79.2045 
L 142.010182 192.452625 
L 145.256727 192.452625 
L 148.503273 80.571375 
L 151.749818 80.571375 
L 154.996364 191.427469 
L 158.242909 191.427469 
L 161.489455 81.596531 
L 164.736 81.596531 
L 167.982545 190.658602 
L 171.229091 190.658602 
L 174.475636 82.365398 
L 177.722182 82.365398 
L 180.968727 190.081951 
L 184.215273 190.081951 
L 187.461818 82.942049 
L 190.708364 82.942049 
L 193.954909 189.649463 
L 197.201455 189.649463 
L 200.448 83.374537 
L 203.694545 83.374537 
L 206.941091 189.325098 
L 210.187636 189.325098 
L 213.434182 83.698902 
L 216.680727 83.698902 
L 219.927273 189.081823 
L 223.173818 189.081823 
L 226.420364 83.942177 
L 229.666909 83.942177 
L 232.913455 188.899367 
L 236.16 188.899367 
L 239.406545 84.124633 
L 242.653091 84.124633 
L 245.899636 188.762526 
L 249.146182 188.762526 
L 252.392727 84.261474 
L 255.639273 84.261474 
L 258.885818 188.659894 
L 262.132364 188.659894 
L 265.378909 84.364106 
L 268.625455 84.364106 
L 271.872 188.582921 
L 275.118545 188.582921 
L 278.365091 84.441079 
L 281.611636 84.441079 
L 284.858182 188.52519 
L 288.104727 188.52519 
L 291.351273 84.49881 
L 294.597818 84.49881 
L 297.844364 188.481893 
L 301.090909 188.481893 
L 304.337455 84.542107 
L 307.584 84.542107 
L 310.830545 188.44942 
L 314.077091 188.44942 
L 317.323636 84.57458 
L 320.570182 84.57458 
L 323.816727 188.425065 
L 327.063273 188.425065 
L 330.309818 84.598935 
L 333.556364 84.598935 
L 336.802909 188.406799 
L 340.049455 188.406799 
L 343.296 84.617201 
L 346.542545 84.617201 
L 349.789091 188.393099 
L 353.035636 188.393099 
L 356.282182 84.630901 
L 359.528727 84.630901 
L 362.775273 188.382824 
L 366.021818 188.382824 
L 369.268364 84.641176 
L 372.514909 84.641176 
L 375.761455 188.375118 
L 379.008 188.375118 
L 382.254545 84.648882 
L 385.501091 84.648882 
L 388.747636 188.369339 
L 391.994182 188.369339 
L 395.240727 84.654661 
L 398.487273 84.654661 
" clip-path="url(#p7b131d17d6)" style="fill: none; stroke: #ff0000; stroke-width: 1.5; stroke-linecap: square"/>
   </g>
   <g id="line2d_17">
    <path d="M 73.832727 50.112 
L 77.079273 50.112 
L 80.325818 50.112 
L 83.572364 50.112 
L 86.818909 58.752 
L 90.065455 58.752 
L 93.312 58.752 
L 96.558545 58.752 
L 99.805091 65.232 
L 103.051636 65.232 
L 106.298182 65.232 
L 109.544727 65.232 
L 112.791273 70.092 
L 116.037818 70.092 
L 119.284364 70.092 
L 122.530909 70.092 
L 125.777455 73.737 
L 129.024 73.737 
L 132.270545 73.737 
L 135.517091 73.737 
L 138.763636 76.47075 
L 142.010182 76.47075 
L 145.256727 76.47075 
L 148.503273 76.47075 
L 151.749818 78.521062 
L 154.996364 78.521062 
L 158.242909 78.521062 
L 161.489455 78.521062 
L 164.736 80.058797 
L 167.982545 80.058797 
L 171.229091 80.058797 
L 174.475636 80.058797 
L 177.722182 81.212098 
L 180.968727 81.212098 
L 184.215273 81.212098 
L 187.461818 81.212098 
L 190.708364 82.077073 
L 193.954909 82.077073 
L 197.201455 82.077073 
L 200.448 82.077073 
L 203.694545 82.725805 
L 206.941091 82.725805 
L 210.187636 82.725805 
L 213.434182 82.725805 
L 216.680727 83.212354 
L 219.927273 83.212354 
L 223.173818 83.212354 
L 226.420364 83.212354 
L 229.666909 83.577265 
L 232.913455 83.577265 
L 236.16 83.577265 
L 239.406545 83.577265 
L 242.653091 83.850949 
L 245.899636 83.850949 
L 249.146182 83.850949 
L 252.392727 83.850949 
L 255.639273 84.056212 
L 258.885818 84.056212 
L 262.132364 84.056212 
L 265.378909 84.056212 
L 268.625455 84.210159 
L 271.872 84.210159 
L 275.118545 84.210159 
L 278.365091 84.210159 
L 281.611636 84.325619 
L 284.858182 84.325619 
L 288.104727 84.325619 
L 291.351273 84.325619 
L 294.597818 84.412214 
L 297.844364 84.412214 
L 301.090909 84.412214 
L 304.337455 84.412214 
L 307.584 84.477161 
L 310.830545 84.477161 
L 314.077091 84.477161 
L 317.323636 84.477161 
L 320.570182 84.525871 
L 323.816727 84.525871 
L 327.063273 84.525871 
L 330.309818 84.525871 
L 333.556364 84.562403 
L 336.802909 84.562403 
L 340.049455 84.562403 
L 343.296 84.562403 
L 346.542545 84.589802 
L 349.789091 84.589802 
L 353.035636 84.589802 
L 356.282182 84.589802 
L 359.528727 84.610352 
L 362.775273 84.610352 
L 366.021818 84.610352 
L 369.268364 84.610352 
L 372.514909 84.625764 
L 375.761455 84.625764 
L 379.008 84.625764 
L 382.254545 84.625764 
L 385.501091 84.637323 
L 388.747636 84.637323 
L 391.994182 84.637323 
L 395.240727 84.637323 
L 398.487273 84.645992 
" clip-path="url(#p7b131d17d6)" style="fill: none; stroke: #bfbf00; stroke-width: 1.5; stroke-linecap: square"/>
   </g>
   <g id="patch_3">
    <path d="M 57.6 231.552 
L 57.6 41.472 
" style="fill: none; stroke: #000000; stroke-width: 0.8; stroke-linejoin: miter; stroke-linecap: square"/>
   </g>
   <g id="patch_4">
    <path d="M 414.72 231.552 
L 414.72 41.472 
" style="fill: none; stroke: #000000; stroke-width: 0.8; stroke-linejoin: miter; stroke-linecap: square"/>
   </g>
   <g id="patch_5">
    <path d="M 57.6 231.552 
L 414.72 231.552 
" style="fill: none; stroke: #000000; stroke-width: 0.8; stroke-linejoin: miter; stroke-linecap: square"/>
   </g>
   <g id="patch_6">
    <path d="M 57.6 41.472 
L 414.72 41.472 
" style="fill: none; stroke: #000000; stroke-width: 0.8; stroke-linejoin: miter; stroke-linecap: square"/>
   </g>
  </g>
  <g id="axes_2">
   <g id="patch_7">
    <path d="M 57.6 307.584 
L 414.72 307.584 
L 414.72 231.552 
L 57.6 231.552 
z
" style="fill: #ffffff"/>
   </g>
   <g id="PathCollection_1">
    <defs>
     <path id="m219e1fd696" d="M 0 1.322876 
C 0.350831 1.322876 0.68734 1.183489 0.935414 0.935414 
C 1.183489 0.68734 1.322876 0.350831 1.322876 0 
C 1.322876 -0.350831 1.183489 -0.68734 0.935414 -0.935414 
C 0.68734 -1.183489 0.350831 -1.322876 0 -1.322876 
C -0.350831 -1.322876 -0.68734 -1.183489 -0.935414 -0.935414 
C -1.183489 -0.68734 -1.322876 -0.350831 -1.322876 0 
C -1.322876 0.350831 -1.183489 0.68734 -0.935414 0.935414 
C -0.68734 1.183489 -0.350831 1.322876 0 1.322876 
z
" style="stroke: #008000"/>
    </defs>
    <g clip-path="url(#pded207877b)">
     <use xlink:href="#m219e1fd696" x="77.079273" y="304.128" style="fill: #008000; stroke: #008000"/>
     <use xlink:href="#m219e1fd696" x="90.065455" y="265.469811" style="fill: #008000; stroke: #008000"/>
     <use xlink:href="#m219e1fd696" x="103.051636" y="259.65655" style="fill: #008000; stroke: #008000"/>
     <use xlink:href="#m219e1fd696" x="116.037818" y="254.65273" style="fill: #008000; stroke: #008000"/>
     <use xlink:href="#m219e1fd696" x="129.024" y="250.463485" style="fill: #008000; stroke: #008000"/>
     <use xlink:href="#m219e1fd696" x="142.010182" y="247.036907" style="fill: #008000; stroke: #008000"/>
     <use xlink:href="#m219e1fd696" x="154.996364" y="244.287118" style="fill: #008000; stroke: #008000"/>
     <use xlink:href="#m219e1fd696" x="167.982545" y="242.114037" style="fill: #008000; stroke: #008000"/>
     <use xlink:href="#m219e1fd696" x="180.968727" y="240.417437" style="fill: #008000; stroke: #008000"/>
     <use xlink:href="#m219e1fd696" x="193.954909" y="239.105356" style="fill: #008000; stroke: #008000"/>
     <use xlink:href="#m219e1fd696" x="206.941091" y="238.098077" style="fill: #008000; stroke: #008000"/>
     <use xlink:href="#m219e1fd696" x="219.927273" y="237.329147" style="fill: #008000; stroke: #008000"/>
     <use xlink:href="#m219e1fd696" x="232.913455" y="236.744693" style="fill: #008000; stroke: #008000"/>
     <use xlink:href="#m219e1fd696" x="245.899636" y="236.301911" style="fill: #008000; stroke: #008000"/>
     <use xlink:href="#m219e1fd696" x="258.885818" y="235.967293" style="fill: #008000; stroke: #008000"/>
     <use xlink:href="#m219e1fd696" x="271.872" y="235.71489" style="fill: #008000; stroke: #008000"/>
     <use xlink:href="#m219e1fd696" x="284.858182" y="235.524774" style="fill: #008000; stroke: #008000"/>
     <use xlink:href="#m219e1fd696" x="297.844364" y="235.381725" style="fill: #008000; stroke: #008000"/>
     <use xlink:href="#m219e1fd696" x="310.830545" y="235.274178" style="fill: #008000; stroke: #008000"/>
     <use xlink:href="#m219e1fd696" x="323.816727" y="235.19337" style="fill: #008000; stroke: #008000"/>
     <use xlink:href="#m219e1fd696" x="336.802909" y="235.132682" style="fill: #008000; stroke: #008000"/>
     <use xlink:href="#m219e1fd696" x="349.789091" y="235.087119" style="fill: #008000; stroke: #008000"/>
     <use xlink:href="#m219e1fd696" x="362.775273" y="235.05292" style="fill: #008000; stroke: #008000"/>
     <use xlink:href="#m219e1fd696" x="375.761455" y="235.027256" style="fill: #008000; stroke: #008000"/>
     <use xlink:href="#m219e1fd696" x="388.747636" y="235.008" style="fill: #008000; stroke: #008000"/>
    </g>
   </g>
   <g id="PathCollection_2">
    <defs>
     <path id="m35cf2e2b63" d="M 0 1.322876 
C 0.350831 1.322876 0.68734 1.183489 0.935414 0.935414 
C 1.183489 0.68734 1.322876 0.350831 1.322876 0 
C 1.322876 -0.350831 1.183489 -0.68734 0.935414 -0.935414 
C 0.68734 -1.183489 0.350831 -1.322876 0 -1.322876 
C -0.350831 -1.322876 -0.68734 -1.183489 -0.935414 -0.935414 
C -1.183489 -0.68734 -1.322876 -0.350831 -1.322876 0 
C -1.322876 0.350831 -1.183489 0.68734 -0.935414 0.935414 
C -0.68734 1.183489 -0.350831 1.322876 0 1.322876 
z
" style="stroke: #800080"/>
    </defs>
    <g clip-path="url(#pded207877b)">
     <use xlink:href="#m35cf2e2b63" x="83.572364" y="273.382306" style="fill: #800080; stroke: #800080"/>
     <use xlink:href="#m35cf2e2b63" x="96.558545" y="266.394648" style="fill: #800080; stroke: #800080"/>
     <use xlink:href="#m35cf2e2b63" x="109.544727" y="260.259144" style="fill: #800080; stroke: #800080"/>
     <use xlink:href="#m35cf2e2b63" x="122.530909" y="255.034069" style="fill: #800080; stroke: #800080"/>
     <use xlink:href="#m35cf2e2b63" x="135.517091" y="250.698931" style="fill: #800080; stroke: #800080"/>
     <use xlink:href="#m35cf2e2b63" x="148.503273" y="247.179352" style="fill: #800080; stroke: #800080"/>
     <use xlink:href="#m35cf2e2b63" x="161.489455" y="244.371895" style="fill: #800080; stroke: #800080"/>
     <use xlink:href="#m35cf2e2b63" x="174.475636" y="242.163838" style="fill: #800080; stroke: #800080"/>
     <use xlink:href="#m35cf2e2b63" x="187.461818" y="240.446395" style="fill: #800080; stroke: #800080"/>
     <use xlink:href="#m35cf2e2b63" x="200.448" y="239.122062" style="fill: #800080; stroke: #800080"/>
     <use xlink:href="#m35cf2e2b63" x="213.434182" y="238.107656" style="fill: #800080; stroke: #800080"/>
     <use xlink:href="#m35cf2e2b63" x="226.420364" y="237.334614" style="fill: #800080; stroke: #800080"/>
     <use xlink:href="#m35cf2e2b63" x="239.406545" y="236.747802" style="fill: #800080; stroke: #800080"/>
     <use xlink:href="#m35cf2e2b63" x="252.392727" y="236.303674" style="fill: #800080; stroke: #800080"/>
     <use xlink:href="#m35cf2e2b63" x="265.378909" y="235.968291" style="fill: #800080; stroke: #800080"/>
     <use xlink:href="#m35cf2e2b63" x="278.365091" y="235.715454" style="fill: #800080; stroke: #800080"/>
     <use xlink:href="#m35cf2e2b63" x="291.351273" y="235.525092" style="fill: #800080; stroke: #800080"/>
     <use xlink:href="#m35cf2e2b63" x="304.337455" y="235.381904" style="fill: #800080; stroke: #800080"/>
     <use xlink:href="#m35cf2e2b63" x="317.323636" y="235.274279" style="fill: #800080; stroke: #800080"/>
     <use xlink:href="#m35cf2e2b63" x="330.309818" y="235.193427" style="fill: #800080; stroke: #800080"/>
     <use xlink:href="#m35cf2e2b63" x="343.296" y="235.132714" style="fill: #800080; stroke: #800080"/>
     <use xlink:href="#m35cf2e2b63" x="356.282182" y="235.087137" style="fill: #800080; stroke: #800080"/>
     <use xlink:href="#m35cf2e2b63" x="369.268364" y="235.05293" style="fill: #800080; stroke: #800080"/>
     <use xlink:href="#m35cf2e2b63" x="382.254545" y="235.027262" style="fill: #800080; stroke: #800080"/>
     <use xlink:href="#m35cf2e2b63" x="395.240727" y="235.008003" style="fill: #800080; stroke: #800080"/>
    </g>
   </g>
   <g id="matplotlib.axis_3">
    <g id="xtick_7">
     <g id="line2d_18">
      <g>
       <use xlink:href="#m193906420e" x="73.832727" y="307.584" style="stroke: #000000; stroke-width: 0.8"/>
      </g>
     </g>
     <g id="text_8">
      <!-- 0 -->
      <g transform="translate(70.651477 322.182437) scale(0.1 -0.1)">
       <use xlink:href="#DejaVuSans-30"/>
      </g>
     </g>
    </g>
    <g id="xtick_8">
     <g id="line2d_19">
      <g>
       <use xlink:href="#m193906420e" x="138.763636" y="307.584" style="stroke: #000000; stroke-width: 0.8"/>
      </g>
     </g>
     <g id="text_9">
      <!-- 20 -->
      <g transform="translate(132.401136 322.182437) scale(0.1 -0.1)">
       <defs>
        <path id="DejaVuSans-32" d="M 1228 531 
L 3431 531 
L 3431 0 
L 469 0 
L 469 531 
Q 828 903 1448 1529 
Q 2069 2156 2228 2338 
Q 2531 2678 2651 2914 
Q 2772 3150 2772 3378 
Q 2772 3750 2511 3984 
Q 2250 4219 1831 4219 
Q 1534 4219 1204 4116 
Q 875 4013 500 3803 
L 500 4441 
Q 881 4594 1212 4672 
Q 1544 4750 1819 4750 
Q 2544 4750 2975 4387 
Q 3406 4025 3406 3419 
Q 3406 3131 3298 2873 
Q 3191 2616 2906 2266 
Q 2828 2175 2409 1742 
Q 1991 1309 1228 531 
z
" transform="scale(0.015625)"/>
       </defs>
       <use xlink:href="#DejaVuSans-32"/>
       <use xlink:href="#DejaVuSans-30" x="63.623047"/>
      </g>
     </g>
    </g>
    <g id="xtick_9">
     <g id="line2d_20">
      <g>
       <use xlink:href="#m193906420e" x="203.694545" y="307.584" style="stroke: #000000; stroke-width: 0.8"/>
      </g>
     </g>
     <g id="text_10">
      <!-- 40 -->
      <g transform="translate(197.332045 322.182437) scale(0.1 -0.1)">
       <use xlink:href="#DejaVuSans-34"/>
       <use xlink:href="#DejaVuSans-30" x="63.623047"/>
      </g>
     </g>
    </g>
    <g id="xtick_10">
     <g id="line2d_21">
      <g>
       <use xlink:href="#m193906420e" x="268.625455" y="307.584" style="stroke: #000000; stroke-width: 0.8"/>
      </g>
     </g>
     <g id="text_11">
      <!-- 60 -->
      <g transform="translate(262.262955 322.182437) scale(0.1 -0.1)">
       <use xlink:href="#DejaVuSans-36"/>
       <use xlink:href="#DejaVuSans-30" x="63.623047"/>
      </g>
     </g>
    </g>
    <g id="xtick_11">
     <g id="line2d_22">
      <g>
       <use xlink:href="#m193906420e" x="333.556364" y="307.584" style="stroke: #000000; stroke-width: 0.8"/>
      </g>
     </g>
     <g id="text_12">
      <!-- 80 -->
      <g transform="translate(327.193864 322.182437) scale(0.1 -0.1)">
       <defs>
        <path id="DejaVuSans-38" d="M 2034 2216 
Q 1584 2216 1326 1975 
Q 1069 1734 1069 1313 
Q 1069 891 1326 650 
Q 1584 409 2034 409 
Q 2484 409 2743 651 
Q 3003 894 3003 1313 
Q 3003 1734 2745 1975 
Q 2488 2216 2034 2216 
z
M 1403 2484 
Q 997 2584 770 2862 
Q 544 3141 544 3541 
Q 544 4100 942 4425 
Q 1341 4750 2034 4750 
Q 2731 4750 3128 4425 
Q 3525 4100 3525 3541 
Q 3525 3141 3298 2862 
Q 3072 2584 2669 2484 
Q 3125 2378 3379 2068 
Q 3634 1759 3634 1313 
Q 3634 634 3220 271 
Q 2806 -91 2034 -91 
Q 1263 -91 848 271 
Q 434 634 434 1313 
Q 434 1759 690 2068 
Q 947 2378 1403 2484 
z
M 1172 3481 
Q 1172 3119 1398 2916 
Q 1625 2713 2034 2713 
Q 2441 2713 2670 2916 
Q 2900 3119 2900 3481 
Q 2900 3844 2670 4047 
Q 2441 4250 2034 4250 
Q 1625 4250 1398 4047 
Q 1172 3844 1172 3481 
z
" transform="scale(0.015625)"/>
       </defs>
       <use xlink:href="#DejaVuSans-38"/>
       <use xlink:href="#DejaVuSans-30" x="63.623047"/>
      </g>
     </g>
    </g>
    <g id="xtick_12">
     <g id="line2d_23">
      <g>
       <use xlink:href="#m193906420e" x="398.487273" y="307.584" style="stroke: #000000; stroke-width: 0.8"/>
      </g>
     </g>
     <g id="text_13">
      <!-- 100 -->
      <g transform="translate(388.943523 322.182437) scale(0.1 -0.1)">
       <use xlink:href="#DejaVuSans-31"/>
       <use xlink:href="#DejaVuSans-30" x="63.623047"/>
       <use xlink:href="#DejaVuSans-30" x="127.246094"/>
      </g>
     </g>
    </g>
    <g id="text_14">
     <!-- Time -->
     <g transform="translate(223.926406 335.860562) scale(0.1 -0.1)">
      <defs>
       <path id="DejaVuSans-54" d="M -19 4666 
L 3928 4666 
L 3928 4134 
L 2272 4134 
L 2272 0 
L 1638 0 
L 1638 4134 
L -19 4134 
L -19 4666 
z
" transform="scale(0.015625)"/>
       <path id="DejaVuSans-6d" d="M 3328 2828 
Q 3544 3216 3844 3400 
Q 4144 3584 4550 3584 
Q 5097 3584 5394 3201 
Q 5691 2819 5691 2113 
L 5691 0 
L 5113 0 
L 5113 2094 
Q 5113 2597 4934 2840 
Q 4756 3084 4391 3084 
Q 3944 3084 3684 2787 
Q 3425 2491 3425 1978 
L 3425 0 
L 2847 0 
L 2847 2094 
Q 2847 2600 2669 2842 
Q 2491 3084 2119 3084 
Q 1678 3084 1418 2786 
Q 1159 2488 1159 1978 
L 1159 0 
L 581 0 
L 581 3500 
L 1159 3500 
L 1159 2956 
Q 1356 3278 1631 3431 
Q 1906 3584 2284 3584 
Q 2666 3584 2933 3390 
Q 3200 3197 3328 2828 
z
" transform="scale(0.015625)"/>
      </defs>
      <use xlink:href="#DejaVuSans-54"/>
      <use xlink:href="#DejaVuSans-69" x="57.958984"/>
      <use xlink:href="#DejaVuSans-6d" x="85.742188"/>
      <use xlink:href="#DejaVuSans-65" x="183.154297"/>
     </g>
    </g>
   </g>
   <g id="matplotlib.axis_4">
    <g id="ytick_7">
     <g id="line2d_24">
      <g>
       <use xlink:href="#mc311a9ac20" x="57.6" y="304.128" style="stroke: #000000; stroke-width: 0.8"/>
      </g>
     </g>
     <g id="text_15">
      <!-- 0.8 -->
      <g transform="translate(34.696875 307.927219) scale(0.1 -0.1)">
       <use xlink:href="#DejaVuSans-30"/>
       <use xlink:href="#DejaVuSans-2e" x="63.623047"/>
       <use xlink:href="#DejaVuSans-38" x="95.410156"/>
      </g>
     </g>
    </g>
    <g id="ytick_8">
     <g id="line2d_25">
      <g>
       <use xlink:href="#mc311a9ac20" x="57.6" y="269.539094" style="stroke: #000000; stroke-width: 0.8"/>
      </g>
     </g>
     <g id="text_16">
      <!-- 0.9 -->
      <g transform="translate(34.696875 273.338313) scale(0.1 -0.1)">
       <defs>
        <path id="DejaVuSans-39" d="M 703 97 
L 703 672 
Q 941 559 1184 500 
Q 1428 441 1663 441 
Q 2288 441 2617 861 
Q 2947 1281 2994 2138 
Q 2813 1869 2534 1725 
Q 2256 1581 1919 1581 
Q 1219 1581 811 2004 
Q 403 2428 403 3163 
Q 403 3881 828 4315 
Q 1253 4750 1959 4750 
Q 2769 4750 3195 4129 
Q 3622 3509 3622 2328 
Q 3622 1225 3098 567 
Q 2575 -91 1691 -91 
Q 1453 -91 1209 -44 
Q 966 3 703 97 
z
M 1959 2075 
Q 2384 2075 2632 2365 
Q 2881 2656 2881 3163 
Q 2881 3666 2632 3958 
Q 2384 4250 1959 4250 
Q 1534 4250 1286 3958 
Q 1038 3666 1038 3163 
Q 1038 2656 1286 2365 
Q 1534 2075 1959 2075 
z
" transform="scale(0.015625)"/>
       </defs>
       <use xlink:href="#DejaVuSans-30"/>
       <use xlink:href="#DejaVuSans-2e" x="63.623047"/>
       <use xlink:href="#DejaVuSans-39" x="95.410156"/>
      </g>
     </g>
    </g>
    <g id="ytick_9">
     <g id="line2d_26">
      <g>
       <use xlink:href="#mc311a9ac20" x="57.6" y="234.950189" style="stroke: #000000; stroke-width: 0.8"/>
      </g>
     </g>
     <g id="text_17">
      <!-- 1.0 -->
      <g transform="translate(34.696875 238.749407) scale(0.1 -0.1)">
       <use xlink:href="#DejaVuSans-31"/>
       <use xlink:href="#DejaVuSans-2e" x="63.623047"/>
       <use xlink:href="#DejaVuSans-30" x="95.410156"/>
      </g>
     </g>
    </g>
    <g id="text_18">
     <!-- Influence -->
     <g transform="translate(28.617187 292.600812) rotate(-90) scale(0.1 -0.1)">
      <defs>
       <path id="DejaVuSans-49" d="M 628 4666 
L 1259 4666 
L 1259 0 
L 628 0 
L 628 4666 
z
" transform="scale(0.015625)"/>
       <path id="DejaVuSans-66" d="M 2375 4863 
L 2375 4384 
L 1825 4384 
Q 1516 4384 1395 4259 
Q 1275 4134 1275 3809 
L 1275 3500 
L 2222 3500 
L 2222 3053 
L 1275 3053 
L 1275 0 
L 697 0 
L 697 3053 
L 147 3053 
L 147 3500 
L 697 3500 
L 697 3744 
Q 697 4328 969 4595 
Q 1241 4863 1831 4863 
L 2375 4863 
z
" transform="scale(0.015625)"/>
       <path id="DejaVuSans-63" d="M 3122 3366 
L 3122 2828 
Q 2878 2963 2633 3030 
Q 2388 3097 2138 3097 
Q 1578 3097 1268 2742 
Q 959 2388 959 1747 
Q 959 1106 1268 751 
Q 1578 397 2138 397 
Q 2388 397 2633 464 
Q 2878 531 3122 666 
L 3122 134 
Q 2881 22 2623 -34 
Q 2366 -91 2075 -91 
Q 1284 -91 818 406 
Q 353 903 353 1747 
Q 353 2603 823 3093 
Q 1294 3584 2113 3584 
Q 2378 3584 2631 3529 
Q 2884 3475 3122 3366 
z
" transform="scale(0.015625)"/>
      </defs>
      <use xlink:href="#DejaVuSans-49"/>
      <use xlink:href="#DejaVuSans-6e" x="29.492188"/>
      <use xlink:href="#DejaVuSans-66" x="92.871094"/>
      <use xlink:href="#DejaVuSans-6c" x="128.076172"/>
      <use xlink:href="#DejaVuSans-75" x="155.859375"/>
      <use xlink:href="#DejaVuSans-65" x="219.238281"/>
      <use xlink:href="#DejaVuSans-6e" x="280.761719"/>
      <use xlink:href="#DejaVuSans-63" x="344.140625"/>
      <use xlink:href="#DejaVuSans-65" x="399.121094"/>
     </g>
    </g>
   </g>
   <g id="patch_8">
    <path d="M 57.6 307.584 
L 57.6 231.552 
" style="fill: none; stroke: #000000; stroke-width: 0.8; stroke-linejoin: miter; stroke-linecap: square"/>
   </g>
   <g id="patch_9">
    <path d="M 414.72 307.584 
L 414.72 231.552 
" style="fill: none; stroke: #000000; stroke-width: 0.8; stroke-linejoin: miter; stroke-linecap: square"/>
   </g>
   <g id="patch_10">
    <path d="M 57.6 307.584 
L 414.72 307.584 
" style="fill: none; stroke: #000000; stroke-width: 0.8; stroke-linejoin: miter; stroke-linecap: square"/>
   </g>
   <g id="patch_11">
    <path d="M 57.6 231.552 
L 414.72 231.552 
" style="fill: none; stroke: #000000; stroke-width: 0.8; stroke-linejoin: miter; stroke-linecap: square"/>
   </g>
  </g>
 </g>
 <defs>
  <clipPath id="p7b131d17d6">
   <rect x="57.6" y="41.472" width="357.12" height="190.08"/>
  </clipPath>
  <clipPath id="pded207877b">
   <rect x="57.6" y="231.552" width="357.12" height="76.032"/>
  </clipPath>
 </defs>
</svg>
