<?xml version="1.0" encoding="utf-8" standalone="no"?>
<!DOCTYPE svg PUBLIC "-//W3C//DTD SVG 1.1//EN"
  "http://www.w3.org/Graphics/SVG/1.1/DTD/svg11.dtd">
<svg xmlns:xlink="http://www.w3.org/1999/xlink" width="460.8pt" height="345.6pt" viewBox="0 0 460.8 345.6" xmlns="http://www.w3.org/2000/svg" version="1.1">
 <metadata>
  <rdf:RDF xmlns:dc="http://purl.org/dc/elements/1.1/" xmlns:cc="http://creativecommons.org/ns#" xmlns:rdf="http://www.w3.org/1999/02/22-rdf-syntax-ns#">
   <cc:Work>
    <dc:type rdf:resource="http://purl.org/dc/dcmitype/StillImage"/>
    <dc:date>2024-04-26T13:52:57.471963</dc:date>
    <dc:format>image/svg+xml</dc:format>
    <dc:creator>
     <cc:Agent>
      <dc:title>Matplotlib v3.6.1, https://matplotlib.org/</dc:title>
     </cc:Agent>
    </dc:creator>
   </cc:Work>
  </rdf:RDF>
 </metadata>
 <defs>
  <style type="text/css">*{stroke-linejoin: round; stroke-linecap: butt}</style>
 </defs>
 <g id="figure_1">
  <g id="patch_1">
   <path d="M 0 345.6 
L 460.8 345.6 
L 460.8 0 
L 0 0 
z
" style="fill: #ffffff"/>
  </g>
  <g id="axes_1">
   <g id="patch_2">
    <path d="M 57.6 231.552 
L 414.72 231.552 
L 414.72 41.472 
L 57.6 41.472 
z
" style="fill: #ffffff"/>
   </g>
   <g id="matplotlib.axis_1">
    <g id="xtick_1">
     <g id="line2d_1">
      <defs>
       <path id="m6d01a807ef" d="M 0 0 
L 0 3.5 
" style="stroke: #000000; stroke-width: 0.8"/>
      </defs>
      <g>
       <use xlink:href="#m6d01a807ef" x="73.832727" y="231.552" style="stroke: #000000; stroke-width: 0.8"/>
      </g>
     </g>
    </g>
    <g id="xtick_2">
     <g id="line2d_2">
      <g>
       <use xlink:href="#m6d01a807ef" x="138.763636" y="231.552" style="stroke: #000000; stroke-width: 0.8"/>
      </g>
     </g>
    </g>
    <g id="xtick_3">
     <g id="line2d_3">
      <g>
       <use xlink:href="#m6d01a807ef" x="203.694545" y="231.552" style="stroke: #000000; stroke-width: 0.8"/>
      </g>
     </g>
    </g>
    <g id="xtick_4">
     <g id="line2d_4">
      <g>
       <use xlink:href="#m6d01a807ef" x="268.625455" y="231.552" style="stroke: #000000; stroke-width: 0.8"/>
      </g>
     </g>
    </g>
    <g id="xtick_5">
     <g id="line2d_5">
      <g>
       <use xlink:href="#m6d01a807ef" x="333.556364" y="231.552" style="stroke: #000000; stroke-width: 0.8"/>
      </g>
     </g>
    </g>
    <g id="xtick_6">
     <g id="line2d_6">
      <g>
       <use xlink:href="#m6d01a807ef" x="398.487273" y="231.552" style="stroke: #000000; stroke-width: 0.8"/>
      </g>
     </g>
    </g>
   </g>
   <g id="matplotlib.axis_2">
    <g id="ytick_1">
     <g id="line2d_7">
      <defs>
       <path id="m1611c00384" d="M 0 0 
L -3.5 0 
" style="stroke: #000000; stroke-width: 0.8"/>
      </defs>
      <g>
       <use xlink:href="#m1611c00384" x="57.6" y="222.912" style="stroke: #000000; stroke-width: 0.8"/>
      </g>
     </g>
     <g id="text_1">
      <!-- 0 -->
      <g transform="translate(44.2375 226.711219) scale(0.1 -0.1)">
       <defs>
        <path id="DejaVuSans-30" d="M 2034 4250 
Q 1547 4250 1301 3770 
Q 1056 3291 1056 2328 
Q 1056 1369 1301 889 
Q 1547 409 2034 409 
Q 2525 409 2770 889 
Q 3016 1369 3016 2328 
Q 3016 3291 2770 3770 
Q 2525 4250 2034 4250 
z
M 2034 4750 
Q 2819 4750 3233 4129 
Q 3647 3509 3647 2328 
Q 3647 1150 3233 529 
Q 2819 -91 2034 -91 
Q 1250 -91 836 529 
Q 422 1150 422 2328 
Q 422 3509 836 4129 
Q 1250 4750 2034 4750 
z
" transform="scale(0.015625)"/>
       </defs>
       <use xlink:href="#DejaVuSans-30"/>
      </g>
     </g>
    </g>
    <g id="ytick_2">
     <g id="line2d_8">
      <g>
       <use xlink:href="#m1611c00384" x="57.6" y="188.352" style="stroke: #000000; stroke-width: 0.8"/>
      </g>
     </g>
     <g id="text_2">
      <!-- L -->
      <g transform="translate(45.028125 192.151219) scale(0.1 -0.1)">
       <defs>
        <path id="DejaVuSans-4c" d="M 628 4666 
L 1259 4666 
L 1259 531 
L 3531 531 
L 3531 0 
L 628 0 
L 628 4666 
z
" transform="scale(0.015625)"/>
       </defs>
       <use xlink:href="#DejaVuSans-4c"/>
      </g>
     </g>
    </g>
    <g id="ytick_3">
     <g id="line2d_9">
      <g>
       <use xlink:href="#m1611c00384" x="57.6" y="153.792" style="stroke: #000000; stroke-width: 0.8"/>
      </g>
     </g>
     <g id="text_3">
      <!-- 0.4 -->
      <g transform="translate(34.696875 157.591219) scale(0.1 -0.1)">
       <defs>
        <path id="DejaVuSans-2e" d="M 684 794 
L 1344 794 
L 1344 0 
L 684 0 
L 684 794 
z
" transform="scale(0.015625)"/>
        <path id="DejaVuSans-34" d="M 2419 4116 
L 825 1625 
L 2419 1625 
L 2419 4116 
z
M 2253 4666 
L 3047 4666 
L 3047 1625 
L 3713 1625 
L 3713 1100 
L 3047 1100 
L 3047 0 
L 2419 0 
L 2419 1100 
L 313 1100 
L 313 1709 
L 2253 4666 
z
" transform="scale(0.015625)"/>
       </defs>
       <use xlink:href="#DejaVuSans-30"/>
       <use xlink:href="#DejaVuSans-2e" x="63.623047"/>
       <use xlink:href="#DejaVuSans-34" x="95.410156"/>
      </g>
     </g>
    </g>
    <g id="ytick_4">
     <g id="line2d_10">
      <g>
       <use xlink:href="#m1611c00384" x="57.6" y="119.232" style="stroke: #000000; stroke-width: 0.8"/>
      </g>
     </g>
     <g id="text_4">
      <!-- 0.6 -->
      <g transform="translate(34.696875 123.031219) scale(0.1 -0.1)">
       <defs>
        <path id="DejaVuSans-36" d="M 2113 2584 
Q 1688 2584 1439 2293 
Q 1191 2003 1191 1497 
Q 1191 994 1439 701 
Q 1688 409 2113 409 
Q 2538 409 2786 701 
Q 3034 994 3034 1497 
Q 3034 2003 2786 2293 
Q 2538 2584 2113 2584 
z
M 3366 4563 
L 3366 3988 
Q 3128 4100 2886 4159 
Q 2644 4219 2406 4219 
Q 1781 4219 1451 3797 
Q 1122 3375 1075 2522 
Q 1259 2794 1537 2939 
Q 1816 3084 2150 3084 
Q 2853 3084 3261 2657 
Q 3669 2231 3669 1497 
Q 3669 778 3244 343 
Q 2819 -91 2113 -91 
Q 1303 -91 875 529 
Q 447 1150 447 2328 
Q 447 3434 972 4092 
Q 1497 4750 2381 4750 
Q 2619 4750 2861 4703 
Q 3103 4656 3366 4563 
z
" transform="scale(0.015625)"/>
       </defs>
       <use xlink:href="#DejaVuSans-30"/>
       <use xlink:href="#DejaVuSans-2e" x="63.623047"/>
       <use xlink:href="#DejaVuSans-36" x="95.410156"/>
      </g>
     </g>
    </g>
    <g id="ytick_5">
     <g id="line2d_11">
      <g>
       <use xlink:href="#m1611c00384" x="57.6" y="84.672" style="stroke: #000000; stroke-width: 0.8"/>
      </g>
     </g>
     <g id="text_5">
      <!-- U -->
      <g transform="translate(43.28125 88.471219) scale(0.1 -0.1)">
       <defs>
        <path id="DejaVuSans-55" d="M 556 4666 
L 1191 4666 
L 1191 1831 
Q 1191 1081 1462 751 
Q 1734 422 2344 422 
Q 2950 422 3222 751 
Q 3494 1081 3494 1831 
L 3494 4666 
L 4128 4666 
L 4128 1753 
Q 4128 841 3676 375 
Q 3225 -91 2344 -91 
Q 1459 -91 1007 375 
Q 556 841 556 1753 
L 556 4666 
z
" transform="scale(0.015625)"/>
       </defs>
       <use xlink:href="#DejaVuSans-55"/>
      </g>
     </g>
    </g>
    <g id="ytick_6">
     <g id="line2d_12">
      <g>
       <use xlink:href="#m1611c00384" x="57.6" y="50.112" style="stroke: #000000; stroke-width: 0.8"/>
      </g>
     </g>
     <g id="text_6">
      <!-- 1 -->
      <g transform="translate(44.2375 53.911219) scale(0.1 -0.1)">
       <defs>
        <path id="DejaVuSans-31" d="M 794 531 
L 1825 531 
L 1825 4091 
L 703 3866 
L 703 4441 
L 1819 4666 
L 2450 4666 
L 2450 531 
L 3481 531 
L 3481 0 
L 794 0 
L 794 531 
z
" transform="scale(0.015625)"/>
       </defs>
       <use xlink:href="#DejaVuSans-31"/>
      </g>
     </g>
    </g>
    <g id="text_7">
     <!-- Opinion value -->
     <g transform="translate(28.617187 171.044031) rotate(-90) scale(0.1 -0.1)">
      <defs>
       <path id="DejaVuSans-4f" d="M 2522 4238 
Q 1834 4238 1429 3725 
Q 1025 3213 1025 2328 
Q 1025 1447 1429 934 
Q 1834 422 2522 422 
Q 3209 422 3611 934 
Q 4013 1447 4013 2328 
Q 4013 3213 3611 3725 
Q 3209 4238 2522 4238 
z
M 2522 4750 
Q 3503 4750 4090 4092 
Q 4678 3434 4678 2328 
Q 4678 1225 4090 567 
Q 3503 -91 2522 -91 
Q 1538 -91 948 565 
Q 359 1222 359 2328 
Q 359 3434 948 4092 
Q 1538 4750 2522 4750 
z
" transform="scale(0.015625)"/>
       <path id="DejaVuSans-70" d="M 1159 525 
L 1159 -1331 
L 581 -1331 
L 581 3500 
L 1159 3500 
L 1159 2969 
Q 1341 3281 1617 3432 
Q 1894 3584 2278 3584 
Q 2916 3584 3314 3078 
Q 3713 2572 3713 1747 
Q 3713 922 3314 415 
Q 2916 -91 2278 -91 
Q 1894 -91 1617 61 
Q 1341 213 1159 525 
z
M 3116 1747 
Q 3116 2381 2855 2742 
Q 2594 3103 2138 3103 
Q 1681 3103 1420 2742 
Q 1159 2381 1159 1747 
Q 1159 1113 1420 752 
Q 1681 391 2138 391 
Q 2594 391 2855 752 
Q 3116 1113 3116 1747 
z
" transform="scale(0.015625)"/>
       <path id="DejaVuSans-69" d="M 603 3500 
L 1178 3500 
L 1178 0 
L 603 0 
L 603 3500 
z
M 603 4863 
L 1178 4863 
L 1178 4134 
L 603 4134 
L 603 4863 
z
" transform="scale(0.015625)"/>
       <path id="DejaVuSans-6e" d="M 3513 2113 
L 3513 0 
L 2938 0 
L 2938 2094 
Q 2938 2591 2744 2837 
Q 2550 3084 2163 3084 
Q 1697 3084 1428 2787 
Q 1159 2491 1159 1978 
L 1159 0 
L 581 0 
L 581 3500 
L 1159 3500 
L 1159 2956 
Q 1366 3272 1645 3428 
Q 1925 3584 2291 3584 
Q 2894 3584 3203 3211 
Q 3513 2838 3513 2113 
z
" transform="scale(0.015625)"/>
       <path id="DejaVuSans-6f" d="M 1959 3097 
Q 1497 3097 1228 2736 
Q 959 2375 959 1747 
Q 959 1119 1226 758 
Q 1494 397 1959 397 
Q 2419 397 2687 759 
Q 2956 1122 2956 1747 
Q 2956 2369 2687 2733 
Q 2419 3097 1959 3097 
z
M 1959 3584 
Q 2709 3584 3137 3096 
Q 3566 2609 3566 1747 
Q 3566 888 3137 398 
Q 2709 -91 1959 -91 
Q 1206 -91 779 398 
Q 353 888 353 1747 
Q 353 2609 779 3096 
Q 1206 3584 1959 3584 
z
" transform="scale(0.015625)"/>
       <path id="DejaVuSans-20" transform="scale(0.015625)"/>
       <path id="DejaVuSans-76" d="M 191 3500 
L 800 3500 
L 1894 563 
L 2988 3500 
L 3597 3500 
L 2284 0 
L 1503 0 
L 191 3500 
z
" transform="scale(0.015625)"/>
       <path id="DejaVuSans-61" d="M 2194 1759 
Q 1497 1759 1228 1600 
Q 959 1441 959 1056 
Q 959 750 1161 570 
Q 1363 391 1709 391 
Q 2188 391 2477 730 
Q 2766 1069 2766 1631 
L 2766 1759 
L 2194 1759 
z
M 3341 1997 
L 3341 0 
L 2766 0 
L 2766 531 
Q 2569 213 2275 61 
Q 1981 -91 1556 -91 
Q 1019 -91 701 211 
Q 384 513 384 1019 
Q 384 1609 779 1909 
Q 1175 2209 1959 2209 
L 2766 2209 
L 2766 2266 
Q 2766 2663 2505 2880 
Q 2244 3097 1772 3097 
Q 1472 3097 1187 3025 
Q 903 2953 641 2809 
L 641 3341 
Q 956 3463 1253 3523 
Q 1550 3584 1831 3584 
Q 2591 3584 2966 3190 
Q 3341 2797 3341 1997 
z
" transform="scale(0.015625)"/>
       <path id="DejaVuSans-6c" d="M 603 4863 
L 1178 4863 
L 1178 0 
L 603 0 
L 603 4863 
z
" transform="scale(0.015625)"/>
       <path id="DejaVuSans-75" d="M 544 1381 
L 544 3500 
L 1119 3500 
L 1119 1403 
Q 1119 906 1312 657 
Q 1506 409 1894 409 
Q 2359 409 2629 706 
Q 2900 1003 2900 1516 
L 2900 3500 
L 3475 3500 
L 3475 0 
L 2900 0 
L 2900 538 
Q 2691 219 2414 64 
Q 2138 -91 1772 -91 
Q 1169 -91 856 284 
Q 544 659 544 1381 
z
M 1991 3584 
L 1991 3584 
z
" transform="scale(0.015625)"/>
       <path id="DejaVuSans-65" d="M 3597 1894 
L 3597 1613 
L 953 1613 
Q 991 1019 1311 708 
Q 1631 397 2203 397 
Q 2534 397 2845 478 
Q 3156 559 3463 722 
L 3463 178 
Q 3153 47 2828 -22 
Q 2503 -91 2169 -91 
Q 1331 -91 842 396 
Q 353 884 353 1716 
Q 353 2575 817 3079 
Q 1281 3584 2069 3584 
Q 2775 3584 3186 3129 
Q 3597 2675 3597 1894 
z
M 3022 2063 
Q 3016 2534 2758 2815 
Q 2500 3097 2075 3097 
Q 1594 3097 1305 2825 
Q 1016 2553 972 2059 
L 3022 2063 
z
" transform="scale(0.015625)"/>
      </defs>
      <use xlink:href="#DejaVuSans-4f"/>
      <use xlink:href="#DejaVuSans-70" x="78.710938"/>
      <use xlink:href="#DejaVuSans-69" x="142.1875"/>
      <use xlink:href="#DejaVuSans-6e" x="169.970703"/>
      <use xlink:href="#DejaVuSans-69" x="233.349609"/>
      <use xlink:href="#DejaVuSans-6f" x="261.132812"/>
      <use xlink:href="#DejaVuSans-6e" x="322.314453"/>
      <use xlink:href="#DejaVuSans-20" x="385.693359"/>
      <use xlink:href="#DejaVuSans-76" x="417.480469"/>
      <use xlink:href="#DejaVuSans-61" x="476.660156"/>
      <use xlink:href="#DejaVuSans-6c" x="537.939453"/>
      <use xlink:href="#DejaVuSans-75" x="565.722656"/>
      <use xlink:href="#DejaVuSans-65" x="629.101562"/>
     </g>
    </g>
   </g>
   <g id="line2d_13">
    <path d="M 57.6 84.672 
L 414.72 84.672 
" clip-path="url(#p8be3b26d75)" style="fill: none; stroke-dasharray: 5.55,2.4; stroke-dashoffset: 0; stroke: #ffc0cb; stroke-width: 1.5"/>
   </g>
   <g id="line2d_14">
    <path d="M 57.6 188.352 
L 414.72 188.352 
" clip-path="url(#p8be3b26d75)" style="fill: none; stroke-dasharray: 5.55,2.4; stroke-dashoffset: 0; stroke: #ffc0cb; stroke-width: 1.5"/>
   </g>
   <g id="line2d_15">
    <path d="M 73.832727 222.912 
L 77.079273 222.912 
L 80.325818 205.632 
L 83.572364 205.632 
L 86.818909 196.992 
L 90.065455 196.992 
L 93.312 192.672 
L 96.558545 192.672 
L 99.805091 190.512 
L 103.051636 190.512 
L 106.298182 189.432 
L 109.544727 189.432 
L 112.791273 188.892 
L 116.037818 188.892 
L 119.284364 188.622 
L 122.530909 188.622 
L 125.777455 188.487 
L 129.024 188.487 
L 132.270545 188.4195 
L 135.517091 188.4195 
L 138.763636 188.38575 
L 142.010182 188.38575 
L 145.256727 188.368875 
L 148.503273 188.368875 
L 151.749818 188.360437 
L 154.996364 188.360437 
L 158.242909 188.356219 
L 161.489455 188.356219 
L 164.736 188.354109 
L 167.982545 188.354109 
L 171.229091 188.353055 
L 174.475636 188.353055 
L 177.722182 188.352527 
L 180.968727 188.352527 
L 184.215273 188.352264 
L 187.461818 188.352264 
L 190.708364 188.352132 
L 193.954909 188.352132 
L 197.201455 188.352066 
L 200.448 188.352066 
L 203.694545 188.352033 
L 206.941091 188.352033 
L 210.187636 188.352016 
L 213.434182 188.352016 
L 216.680727 188.352008 
L 219.927273 188.352008 
L 223.173818 188.352004 
L 226.420364 188.352004 
L 229.666909 188.352002 
L 232.913455 188.352002 
L 236.16 188.352001 
L 239.406545 188.352001 
L 242.653091 188.352001 
L 245.899636 188.352001 
L 249.146182 188.352 
L 252.392727 188.352 
L 255.639273 188.352 
L 258.885818 188.352 
L 262.132364 188.352 
L 265.378909 188.352 
L 268.625455 188.352 
L 271.872 188.352 
L 275.118545 188.352 
L 278.365091 188.352 
L 281.611636 188.352 
L 284.858182 188.352 
L 288.104727 188.352 
L 291.351273 188.352 
L 294.597818 188.352 
L 297.844364 188.352 
L 301.090909 188.352 
L 304.337455 188.352 
L 307.584 188.352 
L 310.830545 188.352 
L 314.077091 188.352 
L 317.323636 188.352 
L 320.570182 188.352 
L 323.816727 188.352 
L 327.063273 188.352 
L 330.309818 188.352 
L 333.556364 188.352 
L 336.802909 188.352 
L 340.049455 188.352 
L 343.296 188.352 
L 346.542545 188.352 
L 349.789091 188.352 
L 353.035636 188.352 
L 356.282182 188.352 
L 359.528727 188.352 
L 362.775273 188.352 
L 366.021818 188.352 
L 369.268364 188.352 
L 372.514909 188.352 
L 375.761455 188.352 
L 379.008 188.352 
L 382.254545 188.352 
L 385.501091 188.352 
L 388.747636 188.352 
L 391.994182 188.352 
L 395.240727 188.352 
L 398.487273 188.352 
" clip-path="url(#p8be3b26d75)" style="fill: none; stroke: #ff0000; stroke-width: 1.5; stroke-linecap: square"/>
   </g>
   <g id="line2d_16">
    <path d="M 73.832727 50.112 
L 77.079273 67.392 
L 80.325818 67.392 
L 83.572364 76.032 
L 86.818909 76.032 
L 90.065455 80.352 
L 93.312 80.352 
L 96.558545 82.512 
L 99.805091 82.512 
L 103.051636 83.592 
L 106.298182 83.592 
L 109.544727 84.132 
L 112.791273 84.132 
L 116.037818 84.402 
L 119.284364 84.402 
L 122.530909 84.537 
L 125.777455 84.537 
L 129.024 84.6045 
L 132.270545 84.6045 
L 135.517091 84.63825 
L 138.763636 84.63825 
L 142.010182 84.655125 
L 145.256727 84.655125 
L 148.503273 84.663562 
L 151.749818 84.663562 
L 154.996364 84.667781 
L 158.242909 84.667781 
L 161.489455 84.669891 
L 164.736 84.669891 
L 167.982545 84.670945 
L 171.229091 84.670945 
L 174.475636 84.671473 
L 177.722182 84.671473 
L 180.968727 84.671736 
L 184.215273 84.671736 
L 187.461818 84.671868 
L 190.708364 84.671868 
L 193.954909 84.671934 
L 197.201455 84.671934 
L 200.448 84.671967 
L 203.694545 84.671967 
L 206.941091 84.671984 
L 210.187636 84.671984 
L 213.434182 84.671992 
L 216.680727 84.671992 
L 219.927273 84.671996 
L 223.173818 84.671996 
L 226.420364 84.671998 
L 229.666909 84.671998 
L 232.913455 84.671999 
L 236.16 84.671999 
L 239.406545 84.671999 
L 242.653091 84.671999 
L 245.899636 84.672 
L 249.146182 84.672 
L 252.392727 84.672 
L 255.639273 84.672 
L 258.885818 84.672 
L 262.132364 84.672 
L 265.378909 84.672 
L 268.625455 84.672 
L 271.872 84.672 
L 275.118545 84.672 
L 278.365091 84.672 
L 281.611636 84.672 
L 284.858182 84.672 
L 288.104727 84.672 
L 291.351273 84.672 
L 294.597818 84.672 
L 297.844364 84.672 
L 301.090909 84.672 
L 304.337455 84.672 
L 307.584 84.672 
L 310.830545 84.672 
L 314.077091 84.672 
L 317.323636 84.672 
L 320.570182 84.672 
L 323.816727 84.672 
L 327.063273 84.672 
L 330.309818 84.672 
L 333.556364 84.672 
L 336.802909 84.672 
L 340.049455 84.672 
L 343.296 84.672 
L 346.542545 84.672 
L 349.789091 84.672 
L 353.035636 84.672 
L 356.282182 84.672 
L 359.528727 84.672 
L 362.775273 84.672 
L 366.021818 84.672 
L 369.268364 84.672 
L 372.514909 84.672 
L 375.761455 84.672 
L 379.008 84.672 
L 382.254545 84.672 
L 385.501091 84.672 
L 388.747636 84.672 
L 391.994182 84.672 
L 395.240727 84.672 
L 398.487273 84.672 
" clip-path="url(#p8be3b26d75)" style="fill: none; stroke: #0000ff; stroke-width: 1.5; stroke-linecap: square"/>
   </g>
   <g id="patch_3">
    <path d="M 57.6 231.552 
L 57.6 41.472 
" style="fill: none; stroke: #000000; stroke-width: 0.8; stroke-linejoin: miter; stroke-linecap: square"/>
   </g>
   <g id="patch_4">
    <path d="M 414.72 231.552 
L 414.72 41.472 
" style="fill: none; stroke: #000000; stroke-width: 0.8; stroke-linejoin: miter; stroke-linecap: square"/>
   </g>
   <g id="patch_5">
    <path d="M 57.6 231.552 
L 414.72 231.552 
" style="fill: none; stroke: #000000; stroke-width: 0.8; stroke-linejoin: miter; stroke-linecap: square"/>
   </g>
   <g id="patch_6">
    <path d="M 57.6 41.472 
L 414.72 41.472 
" style="fill: none; stroke: #000000; stroke-width: 0.8; stroke-linejoin: miter; stroke-linecap: square"/>
   </g>
  </g>
  <g id="axes_2">
   <g id="patch_7">
    <path d="M 57.6 307.584 
L 414.72 307.584 
L 414.72 231.552 
L 57.6 231.552 
z
" style="fill: #ffffff"/>
   </g>
   <g id="PathCollection_1">
    <defs>
     <path id="md14acf3c41" d="M 0 1.322876 
C 0.350831 1.322876 0.68734 1.183489 0.935414 0.935414 
C 1.183489 0.68734 1.322876 0.350831 1.322876 0 
C 1.322876 -0.350831 1.183489 -0.68734 0.935414 -0.935414 
C 0.68734 -1.183489 0.350831 -1.322876 0 -1.322876 
C -0.350831 -1.322876 -0.68734 -1.183489 -0.935414 -0.935414 
C -1.183489 -0.68734 -1.322876 -0.350831 -1.322876 0 
C -1.322876 0.350831 -1.183489 0.68734 -0.935414 0.935414 
C -0.68734 1.183489 -0.350831 1.322876 0 1.322876 
z
" style="stroke: #008000"/>
    </defs>
    <g clip-path="url(#p79c02813e1)">
     <use xlink:href="#md14acf3c41" x="77.079273" y="241.92" style="fill: #008000; stroke: #008000"/>
     <use xlink:href="#md14acf3c41" x="83.572364" y="265.248" style="fill: #008000; stroke: #008000"/>
     <use xlink:href="#md14acf3c41" x="90.065455" y="281.910857" style="fill: #008000; stroke: #008000"/>
     <use xlink:href="#md14acf3c41" x="96.558545" y="292.164923" style="fill: #008000; stroke: #008000"/>
     <use xlink:href="#md14acf3c41" x="103.051636" y="297.9072" style="fill: #008000; stroke: #008000"/>
     <use xlink:href="#md14acf3c41" x="109.544727" y="300.954122" style="fill: #008000; stroke: #008000"/>
     <use xlink:href="#md14acf3c41" x="116.037818" y="302.524701" style="fill: #008000; stroke: #008000"/>
     <use xlink:href="#md14acf3c41" x="122.530909" y="303.322197" style="fill: #008000; stroke: #008000"/>
     <use xlink:href="#md14acf3c41" x="129.024" y="303.724052" style="fill: #008000; stroke: #008000"/>
     <use xlink:href="#md14acf3c41" x="135.517091" y="303.925763" style="fill: #008000; stroke: #008000"/>
     <use xlink:href="#md14acf3c41" x="142.010182" y="304.026816" style="fill: #008000; stroke: #008000"/>
     <use xlink:href="#md14acf3c41" x="148.503273" y="304.077391" style="fill: #008000; stroke: #008000"/>
     <use xlink:href="#md14acf3c41" x="154.996364" y="304.102692" style="fill: #008000; stroke: #008000"/>
     <use xlink:href="#md14acf3c41" x="161.489455" y="304.115345" style="fill: #008000; stroke: #008000"/>
     <use xlink:href="#md14acf3c41" x="167.982545" y="304.121672" style="fill: #008000; stroke: #008000"/>
     <use xlink:href="#md14acf3c41" x="174.475636" y="304.124836" style="fill: #008000; stroke: #008000"/>
     <use xlink:href="#md14acf3c41" x="180.968727" y="304.126418" style="fill: #008000; stroke: #008000"/>
     <use xlink:href="#md14acf3c41" x="187.461818" y="304.127209" style="fill: #008000; stroke: #008000"/>
     <use xlink:href="#md14acf3c41" x="193.954909" y="304.127604" style="fill: #008000; stroke: #008000"/>
     <use xlink:href="#md14acf3c41" x="200.448" y="304.127802" style="fill: #008000; stroke: #008000"/>
     <use xlink:href="#md14acf3c41" x="206.941091" y="304.127901" style="fill: #008000; stroke: #008000"/>
     <use xlink:href="#md14acf3c41" x="213.434182" y="304.127951" style="fill: #008000; stroke: #008000"/>
     <use xlink:href="#md14acf3c41" x="219.927273" y="304.127975" style="fill: #008000; stroke: #008000"/>
     <use xlink:href="#md14acf3c41" x="226.420364" y="304.127988" style="fill: #008000; stroke: #008000"/>
     <use xlink:href="#md14acf3c41" x="232.913455" y="304.127994" style="fill: #008000; stroke: #008000"/>
     <use xlink:href="#md14acf3c41" x="239.406545" y="304.127997" style="fill: #008000; stroke: #008000"/>
     <use xlink:href="#md14acf3c41" x="245.899636" y="304.127998" style="fill: #008000; stroke: #008000"/>
     <use xlink:href="#md14acf3c41" x="252.392727" y="304.127999" style="fill: #008000; stroke: #008000"/>
     <use xlink:href="#md14acf3c41" x="258.885818" y="304.128" style="fill: #008000; stroke: #008000"/>
     <use xlink:href="#md14acf3c41" x="265.378909" y="304.128" style="fill: #008000; stroke: #008000"/>
     <use xlink:href="#md14acf3c41" x="271.872" y="304.128" style="fill: #008000; stroke: #008000"/>
     <use xlink:href="#md14acf3c41" x="278.365091" y="304.128" style="fill: #008000; stroke: #008000"/>
     <use xlink:href="#md14acf3c41" x="284.858182" y="304.128" style="fill: #008000; stroke: #008000"/>
     <use xlink:href="#md14acf3c41" x="291.351273" y="304.128" style="fill: #008000; stroke: #008000"/>
     <use xlink:href="#md14acf3c41" x="297.844364" y="304.128" style="fill: #008000; stroke: #008000"/>
     <use xlink:href="#md14acf3c41" x="304.337455" y="304.128" style="fill: #008000; stroke: #008000"/>
     <use xlink:href="#md14acf3c41" x="310.830545" y="304.128" style="fill: #008000; stroke: #008000"/>
     <use xlink:href="#md14acf3c41" x="317.323636" y="304.128" style="fill: #008000; stroke: #008000"/>
     <use xlink:href="#md14acf3c41" x="323.816727" y="304.128" style="fill: #008000; stroke: #008000"/>
     <use xlink:href="#md14acf3c41" x="330.309818" y="304.128" style="fill: #008000; stroke: #008000"/>
     <use xlink:href="#md14acf3c41" x="336.802909" y="304.128" style="fill: #008000; stroke: #008000"/>
     <use xlink:href="#md14acf3c41" x="343.296" y="304.128" style="fill: #008000; stroke: #008000"/>
     <use xlink:href="#md14acf3c41" x="349.789091" y="304.128" style="fill: #008000; stroke: #008000"/>
     <use xlink:href="#md14acf3c41" x="356.282182" y="304.128" style="fill: #008000; stroke: #008000"/>
     <use xlink:href="#md14acf3c41" x="362.775273" y="304.128" style="fill: #008000; stroke: #008000"/>
     <use xlink:href="#md14acf3c41" x="369.268364" y="304.128" style="fill: #008000; stroke: #008000"/>
     <use xlink:href="#md14acf3c41" x="375.761455" y="304.128" style="fill: #008000; stroke: #008000"/>
     <use xlink:href="#md14acf3c41" x="382.254545" y="304.128" style="fill: #008000; stroke: #008000"/>
     <use xlink:href="#md14acf3c41" x="388.747636" y="304.128" style="fill: #008000; stroke: #008000"/>
     <use xlink:href="#md14acf3c41" x="395.240727" y="304.128" style="fill: #008000; stroke: #008000"/>
    </g>
   </g>
   <g id="PathCollection_2">
    <defs>
     <path id="m20744ee69a" d="M 0 1.322876 
C 0.350831 1.322876 0.68734 1.183489 0.935414 0.935414 
C 1.183489 0.68734 1.322876 0.350831 1.322876 0 
C 1.322876 -0.350831 1.183489 -0.68734 0.935414 -0.935414 
C 0.68734 -1.183489 0.350831 -1.322876 0 -1.322876 
C -0.350831 -1.322876 -0.68734 -1.183489 -0.935414 -0.935414 
C -1.183489 -0.68734 -1.322876 -0.350831 -1.322876 0 
C -1.322876 0.350831 -1.183489 0.68734 -0.935414 0.935414 
C -0.68734 1.183489 -0.350831 1.322876 0 1.322876 
z
" style="stroke: #800080"/>
    </defs>
    <g clip-path="url(#p79c02813e1)">
     <use xlink:href="#m20744ee69a" x="80.325818" y="235.008" style="fill: #800080; stroke: #800080"/>
     <use xlink:href="#m20744ee69a" x="86.818909" y="262.656" style="fill: #800080; stroke: #800080"/>
     <use xlink:href="#m20744ee69a" x="93.312" y="281.088" style="fill: #800080; stroke: #800080"/>
     <use xlink:href="#m20744ee69a" x="99.805091" y="291.930353" style="fill: #800080; stroke: #800080"/>
     <use xlink:href="#m20744ee69a" x="106.298182" y="297.844364" style="fill: #800080; stroke: #800080"/>
     <use xlink:href="#m20744ee69a" x="112.791273" y="300.937846" style="fill: #800080; stroke: #800080"/>
     <use xlink:href="#m20744ee69a" x="119.284364" y="302.520558" style="fill: #800080; stroke: #800080"/>
     <use xlink:href="#m20744ee69a" x="125.777455" y="303.321152" style="fill: #800080; stroke: #800080"/>
     <use xlink:href="#m20744ee69a" x="132.270545" y="303.723789" style="fill: #800080; stroke: #800080"/>
     <use xlink:href="#m20744ee69a" x="138.763636" y="303.925698" style="fill: #800080; stroke: #800080"/>
     <use xlink:href="#m20744ee69a" x="145.256727" y="304.026799" style="fill: #800080; stroke: #800080"/>
     <use xlink:href="#m20744ee69a" x="151.749818" y="304.077387" style="fill: #800080; stroke: #800080"/>
     <use xlink:href="#m20744ee69a" x="158.242909" y="304.102691" style="fill: #800080; stroke: #800080"/>
     <use xlink:href="#m20744ee69a" x="164.736" y="304.115345" style="fill: #800080; stroke: #800080"/>
     <use xlink:href="#m20744ee69a" x="171.229091" y="304.121672" style="fill: #800080; stroke: #800080"/>
     <use xlink:href="#m20744ee69a" x="177.722182" y="304.124836" style="fill: #800080; stroke: #800080"/>
     <use xlink:href="#m20744ee69a" x="184.215273" y="304.126418" style="fill: #800080; stroke: #800080"/>
     <use xlink:href="#m20744ee69a" x="190.708364" y="304.127209" style="fill: #800080; stroke: #800080"/>
     <use xlink:href="#m20744ee69a" x="197.201455" y="304.127604" style="fill: #800080; stroke: #800080"/>
     <use xlink:href="#m20744ee69a" x="203.694545" y="304.127802" style="fill: #800080; stroke: #800080"/>
     <use xlink:href="#m20744ee69a" x="210.187636" y="304.127901" style="fill: #800080; stroke: #800080"/>
     <use xlink:href="#m20744ee69a" x="216.680727" y="304.127951" style="fill: #800080; stroke: #800080"/>
     <use xlink:href="#m20744ee69a" x="223.173818" y="304.127975" style="fill: #800080; stroke: #800080"/>
     <use xlink:href="#m20744ee69a" x="229.666909" y="304.127988" style="fill: #800080; stroke: #800080"/>
     <use xlink:href="#m20744ee69a" x="236.16" y="304.127994" style="fill: #800080; stroke: #800080"/>
     <use xlink:href="#m20744ee69a" x="242.653091" y="304.127997" style="fill: #800080; stroke: #800080"/>
     <use xlink:href="#m20744ee69a" x="249.146182" y="304.127998" style="fill: #800080; stroke: #800080"/>
     <use xlink:href="#m20744ee69a" x="255.639273" y="304.127999" style="fill: #800080; stroke: #800080"/>
     <use xlink:href="#m20744ee69a" x="262.132364" y="304.128" style="fill: #800080; stroke: #800080"/>
     <use xlink:href="#m20744ee69a" x="268.625455" y="304.128" style="fill: #800080; stroke: #800080"/>
     <use xlink:href="#m20744ee69a" x="275.118545" y="304.128" style="fill: #800080; stroke: #800080"/>
     <use xlink:href="#m20744ee69a" x="281.611636" y="304.128" style="fill: #800080; stroke: #800080"/>
     <use xlink:href="#m20744ee69a" x="288.104727" y="304.128" style="fill: #800080; stroke: #800080"/>
     <use xlink:href="#m20744ee69a" x="294.597818" y="304.128" style="fill: #800080; stroke: #800080"/>
     <use xlink:href="#m20744ee69a" x="301.090909" y="304.128" style="fill: #800080; stroke: #800080"/>
     <use xlink:href="#m20744ee69a" x="307.584" y="304.128" style="fill: #800080; stroke: #800080"/>
     <use xlink:href="#m20744ee69a" x="314.077091" y="304.128" style="fill: #800080; stroke: #800080"/>
     <use xlink:href="#m20744ee69a" x="320.570182" y="304.128" style="fill: #800080; stroke: #800080"/>
     <use xlink:href="#m20744ee69a" x="327.063273" y="304.128" style="fill: #800080; stroke: #800080"/>
     <use xlink:href="#m20744ee69a" x="333.556364" y="304.128" style="fill: #800080; stroke: #800080"/>
     <use xlink:href="#m20744ee69a" x="340.049455" y="304.128" style="fill: #800080; stroke: #800080"/>
     <use xlink:href="#m20744ee69a" x="346.542545" y="304.128" style="fill: #800080; stroke: #800080"/>
     <use xlink:href="#m20744ee69a" x="353.035636" y="304.128" style="fill: #800080; stroke: #800080"/>
     <use xlink:href="#m20744ee69a" x="359.528727" y="304.128" style="fill: #800080; stroke: #800080"/>
     <use xlink:href="#m20744ee69a" x="366.021818" y="304.128" style="fill: #800080; stroke: #800080"/>
     <use xlink:href="#m20744ee69a" x="372.514909" y="304.128" style="fill: #800080; stroke: #800080"/>
     <use xlink:href="#m20744ee69a" x="379.008" y="304.128" style="fill: #800080; stroke: #800080"/>
     <use xlink:href="#m20744ee69a" x="385.501091" y="304.128" style="fill: #800080; stroke: #800080"/>
     <use xlink:href="#m20744ee69a" x="391.994182" y="304.128" style="fill: #800080; stroke: #800080"/>
     <use xlink:href="#m20744ee69a" x="398.487273" y="304.128" style="fill: #800080; stroke: #800080"/>
    </g>
   </g>
   <g id="matplotlib.axis_3">
    <g id="xtick_7">
     <g id="line2d_17">
      <g>
       <use xlink:href="#m6d01a807ef" x="73.832727" y="307.584" style="stroke: #000000; stroke-width: 0.8"/>
      </g>
     </g>
     <g id="text_8">
      <!-- 0 -->
      <g transform="translate(70.651477 322.182437) scale(0.1 -0.1)">
       <use xlink:href="#DejaVuSans-30"/>
      </g>
     </g>
    </g>
    <g id="xtick_8">
     <g id="line2d_18">
      <g>
       <use xlink:href="#m6d01a807ef" x="138.763636" y="307.584" style="stroke: #000000; stroke-width: 0.8"/>
      </g>
     </g>
     <g id="text_9">
      <!-- 20 -->
      <g transform="translate(132.401136 322.182437) scale(0.1 -0.1)">
       <defs>
        <path id="DejaVuSans-32" d="M 1228 531 
L 3431 531 
L 3431 0 
L 469 0 
L 469 531 
Q 828 903 1448 1529 
Q 2069 2156 2228 2338 
Q 2531 2678 2651 2914 
Q 2772 3150 2772 3378 
Q 2772 3750 2511 3984 
Q 2250 4219 1831 4219 
Q 1534 4219 1204 4116 
Q 875 4013 500 3803 
L 500 4441 
Q 881 4594 1212 4672 
Q 1544 4750 1819 4750 
Q 2544 4750 2975 4387 
Q 3406 4025 3406 3419 
Q 3406 3131 3298 2873 
Q 3191 2616 2906 2266 
Q 2828 2175 2409 1742 
Q 1991 1309 1228 531 
z
" transform="scale(0.015625)"/>
       </defs>
       <use xlink:href="#DejaVuSans-32"/>
       <use xlink:href="#DejaVuSans-30" x="63.623047"/>
      </g>
     </g>
    </g>
    <g id="xtick_9">
     <g id="line2d_19">
      <g>
       <use xlink:href="#m6d01a807ef" x="203.694545" y="307.584" style="stroke: #000000; stroke-width: 0.8"/>
      </g>
     </g>
     <g id="text_10">
      <!-- 40 -->
      <g transform="translate(197.332045 322.182437) scale(0.1 -0.1)">
       <use xlink:href="#DejaVuSans-34"/>
       <use xlink:href="#DejaVuSans-30" x="63.623047"/>
      </g>
     </g>
    </g>
    <g id="xtick_10">
     <g id="line2d_20">
      <g>
       <use xlink:href="#m6d01a807ef" x="268.625455" y="307.584" style="stroke: #000000; stroke-width: 0.8"/>
      </g>
     </g>
     <g id="text_11">
      <!-- 60 -->
      <g transform="translate(262.262955 322.182437) scale(0.1 -0.1)">
       <use xlink:href="#DejaVuSans-36"/>
       <use xlink:href="#DejaVuSans-30" x="63.623047"/>
      </g>
     </g>
    </g>
    <g id="xtick_11">
     <g id="line2d_21">
      <g>
       <use xlink:href="#m6d01a807ef" x="333.556364" y="307.584" style="stroke: #000000; stroke-width: 0.8"/>
      </g>
     </g>
     <g id="text_12">
      <!-- 80 -->
      <g transform="translate(327.193864 322.182437) scale(0.1 -0.1)">
       <defs>
        <path id="DejaVuSans-38" d="M 2034 2216 
Q 1584 2216 1326 1975 
Q 1069 1734 1069 1313 
Q 1069 891 1326 650 
Q 1584 409 2034 409 
Q 2484 409 2743 651 
Q 3003 894 3003 1313 
Q 3003 1734 2745 1975 
Q 2488 2216 2034 2216 
z
M 1403 2484 
Q 997 2584 770 2862 
Q 544 3141 544 3541 
Q 544 4100 942 4425 
Q 1341 4750 2034 4750 
Q 2731 4750 3128 4425 
Q 3525 4100 3525 3541 
Q 3525 3141 3298 2862 
Q 3072 2584 2669 2484 
Q 3125 2378 3379 2068 
Q 3634 1759 3634 1313 
Q 3634 634 3220 271 
Q 2806 -91 2034 -91 
Q 1263 -91 848 271 
Q 434 634 434 1313 
Q 434 1759 690 2068 
Q 947 2378 1403 2484 
z
M 1172 3481 
Q 1172 3119 1398 2916 
Q 1625 2713 2034 2713 
Q 2441 2713 2670 2916 
Q 2900 3119 2900 3481 
Q 2900 3844 2670 4047 
Q 2441 4250 2034 4250 
Q 1625 4250 1398 4047 
Q 1172 3844 1172 3481 
z
" transform="scale(0.015625)"/>
       </defs>
       <use xlink:href="#DejaVuSans-38"/>
       <use xlink:href="#DejaVuSans-30" x="63.623047"/>
      </g>
     </g>
    </g>
    <g id="xtick_12">
     <g id="line2d_22">
      <g>
       <use xlink:href="#m6d01a807ef" x="398.487273" y="307.584" style="stroke: #000000; stroke-width: 0.8"/>
      </g>
     </g>
     <g id="text_13">
      <!-- 100 -->
      <g transform="translate(388.943523 322.182437) scale(0.1 -0.1)">
       <use xlink:href="#DejaVuSans-31"/>
       <use xlink:href="#DejaVuSans-30" x="63.623047"/>
       <use xlink:href="#DejaVuSans-30" x="127.246094"/>
      </g>
     </g>
    </g>
    <g id="text_14">
     <!-- Time -->
     <g transform="translate(223.926406 335.860562) scale(0.1 -0.1)">
      <defs>
       <path id="DejaVuSans-54" d="M -19 4666 
L 3928 4666 
L 3928 4134 
L 2272 4134 
L 2272 0 
L 1638 0 
L 1638 4134 
L -19 4134 
L -19 4666 
z
" transform="scale(0.015625)"/>
       <path id="DejaVuSans-6d" d="M 3328 2828 
Q 3544 3216 3844 3400 
Q 4144 3584 4550 3584 
Q 5097 3584 5394 3201 
Q 5691 2819 5691 2113 
L 5691 0 
L 5113 0 
L 5113 2094 
Q 5113 2597 4934 2840 
Q 4756 3084 4391 3084 
Q 3944 3084 3684 2787 
Q 3425 2491 3425 1978 
L 3425 0 
L 2847 0 
L 2847 2094 
Q 2847 2600 2669 2842 
Q 2491 3084 2119 3084 
Q 1678 3084 1418 2786 
Q 1159 2488 1159 1978 
L 1159 0 
L 581 0 
L 581 3500 
L 1159 3500 
L 1159 2956 
Q 1356 3278 1631 3431 
Q 1906 3584 2284 3584 
Q 2666 3584 2933 3390 
Q 3200 3197 3328 2828 
z
" transform="scale(0.015625)"/>
      </defs>
      <use xlink:href="#DejaVuSans-54"/>
      <use xlink:href="#DejaVuSans-69" x="57.958984"/>
      <use xlink:href="#DejaVuSans-6d" x="85.742188"/>
      <use xlink:href="#DejaVuSans-65" x="183.154297"/>
     </g>
    </g>
   </g>
   <g id="matplotlib.axis_4">
    <g id="ytick_7">
     <g id="line2d_23">
      <g>
       <use xlink:href="#m1611c00384" x="57.6" y="304.128" style="stroke: #000000; stroke-width: 0.8"/>
      </g>
     </g>
     <g id="text_15">
      <!-- 0.00 -->
      <g transform="translate(28.334375 307.927219) scale(0.1 -0.1)">
       <use xlink:href="#DejaVuSans-30"/>
       <use xlink:href="#DejaVuSans-2e" x="63.623047"/>
       <use xlink:href="#DejaVuSans-30" x="95.410156"/>
       <use xlink:href="#DejaVuSans-30" x="159.033203"/>
      </g>
     </g>
    </g>
    <g id="ytick_8">
     <g id="line2d_24">
      <g>
       <use xlink:href="#m1611c00384" x="57.6" y="273.024" style="stroke: #000000; stroke-width: 0.8"/>
      </g>
     </g>
     <g id="text_16">
      <!-- 0.05 -->
      <g transform="translate(28.334375 276.823219) scale(0.1 -0.1)">
       <defs>
        <path id="DejaVuSans-35" d="M 691 4666 
L 3169 4666 
L 3169 4134 
L 1269 4134 
L 1269 2991 
Q 1406 3038 1543 3061 
Q 1681 3084 1819 3084 
Q 2600 3084 3056 2656 
Q 3513 2228 3513 1497 
Q 3513 744 3044 326 
Q 2575 -91 1722 -91 
Q 1428 -91 1123 -41 
Q 819 9 494 109 
L 494 744 
Q 775 591 1075 516 
Q 1375 441 1709 441 
Q 2250 441 2565 725 
Q 2881 1009 2881 1497 
Q 2881 1984 2565 2268 
Q 2250 2553 1709 2553 
Q 1456 2553 1204 2497 
Q 953 2441 691 2322 
L 691 4666 
z
" transform="scale(0.015625)"/>
       </defs>
       <use xlink:href="#DejaVuSans-30"/>
       <use xlink:href="#DejaVuSans-2e" x="63.623047"/>
       <use xlink:href="#DejaVuSans-30" x="95.410156"/>
       <use xlink:href="#DejaVuSans-35" x="159.033203"/>
      </g>
     </g>
    </g>
    <g id="ytick_9">
     <g id="line2d_25">
      <g>
       <use xlink:href="#m1611c00384" x="57.6" y="241.92" style="stroke: #000000; stroke-width: 0.8"/>
      </g>
     </g>
     <g id="text_17">
      <!-- 0.10 -->
      <g transform="translate(28.334375 245.719219) scale(0.1 -0.1)">
       <use xlink:href="#DejaVuSans-30"/>
       <use xlink:href="#DejaVuSans-2e" x="63.623047"/>
       <use xlink:href="#DejaVuSans-31" x="95.410156"/>
       <use xlink:href="#DejaVuSans-30" x="159.033203"/>
      </g>
     </g>
    </g>
    <g id="text_18">
     <!-- Influence -->
     <g transform="translate(22.254687 292.600812) rotate(-90) scale(0.1 -0.1)">
      <defs>
       <path id="DejaVuSans-49" d="M 628 4666 
L 1259 4666 
L 1259 0 
L 628 0 
L 628 4666 
z
" transform="scale(0.015625)"/>
       <path id="DejaVuSans-66" d="M 2375 4863 
L 2375 4384 
L 1825 4384 
Q 1516 4384 1395 4259 
Q 1275 4134 1275 3809 
L 1275 3500 
L 2222 3500 
L 2222 3053 
L 1275 3053 
L 1275 0 
L 697 0 
L 697 3053 
L 147 3053 
L 147 3500 
L 697 3500 
L 697 3744 
Q 697 4328 969 4595 
Q 1241 4863 1831 4863 
L 2375 4863 
z
" transform="scale(0.015625)"/>
       <path id="DejaVuSans-63" d="M 3122 3366 
L 3122 2828 
Q 2878 2963 2633 3030 
Q 2388 3097 2138 3097 
Q 1578 3097 1268 2742 
Q 959 2388 959 1747 
Q 959 1106 1268 751 
Q 1578 397 2138 397 
Q 2388 397 2633 464 
Q 2878 531 3122 666 
L 3122 134 
Q 2881 22 2623 -34 
Q 2366 -91 2075 -91 
Q 1284 -91 818 406 
Q 353 903 353 1747 
Q 353 2603 823 3093 
Q 1294 3584 2113 3584 
Q 2378 3584 2631 3529 
Q 2884 3475 3122 3366 
z
" transform="scale(0.015625)"/>
      </defs>
      <use xlink:href="#DejaVuSans-49"/>
      <use xlink:href="#DejaVuSans-6e" x="29.492188"/>
      <use xlink:href="#DejaVuSans-66" x="92.871094"/>
      <use xlink:href="#DejaVuSans-6c" x="128.076172"/>
      <use xlink:href="#DejaVuSans-75" x="155.859375"/>
      <use xlink:href="#DejaVuSans-65" x="219.238281"/>
      <use xlink:href="#DejaVuSans-6e" x="280.761719"/>
      <use xlink:href="#DejaVuSans-63" x="344.140625"/>
      <use xlink:href="#DejaVuSans-65" x="399.121094"/>
     </g>
    </g>
   </g>
   <g id="patch_8">
    <path d="M 57.6 307.584 
L 57.6 231.552 
" style="fill: none; stroke: #000000; stroke-width: 0.8; stroke-linejoin: miter; stroke-linecap: square"/>
   </g>
   <g id="patch_9">
    <path d="M 414.72 307.584 
L 414.72 231.552 
" style="fill: none; stroke: #000000; stroke-width: 0.8; stroke-linejoin: miter; stroke-linecap: square"/>
   </g>
   <g id="patch_10">
    <path d="M 57.6 307.584 
L 414.72 307.584 
" style="fill: none; stroke: #000000; stroke-width: 0.8; stroke-linejoin: miter; stroke-linecap: square"/>
   </g>
   <g id="patch_11">
    <path d="M 57.6 231.552 
L 414.72 231.552 
" style="fill: none; stroke: #000000; stroke-width: 0.8; stroke-linejoin: miter; stroke-linecap: square"/>
   </g>
  </g>
 </g>
 <defs>
  <clipPath id="p8be3b26d75">
   <rect x="57.6" y="41.472" width="357.12" height="190.08"/>
  </clipPath>
  <clipPath id="p79c02813e1">
   <rect x="57.6" y="231.552" width="357.12" height="76.032"/>
  </clipPath>
 </defs>
</svg>
