<?xml version="1.0" encoding="utf-8" standalone="no"?>
<!DOCTYPE svg PUBLIC "-//W3C//DTD SVG 1.1//EN"
  "http://www.w3.org/Graphics/SVG/1.1/DTD/svg11.dtd">
<svg xmlns:xlink="http://www.w3.org/1999/xlink" width="460.8pt" height="345.6pt" viewBox="0 0 460.8 345.6" xmlns="http://www.w3.org/2000/svg" version="1.1">
 <metadata>
  <rdf:RDF xmlns:dc="http://purl.org/dc/elements/1.1/" xmlns:cc="http://creativecommons.org/ns#" xmlns:rdf="http://www.w3.org/1999/02/22-rdf-syntax-ns#">
   <cc:Work>
    <dc:type rdf:resource="http://purl.org/dc/dcmitype/StillImage"/>
    <dc:date>2024-04-19T00:01:40.782242</dc:date>
    <dc:format>image/svg+xml</dc:format>
    <dc:creator>
     <cc:Agent>
      <dc:title>Matplotlib v3.8.4, https://matplotlib.org/</dc:title>
     </cc:Agent>
    </dc:creator>
   </cc:Work>
  </rdf:RDF>
 </metadata>
 <defs>
  <style type="text/css">*{stroke-linejoin: round; stroke-linecap: butt}</style>
 </defs>
 <g id="figure_1">
  <g id="patch_1">
   <path d="M 0 345.6 
L 460.8 345.6 
L 460.8 0 
L 0 0 
z
" style="fill: #ffffff"/>
  </g>
  <g id="axes_1">
   <g id="patch_2">
    <path d="M 57.6 307.584 
L 414.72 307.584 
L 414.72 41.472 
L 57.6 41.472 
z
" style="fill: #ffffff"/>
   </g>
   <g id="matplotlib.axis_1">
    <g id="xtick_1">
     <g id="line2d_1">
      <defs>
       <path id="m035f1c9ae3" d="M 0 0 
L 0 3.5 
" style="stroke: #000000; stroke-width: 0.8"/>
      </defs>
      <g>
       <use xlink:href="#m035f1c9ae3" x="73.832727" y="307.584" style="stroke: #000000; stroke-width: 0.8"/>
      </g>
     </g>
     <g id="text_1">
      <!-- 0 -->
      <g transform="translate(70.651477 322.182437) scale(0.1 -0.1)">
       <defs>
        <path id="DejaVuSans-30" d="M 2034 4250 
Q 1547 4250 1301 3770 
Q 1056 3291 1056 2328 
Q 1056 1369 1301 889 
Q 1547 409 2034 409 
Q 2525 409 2770 889 
Q 3016 1369 3016 2328 
Q 3016 3291 2770 3770 
Q 2525 4250 2034 4250 
z
M 2034 4750 
Q 2819 4750 3233 4129 
Q 3647 3509 3647 2328 
Q 3647 1150 3233 529 
Q 2819 -91 2034 -91 
Q 1250 -91 836 529 
Q 422 1150 422 2328 
Q 422 3509 836 4129 
Q 1250 4750 2034 4750 
z
" transform="scale(0.015625)"/>
       </defs>
       <use xlink:href="#DejaVuSans-30"/>
      </g>
     </g>
    </g>
    <g id="xtick_2">
     <g id="line2d_2">
      <g>
       <use xlink:href="#m035f1c9ae3" x="130.789665" y="307.584" style="stroke: #000000; stroke-width: 0.8"/>
      </g>
     </g>
     <g id="text_2">
      <!-- 20 -->
      <g transform="translate(124.427165 322.182437) scale(0.1 -0.1)">
       <defs>
        <path id="DejaVuSans-32" d="M 1228 531 
L 3431 531 
L 3431 0 
L 469 0 
L 469 531 
Q 828 903 1448 1529 
Q 2069 2156 2228 2338 
Q 2531 2678 2651 2914 
Q 2772 3150 2772 3378 
Q 2772 3750 2511 3984 
Q 2250 4219 1831 4219 
Q 1534 4219 1204 4116 
Q 875 4013 500 3803 
L 500 4441 
Q 881 4594 1212 4672 
Q 1544 4750 1819 4750 
Q 2544 4750 2975 4387 
Q 3406 4025 3406 3419 
Q 3406 3131 3298 2873 
Q 3191 2616 2906 2266 
Q 2828 2175 2409 1742 
Q 1991 1309 1228 531 
z
" transform="scale(0.015625)"/>
       </defs>
       <use xlink:href="#DejaVuSans-32"/>
       <use xlink:href="#DejaVuSans-30" x="63.623047"/>
      </g>
     </g>
    </g>
    <g id="xtick_3">
     <g id="line2d_3">
      <g>
       <use xlink:href="#m035f1c9ae3" x="187.746603" y="307.584" style="stroke: #000000; stroke-width: 0.8"/>
      </g>
     </g>
     <g id="text_3">
      <!-- 40 -->
      <g transform="translate(181.384103 322.182437) scale(0.1 -0.1)">
       <defs>
        <path id="DejaVuSans-34" d="M 2419 4116 
L 825 1625 
L 2419 1625 
L 2419 4116 
z
M 2253 4666 
L 3047 4666 
L 3047 1625 
L 3713 1625 
L 3713 1100 
L 3047 1100 
L 3047 0 
L 2419 0 
L 2419 1100 
L 313 1100 
L 313 1709 
L 2253 4666 
z
" transform="scale(0.015625)"/>
       </defs>
       <use xlink:href="#DejaVuSans-34"/>
       <use xlink:href="#DejaVuSans-30" x="63.623047"/>
      </g>
     </g>
    </g>
    <g id="xtick_4">
     <g id="line2d_4">
      <g>
       <use xlink:href="#m035f1c9ae3" x="244.703541" y="307.584" style="stroke: #000000; stroke-width: 0.8"/>
      </g>
     </g>
     <g id="text_4">
      <!-- 60 -->
      <g transform="translate(238.341041 322.182437) scale(0.1 -0.1)">
       <defs>
        <path id="DejaVuSans-36" d="M 2113 2584 
Q 1688 2584 1439 2293 
Q 1191 2003 1191 1497 
Q 1191 994 1439 701 
Q 1688 409 2113 409 
Q 2538 409 2786 701 
Q 3034 994 3034 1497 
Q 3034 2003 2786 2293 
Q 2538 2584 2113 2584 
z
M 3366 4563 
L 3366 3988 
Q 3128 4100 2886 4159 
Q 2644 4219 2406 4219 
Q 1781 4219 1451 3797 
Q 1122 3375 1075 2522 
Q 1259 2794 1537 2939 
Q 1816 3084 2150 3084 
Q 2853 3084 3261 2657 
Q 3669 2231 3669 1497 
Q 3669 778 3244 343 
Q 2819 -91 2113 -91 
Q 1303 -91 875 529 
Q 447 1150 447 2328 
Q 447 3434 972 4092 
Q 1497 4750 2381 4750 
Q 2619 4750 2861 4703 
Q 3103 4656 3366 4563 
z
" transform="scale(0.015625)"/>
       </defs>
       <use xlink:href="#DejaVuSans-36"/>
       <use xlink:href="#DejaVuSans-30" x="63.623047"/>
      </g>
     </g>
    </g>
    <g id="xtick_5">
     <g id="line2d_5">
      <g>
       <use xlink:href="#m035f1c9ae3" x="301.660478" y="307.584" style="stroke: #000000; stroke-width: 0.8"/>
      </g>
     </g>
     <g id="text_5">
      <!-- 80 -->
      <g transform="translate(295.297978 322.182437) scale(0.1 -0.1)">
       <defs>
        <path id="DejaVuSans-38" d="M 2034 2216 
Q 1584 2216 1326 1975 
Q 1069 1734 1069 1313 
Q 1069 891 1326 650 
Q 1584 409 2034 409 
Q 2484 409 2743 651 
Q 3003 894 3003 1313 
Q 3003 1734 2745 1975 
Q 2488 2216 2034 2216 
z
M 1403 2484 
Q 997 2584 770 2862 
Q 544 3141 544 3541 
Q 544 4100 942 4425 
Q 1341 4750 2034 4750 
Q 2731 4750 3128 4425 
Q 3525 4100 3525 3541 
Q 3525 3141 3298 2862 
Q 3072 2584 2669 2484 
Q 3125 2378 3379 2068 
Q 3634 1759 3634 1313 
Q 3634 634 3220 271 
Q 2806 -91 2034 -91 
Q 1263 -91 848 271 
Q 434 634 434 1313 
Q 434 1759 690 2068 
Q 947 2378 1403 2484 
z
M 1172 3481 
Q 1172 3119 1398 2916 
Q 1625 2713 2034 2713 
Q 2441 2713 2670 2916 
Q 2900 3119 2900 3481 
Q 2900 3844 2670 4047 
Q 2441 4250 2034 4250 
Q 1625 4250 1398 4047 
Q 1172 3844 1172 3481 
z
" transform="scale(0.015625)"/>
       </defs>
       <use xlink:href="#DejaVuSans-38"/>
       <use xlink:href="#DejaVuSans-30" x="63.623047"/>
      </g>
     </g>
    </g>
    <g id="xtick_6">
     <g id="line2d_6">
      <g>
       <use xlink:href="#m035f1c9ae3" x="358.617416" y="307.584" style="stroke: #000000; stroke-width: 0.8"/>
      </g>
     </g>
     <g id="text_6">
      <!-- 100 -->
      <g transform="translate(349.073666 322.182437) scale(0.1 -0.1)">
       <defs>
        <path id="DejaVuSans-31" d="M 794 531 
L 1825 531 
L 1825 4091 
L 703 3866 
L 703 4441 
L 1819 4666 
L 2450 4666 
L 2450 531 
L 3481 531 
L 3481 0 
L 794 0 
L 794 531 
z
" transform="scale(0.015625)"/>
       </defs>
       <use xlink:href="#DejaVuSans-31"/>
       <use xlink:href="#DejaVuSans-30" x="63.623047"/>
       <use xlink:href="#DejaVuSans-30" x="127.246094"/>
      </g>
     </g>
    </g>
    <g id="text_7">
     <!-- Time -->
     <g transform="translate(223.926406 335.860562) scale(0.1 -0.1)">
      <defs>
       <path id="DejaVuSans-54" d="M -19 4666 
L 3928 4666 
L 3928 4134 
L 2272 4134 
L 2272 0 
L 1638 0 
L 1638 4134 
L -19 4134 
L -19 4666 
z
" transform="scale(0.015625)"/>
       <path id="DejaVuSans-69" d="M 603 3500 
L 1178 3500 
L 1178 0 
L 603 0 
L 603 3500 
z
M 603 4863 
L 1178 4863 
L 1178 4134 
L 603 4134 
L 603 4863 
z
" transform="scale(0.015625)"/>
       <path id="DejaVuSans-6d" d="M 3328 2828 
Q 3544 3216 3844 3400 
Q 4144 3584 4550 3584 
Q 5097 3584 5394 3201 
Q 5691 2819 5691 2113 
L 5691 0 
L 5113 0 
L 5113 2094 
Q 5113 2597 4934 2840 
Q 4756 3084 4391 3084 
Q 3944 3084 3684 2787 
Q 3425 2491 3425 1978 
L 3425 0 
L 2847 0 
L 2847 2094 
Q 2847 2600 2669 2842 
Q 2491 3084 2119 3084 
Q 1678 3084 1418 2786 
Q 1159 2488 1159 1978 
L 1159 0 
L 581 0 
L 581 3500 
L 1159 3500 
L 1159 2956 
Q 1356 3278 1631 3431 
Q 1906 3584 2284 3584 
Q 2666 3584 2933 3390 
Q 3200 3197 3328 2828 
z
" transform="scale(0.015625)"/>
       <path id="DejaVuSans-65" d="M 3597 1894 
L 3597 1613 
L 953 1613 
Q 991 1019 1311 708 
Q 1631 397 2203 397 
Q 2534 397 2845 478 
Q 3156 559 3463 722 
L 3463 178 
Q 3153 47 2828 -22 
Q 2503 -91 2169 -91 
Q 1331 -91 842 396 
Q 353 884 353 1716 
Q 353 2575 817 3079 
Q 1281 3584 2069 3584 
Q 2775 3584 3186 3129 
Q 3597 2675 3597 1894 
z
M 3022 2063 
Q 3016 2534 2758 2815 
Q 2500 3097 2075 3097 
Q 1594 3097 1305 2825 
Q 1016 2553 972 2059 
L 3022 2063 
z
" transform="scale(0.015625)"/>
      </defs>
      <use xlink:href="#DejaVuSans-54"/>
      <use xlink:href="#DejaVuSans-69" x="57.958984"/>
      <use xlink:href="#DejaVuSans-6d" x="85.742188"/>
      <use xlink:href="#DejaVuSans-65" x="183.154297"/>
     </g>
    </g>
   </g>
   <g id="matplotlib.axis_2">
    <g id="ytick_1">
     <g id="line2d_7">
      <defs>
       <path id="m0df928c243" d="M 0 0 
L -3.5 0 
" style="stroke: #000000; stroke-width: 0.8"/>
      </defs>
      <g>
       <use xlink:href="#m0df928c243" x="57.6" y="295.488" style="stroke: #000000; stroke-width: 0.8"/>
      </g>
     </g>
     <g id="text_8">
      <!-- 0 -->
      <g transform="translate(44.2375 299.287219) scale(0.1 -0.1)">
       <use xlink:href="#DejaVuSans-30"/>
      </g>
     </g>
    </g>
    <g id="ytick_2">
     <g id="line2d_8">
      <g>
       <use xlink:href="#m0df928c243" x="57.6" y="235.008" style="stroke: #000000; stroke-width: 0.8"/>
      </g>
     </g>
     <g id="text_9">
      <!-- L -->
      <g transform="translate(45.028125 238.807219) scale(0.1 -0.1)">
       <defs>
        <path id="DejaVuSans-4c" d="M 628 4666 
L 1259 4666 
L 1259 531 
L 3531 531 
L 3531 0 
L 628 0 
L 628 4666 
z
" transform="scale(0.015625)"/>
       </defs>
       <use xlink:href="#DejaVuSans-4c"/>
      </g>
     </g>
    </g>
    <g id="ytick_3">
     <g id="line2d_9">
      <g>
       <use xlink:href="#m0df928c243" x="57.6" y="174.528" style="stroke: #000000; stroke-width: 0.8"/>
      </g>
     </g>
     <g id="text_10">
      <!-- 0.5 -->
      <g transform="translate(34.696875 178.327219) scale(0.1 -0.1)">
       <defs>
        <path id="DejaVuSans-2e" d="M 684 794 
L 1344 794 
L 1344 0 
L 684 0 
L 684 794 
z
" transform="scale(0.015625)"/>
        <path id="DejaVuSans-35" d="M 691 4666 
L 3169 4666 
L 3169 4134 
L 1269 4134 
L 1269 2991 
Q 1406 3038 1543 3061 
Q 1681 3084 1819 3084 
Q 2600 3084 3056 2656 
Q 3513 2228 3513 1497 
Q 3513 744 3044 326 
Q 2575 -91 1722 -91 
Q 1428 -91 1123 -41 
Q 819 9 494 109 
L 494 744 
Q 775 591 1075 516 
Q 1375 441 1709 441 
Q 2250 441 2565 725 
Q 2881 1009 2881 1497 
Q 2881 1984 2565 2268 
Q 2250 2553 1709 2553 
Q 1456 2553 1204 2497 
Q 953 2441 691 2322 
L 691 4666 
z
" transform="scale(0.015625)"/>
       </defs>
       <use xlink:href="#DejaVuSans-30"/>
       <use xlink:href="#DejaVuSans-2e" x="63.623047"/>
       <use xlink:href="#DejaVuSans-35" x="95.410156"/>
      </g>
     </g>
    </g>
    <g id="ytick_4">
     <g id="line2d_10">
      <g>
       <use xlink:href="#m0df928c243" x="57.6" y="114.048" style="stroke: #000000; stroke-width: 0.8"/>
      </g>
     </g>
     <g id="text_11">
      <!-- U -->
      <g transform="translate(43.28125 117.847219) scale(0.1 -0.1)">
       <defs>
        <path id="DejaVuSans-55" d="M 556 4666 
L 1191 4666 
L 1191 1831 
Q 1191 1081 1462 751 
Q 1734 422 2344 422 
Q 2950 422 3222 751 
Q 3494 1081 3494 1831 
L 3494 4666 
L 4128 4666 
L 4128 1753 
Q 4128 841 3676 375 
Q 3225 -91 2344 -91 
Q 1459 -91 1007 375 
Q 556 841 556 1753 
L 556 4666 
z
" transform="scale(0.015625)"/>
       </defs>
       <use xlink:href="#DejaVuSans-55"/>
      </g>
     </g>
    </g>
    <g id="ytick_5">
     <g id="line2d_11">
      <g>
       <use xlink:href="#m0df928c243" x="57.6" y="53.568" style="stroke: #000000; stroke-width: 0.8"/>
      </g>
     </g>
     <g id="text_12">
      <!-- 1 -->
      <g transform="translate(44.2375 57.367219) scale(0.1 -0.1)">
       <use xlink:href="#DejaVuSans-31"/>
      </g>
     </g>
    </g>
    <g id="text_13">
     <!-- Opinion value -->
     <g transform="translate(28.617187 209.060031) rotate(-90) scale(0.1 -0.1)">
      <defs>
       <path id="DejaVuSans-4f" d="M 2522 4238 
Q 1834 4238 1429 3725 
Q 1025 3213 1025 2328 
Q 1025 1447 1429 934 
Q 1834 422 2522 422 
Q 3209 422 3611 934 
Q 4013 1447 4013 2328 
Q 4013 3213 3611 3725 
Q 3209 4238 2522 4238 
z
M 2522 4750 
Q 3503 4750 4090 4092 
Q 4678 3434 4678 2328 
Q 4678 1225 4090 567 
Q 3503 -91 2522 -91 
Q 1538 -91 948 565 
Q 359 1222 359 2328 
Q 359 3434 948 4092 
Q 1538 4750 2522 4750 
z
" transform="scale(0.015625)"/>
       <path id="DejaVuSans-70" d="M 1159 525 
L 1159 -1331 
L 581 -1331 
L 581 3500 
L 1159 3500 
L 1159 2969 
Q 1341 3281 1617 3432 
Q 1894 3584 2278 3584 
Q 2916 3584 3314 3078 
Q 3713 2572 3713 1747 
Q 3713 922 3314 415 
Q 2916 -91 2278 -91 
Q 1894 -91 1617 61 
Q 1341 213 1159 525 
z
M 3116 1747 
Q 3116 2381 2855 2742 
Q 2594 3103 2138 3103 
Q 1681 3103 1420 2742 
Q 1159 2381 1159 1747 
Q 1159 1113 1420 752 
Q 1681 391 2138 391 
Q 2594 391 2855 752 
Q 3116 1113 3116 1747 
z
" transform="scale(0.015625)"/>
       <path id="DejaVuSans-6e" d="M 3513 2113 
L 3513 0 
L 2938 0 
L 2938 2094 
Q 2938 2591 2744 2837 
Q 2550 3084 2163 3084 
Q 1697 3084 1428 2787 
Q 1159 2491 1159 1978 
L 1159 0 
L 581 0 
L 581 3500 
L 1159 3500 
L 1159 2956 
Q 1366 3272 1645 3428 
Q 1925 3584 2291 3584 
Q 2894 3584 3203 3211 
Q 3513 2838 3513 2113 
z
" transform="scale(0.015625)"/>
       <path id="DejaVuSans-6f" d="M 1959 3097 
Q 1497 3097 1228 2736 
Q 959 2375 959 1747 
Q 959 1119 1226 758 
Q 1494 397 1959 397 
Q 2419 397 2687 759 
Q 2956 1122 2956 1747 
Q 2956 2369 2687 2733 
Q 2419 3097 1959 3097 
z
M 1959 3584 
Q 2709 3584 3137 3096 
Q 3566 2609 3566 1747 
Q 3566 888 3137 398 
Q 2709 -91 1959 -91 
Q 1206 -91 779 398 
Q 353 888 353 1747 
Q 353 2609 779 3096 
Q 1206 3584 1959 3584 
z
" transform="scale(0.015625)"/>
       <path id="DejaVuSans-20" transform="scale(0.015625)"/>
       <path id="DejaVuSans-76" d="M 191 3500 
L 800 3500 
L 1894 563 
L 2988 3500 
L 3597 3500 
L 2284 0 
L 1503 0 
L 191 3500 
z
" transform="scale(0.015625)"/>
       <path id="DejaVuSans-61" d="M 2194 1759 
Q 1497 1759 1228 1600 
Q 959 1441 959 1056 
Q 959 750 1161 570 
Q 1363 391 1709 391 
Q 2188 391 2477 730 
Q 2766 1069 2766 1631 
L 2766 1759 
L 2194 1759 
z
M 3341 1997 
L 3341 0 
L 2766 0 
L 2766 531 
Q 2569 213 2275 61 
Q 1981 -91 1556 -91 
Q 1019 -91 701 211 
Q 384 513 384 1019 
Q 384 1609 779 1909 
Q 1175 2209 1959 2209 
L 2766 2209 
L 2766 2266 
Q 2766 2663 2505 2880 
Q 2244 3097 1772 3097 
Q 1472 3097 1187 3025 
Q 903 2953 641 2809 
L 641 3341 
Q 956 3463 1253 3523 
Q 1550 3584 1831 3584 
Q 2591 3584 2966 3190 
Q 3341 2797 3341 1997 
z
" transform="scale(0.015625)"/>
       <path id="DejaVuSans-6c" d="M 603 4863 
L 1178 4863 
L 1178 0 
L 603 0 
L 603 4863 
z
" transform="scale(0.015625)"/>
       <path id="DejaVuSans-75" d="M 544 1381 
L 544 3500 
L 1119 3500 
L 1119 1403 
Q 1119 906 1312 657 
Q 1506 409 1894 409 
Q 2359 409 2629 706 
Q 2900 1003 2900 1516 
L 2900 3500 
L 3475 3500 
L 3475 0 
L 2900 0 
L 2900 538 
Q 2691 219 2414 64 
Q 2138 -91 1772 -91 
Q 1169 -91 856 284 
Q 544 659 544 1381 
z
M 1991 3584 
L 1991 3584 
z
" transform="scale(0.015625)"/>
      </defs>
      <use xlink:href="#DejaVuSans-4f"/>
      <use xlink:href="#DejaVuSans-70" x="78.710938"/>
      <use xlink:href="#DejaVuSans-69" x="142.1875"/>
      <use xlink:href="#DejaVuSans-6e" x="169.970703"/>
      <use xlink:href="#DejaVuSans-69" x="233.349609"/>
      <use xlink:href="#DejaVuSans-6f" x="261.132812"/>
      <use xlink:href="#DejaVuSans-6e" x="322.314453"/>
      <use xlink:href="#DejaVuSans-20" x="385.693359"/>
      <use xlink:href="#DejaVuSans-76" x="417.480469"/>
      <use xlink:href="#DejaVuSans-61" x="476.660156"/>
      <use xlink:href="#DejaVuSans-6c" x="537.939453"/>
      <use xlink:href="#DejaVuSans-75" x="565.722656"/>
      <use xlink:href="#DejaVuSans-65" x="629.101562"/>
     </g>
    </g>
   </g>
   <g id="line2d_12">
    <path d="M 57.6 114.048 
L 414.72 114.048 
" clip-path="url(#pb2aebb5f7e)" style="fill: none; stroke-dasharray: 5.55,2.4; stroke-dashoffset: 0; stroke: #008000; stroke-width: 1.5"/>
   </g>
   <g id="line2d_13">
    <path d="M 57.6 235.008 
L 414.72 235.008 
" clip-path="url(#pb2aebb5f7e)" style="fill: none; stroke-dasharray: 5.55,2.4; stroke-dashoffset: 0; stroke: #800080; stroke-width: 1.5"/>
   </g>
   <g id="line2d_14">
    <path d="M 73.832727 295.488 
L 76.680574 295.488 
L 79.528421 295.488 
L 82.376268 280.368 
L 85.224115 280.368 
L 88.071962 280.368 
L 90.919809 280.368 
L 93.767656 280.368 
L 96.615502 280.368 
L 99.463349 258.633 
L 102.311196 258.633 
L 105.159043 258.633 
L 108.00689 258.633 
L 110.854737 258.633 
L 113.702584 258.633 
L 116.550431 258.633 
L 119.398278 258.633 
L 122.246124 248.695734 
L 125.093971 248.695734 
L 127.941818 248.695734 
L 130.789665 248.695734 
L 133.637512 248.695734 
L 136.485359 248.695734 
L 139.333206 248.695734 
L 142.181053 248.695734 
L 145.0289 248.695734 
L 147.876746 244.312997 
L 150.724593 244.312997 
L 153.57244 244.312997 
L 156.420287 244.312997 
L 159.268134 244.312997 
L 162.115981 244.312997 
L 164.963828 244.312997 
L 167.811675 244.312997 
L 170.659522 244.312997 
L 173.507368 244.312997 
L 176.355215 240.051329 
L 179.203062 240.051329 
L 182.050909 240.051329 
L 184.898756 240.051329 
L 187.746603 240.051329 
L 190.59445 240.051329 
L 193.442297 240.051329 
L 196.290144 240.051329 
L 199.13799 240.051329 
L 201.985837 240.051329 
L 204.833684 240.051329 
L 207.681531 238.047489 
L 210.529378 238.047489 
L 213.377225 238.047489 
L 216.225072 238.047489 
L 219.072919 238.047489 
L 221.920766 238.047489 
L 224.768612 238.047489 
L 227.616459 238.047489 
L 230.464306 238.047489 
L 233.312153 238.047489 
L 236.16 238.047489 
L 239.007847 238.047489 
L 241.855694 238.047489 
L 244.703541 237.060277 
L 247.551388 237.060277 
L 250.399234 237.060277 
L 253.247081 237.060277 
L 256.094928 237.060277 
L 258.942775 237.060277 
L 261.790622 237.060277 
L 264.638469 237.060277 
L 267.486316 237.060277 
L 270.334163 237.060277 
L 273.18201 237.060277 
L 276.029856 237.060277 
L 278.877703 237.060277 
L 281.72555 236.095965 
L 284.573397 236.095965 
L 287.421244 236.095965 
L 290.269091 236.095965 
L 293.116938 236.095965 
L 295.964785 236.095965 
L 298.812632 236.095965 
L 301.660478 236.095965 
L 304.508325 236.095965 
L 307.356172 236.095965 
L 310.204019 236.095965 
L 313.051866 236.095965 
L 315.899713 236.095965 
L 318.74756 236.095965 
L 321.595407 236.095965 
L 324.443254 235.617398 
L 327.2911 235.617398 
L 330.138947 235.617398 
L 332.986794 235.617398 
L 335.834641 235.617398 
L 338.682488 235.617398 
L 341.530335 235.617398 
L 344.378182 235.617398 
L 347.226029 235.617398 
L 350.073876 235.617398 
L 352.921722 235.617398 
L 355.769569 235.617398 
L 358.617416 235.617398 
L 361.465263 235.617398 
L 364.31311 235.617398 
L 367.160957 235.617398 
L 370.008804 235.617398 
L 372.856651 235.379035 
L 375.704498 235.379035 
L 378.552344 235.379035 
L 381.400191 235.379035 
L 384.248038 235.379035 
L 387.095885 235.379035 
L 389.943732 235.379035 
L 392.791579 235.379035 
L 395.639426 235.379035 
L 398.487273 235.379035 
" clip-path="url(#pb2aebb5f7e)" style="fill: none; stroke: #0000ff; stroke-width: 1.5; stroke-linecap: square"/>
   </g>
   <g id="line2d_15">
    <path d="M 73.832727 174.528 
L 76.680574 235.008 
L 79.528421 265.248 
L 82.376268 265.248 
L 85.224115 159.408 
L 88.071962 106.488 
L 90.919809 106.488 
L 93.767656 193.428 
L 96.615502 236.898 
L 99.463349 236.898 
L 102.311196 158.463 
L 105.159043 119.2455 
L 108.00689 99.63675 
L 110.854737 99.63675 
L 113.702584 179.134875 
L 116.550431 218.883938 
L 119.398278 238.758469 
L 122.246124 238.758469 
L 125.093971 164.295422 
L 127.941818 127.063898 
L 130.789665 108.448137 
L 133.637512 108.448137 
L 136.485359 178.571936 
L 139.333206 213.633835 
L 142.181053 231.164785 
L 145.0289 239.93026 
L 147.876746 239.93026 
L 150.724593 169.535258 
L 153.57244 134.337757 
L 156.420287 116.739006 
L 159.268134 107.939631 
L 162.115981 107.939631 
L 164.963828 176.126314 
L 167.811675 210.219655 
L 170.659522 227.266326 
L 173.507368 235.789662 
L 176.355215 235.789662 
L 179.203062 169.664803 
L 182.050909 136.602373 
L 184.898756 120.071158 
L 187.746603 111.805551 
L 190.59445 111.805551 
L 193.442297 175.92844 
L 196.290144 207.989885 
L 199.13799 224.020607 
L 201.985837 232.035968 
L 204.833684 236.043649 
L 207.681531 236.043649 
L 210.529378 171.858198 
L 213.377225 139.765473 
L 216.225072 123.71911 
L 219.072919 115.695929 
L 221.920766 111.684338 
L 224.768612 111.684338 
L 227.616459 174.865913 
L 230.464306 206.456701 
L 233.312153 222.252095 
L 236.16 230.149792 
L 239.007847 234.098641 
L 241.855694 236.073065 
L 244.703541 236.073065 
L 247.551388 172.875804 
L 250.399234 141.277173 
L 253.247081 125.477858 
L 256.094928 117.5782 
L 258.942775 113.628371 
L 261.790622 113.628371 
L 264.638469 175.344324 
L 267.486316 206.2023 
L 270.334163 221.631289 
L 273.18201 229.345783 
L 276.029856 233.20303 
L 278.877703 235.131653 
L 281.72555 235.131653 
L 284.573397 173.392555 
L 287.421244 142.523006 
L 290.269091 127.088231 
L 293.116938 119.370844 
L 295.964785 115.512151 
L 298.812632 113.582804 
L 301.660478 113.582804 
L 304.508325 174.839384 
L 307.356172 205.467675 
L 310.204019 220.78182 
L 313.051866 228.438893 
L 315.899713 232.267429 
L 318.74756 234.181697 
L 321.595407 235.138831 
L 324.443254 235.138831 
L 327.2911 173.878481 
L 330.138947 143.248305 
L 332.986794 127.933218 
L 335.834641 120.275674 
L 338.682488 116.446902 
L 341.530335 114.532516 
L 344.378182 113.575323 
L 347.226029 113.575323 
L 350.073876 174.596361 
L 352.921722 205.106879 
L 355.769569 220.362139 
L 358.617416 227.989768 
L 361.465263 231.803583 
L 364.31311 233.710491 
L 367.160957 234.663944 
L 370.008804 235.140671 
L 372.856651 235.140671 
L 375.704498 174.118699 
L 378.552344 143.607713 
L 381.400191 128.35222 
L 384.248038 120.724473 
L 387.095885 116.9106 
L 389.943732 115.003663 
L 392.791579 114.050195 
L 395.639426 113.573461 
L 398.487273 113.573461 
" clip-path="url(#pb2aebb5f7e)" style="fill: none; stroke: #ff0000; stroke-width: 1.5; stroke-linecap: square"/>
   </g>
   <g id="line2d_16">
    <path d="M 73.832727 53.568 
L 76.680574 53.568 
L 79.528421 53.568 
L 82.376268 53.568 
L 85.224115 53.568 
L 88.071962 53.568 
L 90.919809 80.028 
L 93.767656 80.028 
L 96.615502 80.028 
L 99.463349 80.028 
L 102.311196 80.028 
L 105.159043 80.028 
L 108.00689 80.028 
L 110.854737 89.832375 
L 113.702584 89.832375 
L 116.550431 89.832375 
L 119.398278 89.832375 
L 122.246124 89.832375 
L 125.093971 89.832375 
L 127.941818 89.832375 
L 130.789665 89.832375 
L 133.637512 99.140256 
L 136.485359 99.140256 
L 139.333206 99.140256 
L 142.181053 99.140256 
L 145.0289 99.140256 
L 147.876746 99.140256 
L 150.724593 99.140256 
L 153.57244 99.140256 
L 156.420287 99.140256 
L 159.268134 99.140256 
L 162.115981 103.539943 
L 164.963828 103.539943 
L 167.811675 103.539943 
L 170.659522 103.539943 
L 173.507368 103.539943 
L 176.355215 103.539943 
L 179.203062 103.539943 
L 182.050909 103.539943 
L 184.898756 103.539943 
L 187.746603 103.539943 
L 190.59445 107.672747 
L 193.442297 107.672747 
L 196.290144 107.672747 
L 199.13799 107.672747 
L 201.985837 107.672747 
L 204.833684 107.672747 
L 207.681531 107.672747 
L 210.529378 107.672747 
L 213.377225 107.672747 
L 216.225072 107.672747 
L 219.072919 107.672747 
L 221.920766 107.672747 
L 224.768612 109.678543 
L 227.616459 109.678543 
L 230.464306 109.678543 
L 233.312153 109.678543 
L 236.16 109.678543 
L 239.007847 109.678543 
L 241.855694 109.678543 
L 244.703541 109.678543 
L 247.551388 109.678543 
L 250.399234 109.678543 
L 253.247081 109.678543 
L 256.094928 109.678543 
L 258.942775 109.678543 
L 261.790622 111.653457 
L 264.638469 111.653457 
L 267.486316 111.653457 
L 270.334163 111.653457 
L 273.18201 111.653457 
L 276.029856 111.653457 
L 278.877703 111.653457 
L 281.72555 111.653457 
L 284.573397 111.653457 
L 287.421244 111.653457 
L 290.269091 111.653457 
L 293.116938 111.653457 
L 295.964785 111.653457 
L 298.812632 111.653457 
L 301.660478 112.61813 
L 304.508325 112.61813 
L 307.356172 112.61813 
L 310.204019 112.61813 
L 313.051866 112.61813 
L 315.899713 112.61813 
L 318.74756 112.61813 
L 321.595407 112.61813 
L 324.443254 112.61813 
L 327.2911 112.61813 
L 330.138947 112.61813 
L 332.986794 112.61813 
L 335.834641 112.61813 
L 338.682488 112.61813 
L 341.530335 112.61813 
L 344.378182 112.61813 
L 347.226029 113.096727 
L 350.073876 113.096727 
L 352.921722 113.096727 
L 355.769569 113.096727 
L 358.617416 113.096727 
L 361.465263 113.096727 
L 364.31311 113.096727 
L 367.160957 113.096727 
L 370.008804 113.096727 
L 372.856651 113.096727 
L 375.704498 113.096727 
L 378.552344 113.096727 
L 381.400191 113.096727 
L 384.248038 113.096727 
L 387.095885 113.096727 
L 389.943732 113.096727 
L 392.791579 113.096727 
L 395.639426 113.096727 
L 398.487273 113.335094 
" clip-path="url(#pb2aebb5f7e)" style="fill: none; stroke: #bfbf00; stroke-width: 1.5; stroke-linecap: square"/>
   </g>
   <g id="patch_3">
    <path d="M 57.6 307.584 
L 57.6 41.472 
" style="fill: none; stroke: #000000; stroke-width: 0.8; stroke-linejoin: miter; stroke-linecap: square"/>
   </g>
   <g id="patch_4">
    <path d="M 414.72 307.584 
L 414.72 41.472 
" style="fill: none; stroke: #000000; stroke-width: 0.8; stroke-linejoin: miter; stroke-linecap: square"/>
   </g>
   <g id="patch_5">
    <path d="M 57.6 307.584 
L 414.72 307.584 
" style="fill: none; stroke: #000000; stroke-width: 0.8; stroke-linejoin: miter; stroke-linecap: square"/>
   </g>
   <g id="patch_6">
    <path d="M 57.6 41.472 
L 414.72 41.472 
" style="fill: none; stroke: #000000; stroke-width: 0.8; stroke-linejoin: miter; stroke-linecap: square"/>
   </g>
  </g>
 </g>
 <defs>
  <clipPath id="pb2aebb5f7e">
   <rect x="57.6" y="41.472" width="357.12" height="266.112"/>
  </clipPath>
 </defs>
</svg>
