<?xml version="1.0" encoding="utf-8" standalone="no"?>
<!DOCTYPE svg PUBLIC "-//W3C//DTD SVG 1.1//EN"
  "http://www.w3.org/Graphics/SVG/1.1/DTD/svg11.dtd">
<svg xmlns:xlink="http://www.w3.org/1999/xlink" width="460.8pt" height="345.6pt" viewBox="0 0 460.8 345.6" xmlns="http://www.w3.org/2000/svg" version="1.1">
 <metadata>
  <rdf:RDF xmlns:dc="http://purl.org/dc/elements/1.1/" xmlns:cc="http://creativecommons.org/ns#" xmlns:rdf="http://www.w3.org/1999/02/22-rdf-syntax-ns#">
   <cc:Work>
    <dc:type rdf:resource="http://purl.org/dc/dcmitype/StillImage"/>
    <dc:date>2024-04-19T00:03:29.373979</dc:date>
    <dc:format>image/svg+xml</dc:format>
    <dc:creator>
     <cc:Agent>
      <dc:title>Matplotlib v3.8.4, https://matplotlib.org/</dc:title>
     </cc:Agent>
    </dc:creator>
   </cc:Work>
  </rdf:RDF>
 </metadata>
 <defs>
  <style type="text/css">*{stroke-linejoin: round; stroke-linecap: butt}</style>
 </defs>
 <g id="figure_1">
  <g id="patch_1">
   <path d="M 0 345.6 
L 460.8 345.6 
L 460.8 0 
L 0 0 
z
" style="fill: #ffffff"/>
  </g>
  <g id="axes_1">
   <g id="patch_2">
    <path d="M 57.6 307.584 
L 414.72 307.584 
L 414.72 41.472 
L 57.6 41.472 
z
" style="fill: #ffffff"/>
   </g>
   <g id="matplotlib.axis_1">
    <g id="xtick_1">
     <g id="line2d_1">
      <defs>
       <path id="m85cbeed2ac" d="M 0 0 
L 0 3.5 
" style="stroke: #000000; stroke-width: 0.8"/>
      </defs>
      <g>
       <use xlink:href="#m85cbeed2ac" x="73.832727" y="307.584" style="stroke: #000000; stroke-width: 0.8"/>
      </g>
     </g>
     <g id="text_1">
      <!-- 0 -->
      <g transform="translate(70.651477 322.182437) scale(0.1 -0.1)">
       <defs>
        <path id="DejaVuSans-30" d="M 2034 4250 
Q 1547 4250 1301 3770 
Q 1056 3291 1056 2328 
Q 1056 1369 1301 889 
Q 1547 409 2034 409 
Q 2525 409 2770 889 
Q 3016 1369 3016 2328 
Q 3016 3291 2770 3770 
Q 2525 4250 2034 4250 
z
M 2034 4750 
Q 2819 4750 3233 4129 
Q 3647 3509 3647 2328 
Q 3647 1150 3233 529 
Q 2819 -91 2034 -91 
Q 1250 -91 836 529 
Q 422 1150 422 2328 
Q 422 3509 836 4129 
Q 1250 4750 2034 4750 
z
" transform="scale(0.015625)"/>
       </defs>
       <use xlink:href="#DejaVuSans-30"/>
      </g>
     </g>
    </g>
    <g id="xtick_2">
     <g id="line2d_2">
      <g>
       <use xlink:href="#m85cbeed2ac" x="133.953939" y="307.584" style="stroke: #000000; stroke-width: 0.8"/>
      </g>
     </g>
     <g id="text_2">
      <!-- 20 -->
      <g transform="translate(127.591439 322.182437) scale(0.1 -0.1)">
       <defs>
        <path id="DejaVuSans-32" d="M 1228 531 
L 3431 531 
L 3431 0 
L 469 0 
L 469 531 
Q 828 903 1448 1529 
Q 2069 2156 2228 2338 
Q 2531 2678 2651 2914 
Q 2772 3150 2772 3378 
Q 2772 3750 2511 3984 
Q 2250 4219 1831 4219 
Q 1534 4219 1204 4116 
Q 875 4013 500 3803 
L 500 4441 
Q 881 4594 1212 4672 
Q 1544 4750 1819 4750 
Q 2544 4750 2975 4387 
Q 3406 4025 3406 3419 
Q 3406 3131 3298 2873 
Q 3191 2616 2906 2266 
Q 2828 2175 2409 1742 
Q 1991 1309 1228 531 
z
" transform="scale(0.015625)"/>
       </defs>
       <use xlink:href="#DejaVuSans-32"/>
       <use xlink:href="#DejaVuSans-30" x="63.623047"/>
      </g>
     </g>
    </g>
    <g id="xtick_3">
     <g id="line2d_3">
      <g>
       <use xlink:href="#m85cbeed2ac" x="194.075152" y="307.584" style="stroke: #000000; stroke-width: 0.8"/>
      </g>
     </g>
     <g id="text_3">
      <!-- 40 -->
      <g transform="translate(187.712652 322.182437) scale(0.1 -0.1)">
       <defs>
        <path id="DejaVuSans-34" d="M 2419 4116 
L 825 1625 
L 2419 1625 
L 2419 4116 
z
M 2253 4666 
L 3047 4666 
L 3047 1625 
L 3713 1625 
L 3713 1100 
L 3047 1100 
L 3047 0 
L 2419 0 
L 2419 1100 
L 313 1100 
L 313 1709 
L 2253 4666 
z
" transform="scale(0.015625)"/>
       </defs>
       <use xlink:href="#DejaVuSans-34"/>
       <use xlink:href="#DejaVuSans-30" x="63.623047"/>
      </g>
     </g>
    </g>
    <g id="xtick_4">
     <g id="line2d_4">
      <g>
       <use xlink:href="#m85cbeed2ac" x="254.196364" y="307.584" style="stroke: #000000; stroke-width: 0.8"/>
      </g>
     </g>
     <g id="text_4">
      <!-- 60 -->
      <g transform="translate(247.833864 322.182437) scale(0.1 -0.1)">
       <defs>
        <path id="DejaVuSans-36" d="M 2113 2584 
Q 1688 2584 1439 2293 
Q 1191 2003 1191 1497 
Q 1191 994 1439 701 
Q 1688 409 2113 409 
Q 2538 409 2786 701 
Q 3034 994 3034 1497 
Q 3034 2003 2786 2293 
Q 2538 2584 2113 2584 
z
M 3366 4563 
L 3366 3988 
Q 3128 4100 2886 4159 
Q 2644 4219 2406 4219 
Q 1781 4219 1451 3797 
Q 1122 3375 1075 2522 
Q 1259 2794 1537 2939 
Q 1816 3084 2150 3084 
Q 2853 3084 3261 2657 
Q 3669 2231 3669 1497 
Q 3669 778 3244 343 
Q 2819 -91 2113 -91 
Q 1303 -91 875 529 
Q 447 1150 447 2328 
Q 447 3434 972 4092 
Q 1497 4750 2381 4750 
Q 2619 4750 2861 4703 
Q 3103 4656 3366 4563 
z
" transform="scale(0.015625)"/>
       </defs>
       <use xlink:href="#DejaVuSans-36"/>
       <use xlink:href="#DejaVuSans-30" x="63.623047"/>
      </g>
     </g>
    </g>
    <g id="xtick_5">
     <g id="line2d_5">
      <g>
       <use xlink:href="#m85cbeed2ac" x="314.317576" y="307.584" style="stroke: #000000; stroke-width: 0.8"/>
      </g>
     </g>
     <g id="text_5">
      <!-- 80 -->
      <g transform="translate(307.955076 322.182437) scale(0.1 -0.1)">
       <defs>
        <path id="DejaVuSans-38" d="M 2034 2216 
Q 1584 2216 1326 1975 
Q 1069 1734 1069 1313 
Q 1069 891 1326 650 
Q 1584 409 2034 409 
Q 2484 409 2743 651 
Q 3003 894 3003 1313 
Q 3003 1734 2745 1975 
Q 2488 2216 2034 2216 
z
M 1403 2484 
Q 997 2584 770 2862 
Q 544 3141 544 3541 
Q 544 4100 942 4425 
Q 1341 4750 2034 4750 
Q 2731 4750 3128 4425 
Q 3525 4100 3525 3541 
Q 3525 3141 3298 2862 
Q 3072 2584 2669 2484 
Q 3125 2378 3379 2068 
Q 3634 1759 3634 1313 
Q 3634 634 3220 271 
Q 2806 -91 2034 -91 
Q 1263 -91 848 271 
Q 434 634 434 1313 
Q 434 1759 690 2068 
Q 947 2378 1403 2484 
z
M 1172 3481 
Q 1172 3119 1398 2916 
Q 1625 2713 2034 2713 
Q 2441 2713 2670 2916 
Q 2900 3119 2900 3481 
Q 2900 3844 2670 4047 
Q 2441 4250 2034 4250 
Q 1625 4250 1398 4047 
Q 1172 3844 1172 3481 
z
" transform="scale(0.015625)"/>
       </defs>
       <use xlink:href="#DejaVuSans-38"/>
       <use xlink:href="#DejaVuSans-30" x="63.623047"/>
      </g>
     </g>
    </g>
    <g id="xtick_6">
     <g id="line2d_6">
      <g>
       <use xlink:href="#m85cbeed2ac" x="374.438788" y="307.584" style="stroke: #000000; stroke-width: 0.8"/>
      </g>
     </g>
     <g id="text_6">
      <!-- 100 -->
      <g transform="translate(364.895038 322.182437) scale(0.1 -0.1)">
       <defs>
        <path id="DejaVuSans-31" d="M 794 531 
L 1825 531 
L 1825 4091 
L 703 3866 
L 703 4441 
L 1819 4666 
L 2450 4666 
L 2450 531 
L 3481 531 
L 3481 0 
L 794 0 
L 794 531 
z
" transform="scale(0.015625)"/>
       </defs>
       <use xlink:href="#DejaVuSans-31"/>
       <use xlink:href="#DejaVuSans-30" x="63.623047"/>
       <use xlink:href="#DejaVuSans-30" x="127.246094"/>
      </g>
     </g>
    </g>
    <g id="text_7">
     <!-- Time -->
     <g transform="translate(223.926406 335.860562) scale(0.1 -0.1)">
      <defs>
       <path id="DejaVuSans-54" d="M -19 4666 
L 3928 4666 
L 3928 4134 
L 2272 4134 
L 2272 0 
L 1638 0 
L 1638 4134 
L -19 4134 
L -19 4666 
z
" transform="scale(0.015625)"/>
       <path id="DejaVuSans-69" d="M 603 3500 
L 1178 3500 
L 1178 0 
L 603 0 
L 603 3500 
z
M 603 4863 
L 1178 4863 
L 1178 4134 
L 603 4134 
L 603 4863 
z
" transform="scale(0.015625)"/>
       <path id="DejaVuSans-6d" d="M 3328 2828 
Q 3544 3216 3844 3400 
Q 4144 3584 4550 3584 
Q 5097 3584 5394 3201 
Q 5691 2819 5691 2113 
L 5691 0 
L 5113 0 
L 5113 2094 
Q 5113 2597 4934 2840 
Q 4756 3084 4391 3084 
Q 3944 3084 3684 2787 
Q 3425 2491 3425 1978 
L 3425 0 
L 2847 0 
L 2847 2094 
Q 2847 2600 2669 2842 
Q 2491 3084 2119 3084 
Q 1678 3084 1418 2786 
Q 1159 2488 1159 1978 
L 1159 0 
L 581 0 
L 581 3500 
L 1159 3500 
L 1159 2956 
Q 1356 3278 1631 3431 
Q 1906 3584 2284 3584 
Q 2666 3584 2933 3390 
Q 3200 3197 3328 2828 
z
" transform="scale(0.015625)"/>
       <path id="DejaVuSans-65" d="M 3597 1894 
L 3597 1613 
L 953 1613 
Q 991 1019 1311 708 
Q 1631 397 2203 397 
Q 2534 397 2845 478 
Q 3156 559 3463 722 
L 3463 178 
Q 3153 47 2828 -22 
Q 2503 -91 2169 -91 
Q 1331 -91 842 396 
Q 353 884 353 1716 
Q 353 2575 817 3079 
Q 1281 3584 2069 3584 
Q 2775 3584 3186 3129 
Q 3597 2675 3597 1894 
z
M 3022 2063 
Q 3016 2534 2758 2815 
Q 2500 3097 2075 3097 
Q 1594 3097 1305 2825 
Q 1016 2553 972 2059 
L 3022 2063 
z
" transform="scale(0.015625)"/>
      </defs>
      <use xlink:href="#DejaVuSans-54"/>
      <use xlink:href="#DejaVuSans-69" x="57.958984"/>
      <use xlink:href="#DejaVuSans-6d" x="85.742188"/>
      <use xlink:href="#DejaVuSans-65" x="183.154297"/>
     </g>
    </g>
   </g>
   <g id="matplotlib.axis_2">
    <g id="ytick_1">
     <g id="line2d_7">
      <defs>
       <path id="me4e53e9eb8" d="M 0 0 
L -3.5 0 
" style="stroke: #000000; stroke-width: 0.8"/>
      </defs>
      <g>
       <use xlink:href="#me4e53e9eb8" x="57.6" y="295.488" style="stroke: #000000; stroke-width: 0.8"/>
      </g>
     </g>
     <g id="text_8">
      <!-- 0.0 -->
      <g transform="translate(34.696875 299.287219) scale(0.1 -0.1)">
       <defs>
        <path id="DejaVuSans-2e" d="M 684 794 
L 1344 794 
L 1344 0 
L 684 0 
L 684 794 
z
" transform="scale(0.015625)"/>
       </defs>
       <use xlink:href="#DejaVuSans-30"/>
       <use xlink:href="#DejaVuSans-2e" x="63.623047"/>
       <use xlink:href="#DejaVuSans-30" x="95.410156"/>
      </g>
     </g>
    </g>
    <g id="ytick_2">
     <g id="line2d_8">
      <g>
       <use xlink:href="#me4e53e9eb8" x="57.6" y="247.104" style="stroke: #000000; stroke-width: 0.8"/>
      </g>
     </g>
     <g id="text_9">
      <!-- 0.2 -->
      <g transform="translate(34.696875 250.903219) scale(0.1 -0.1)">
       <use xlink:href="#DejaVuSans-30"/>
       <use xlink:href="#DejaVuSans-2e" x="63.623047"/>
       <use xlink:href="#DejaVuSans-32" x="95.410156"/>
      </g>
     </g>
    </g>
    <g id="ytick_3">
     <g id="line2d_9">
      <g>
       <use xlink:href="#me4e53e9eb8" x="57.6" y="198.72" style="stroke: #000000; stroke-width: 0.8"/>
      </g>
     </g>
     <g id="text_10">
      <!-- 0.4 -->
      <g transform="translate(34.696875 202.519219) scale(0.1 -0.1)">
       <use xlink:href="#DejaVuSans-30"/>
       <use xlink:href="#DejaVuSans-2e" x="63.623047"/>
       <use xlink:href="#DejaVuSans-34" x="95.410156"/>
      </g>
     </g>
    </g>
    <g id="ytick_4">
     <g id="line2d_10">
      <g>
       <use xlink:href="#me4e53e9eb8" x="57.6" y="150.336" style="stroke: #000000; stroke-width: 0.8"/>
      </g>
     </g>
     <g id="text_11">
      <!-- 0.6 -->
      <g transform="translate(34.696875 154.135219) scale(0.1 -0.1)">
       <use xlink:href="#DejaVuSans-30"/>
       <use xlink:href="#DejaVuSans-2e" x="63.623047"/>
       <use xlink:href="#DejaVuSans-36" x="95.410156"/>
      </g>
     </g>
    </g>
    <g id="ytick_5">
     <g id="line2d_11">
      <g>
       <use xlink:href="#me4e53e9eb8" x="57.6" y="101.952" style="stroke: #000000; stroke-width: 0.8"/>
      </g>
     </g>
     <g id="text_12">
      <!-- 0.8 -->
      <g transform="translate(34.696875 105.751219) scale(0.1 -0.1)">
       <use xlink:href="#DejaVuSans-30"/>
       <use xlink:href="#DejaVuSans-2e" x="63.623047"/>
       <use xlink:href="#DejaVuSans-38" x="95.410156"/>
      </g>
     </g>
    </g>
    <g id="ytick_6">
     <g id="line2d_12">
      <g>
       <use xlink:href="#me4e53e9eb8" x="57.6" y="53.568" style="stroke: #000000; stroke-width: 0.8"/>
      </g>
     </g>
     <g id="text_13">
      <!-- 1.0 -->
      <g transform="translate(34.696875 57.367219) scale(0.1 -0.1)">
       <use xlink:href="#DejaVuSans-31"/>
       <use xlink:href="#DejaVuSans-2e" x="63.623047"/>
       <use xlink:href="#DejaVuSans-30" x="95.410156"/>
      </g>
     </g>
    </g>
    <g id="text_14">
     <!-- Opinion value -->
     <g transform="translate(28.617187 209.060031) rotate(-90) scale(0.1 -0.1)">
      <defs>
       <path id="DejaVuSans-4f" d="M 2522 4238 
Q 1834 4238 1429 3725 
Q 1025 3213 1025 2328 
Q 1025 1447 1429 934 
Q 1834 422 2522 422 
Q 3209 422 3611 934 
Q 4013 1447 4013 2328 
Q 4013 3213 3611 3725 
Q 3209 4238 2522 4238 
z
M 2522 4750 
Q 3503 4750 4090 4092 
Q 4678 3434 4678 2328 
Q 4678 1225 4090 567 
Q 3503 -91 2522 -91 
Q 1538 -91 948 565 
Q 359 1222 359 2328 
Q 359 3434 948 4092 
Q 1538 4750 2522 4750 
z
" transform="scale(0.015625)"/>
       <path id="DejaVuSans-70" d="M 1159 525 
L 1159 -1331 
L 581 -1331 
L 581 3500 
L 1159 3500 
L 1159 2969 
Q 1341 3281 1617 3432 
Q 1894 3584 2278 3584 
Q 2916 3584 3314 3078 
Q 3713 2572 3713 1747 
Q 3713 922 3314 415 
Q 2916 -91 2278 -91 
Q 1894 -91 1617 61 
Q 1341 213 1159 525 
z
M 3116 1747 
Q 3116 2381 2855 2742 
Q 2594 3103 2138 3103 
Q 1681 3103 1420 2742 
Q 1159 2381 1159 1747 
Q 1159 1113 1420 752 
Q 1681 391 2138 391 
Q 2594 391 2855 752 
Q 3116 1113 3116 1747 
z
" transform="scale(0.015625)"/>
       <path id="DejaVuSans-6e" d="M 3513 2113 
L 3513 0 
L 2938 0 
L 2938 2094 
Q 2938 2591 2744 2837 
Q 2550 3084 2163 3084 
Q 1697 3084 1428 2787 
Q 1159 2491 1159 1978 
L 1159 0 
L 581 0 
L 581 3500 
L 1159 3500 
L 1159 2956 
Q 1366 3272 1645 3428 
Q 1925 3584 2291 3584 
Q 2894 3584 3203 3211 
Q 3513 2838 3513 2113 
z
" transform="scale(0.015625)"/>
       <path id="DejaVuSans-6f" d="M 1959 3097 
Q 1497 3097 1228 2736 
Q 959 2375 959 1747 
Q 959 1119 1226 758 
Q 1494 397 1959 397 
Q 2419 397 2687 759 
Q 2956 1122 2956 1747 
Q 2956 2369 2687 2733 
Q 2419 3097 1959 3097 
z
M 1959 3584 
Q 2709 3584 3137 3096 
Q 3566 2609 3566 1747 
Q 3566 888 3137 398 
Q 2709 -91 1959 -91 
Q 1206 -91 779 398 
Q 353 888 353 1747 
Q 353 2609 779 3096 
Q 1206 3584 1959 3584 
z
" transform="scale(0.015625)"/>
       <path id="DejaVuSans-20" transform="scale(0.015625)"/>
       <path id="DejaVuSans-76" d="M 191 3500 
L 800 3500 
L 1894 563 
L 2988 3500 
L 3597 3500 
L 2284 0 
L 1503 0 
L 191 3500 
z
" transform="scale(0.015625)"/>
       <path id="DejaVuSans-61" d="M 2194 1759 
Q 1497 1759 1228 1600 
Q 959 1441 959 1056 
Q 959 750 1161 570 
Q 1363 391 1709 391 
Q 2188 391 2477 730 
Q 2766 1069 2766 1631 
L 2766 1759 
L 2194 1759 
z
M 3341 1997 
L 3341 0 
L 2766 0 
L 2766 531 
Q 2569 213 2275 61 
Q 1981 -91 1556 -91 
Q 1019 -91 701 211 
Q 384 513 384 1019 
Q 384 1609 779 1909 
Q 1175 2209 1959 2209 
L 2766 2209 
L 2766 2266 
Q 2766 2663 2505 2880 
Q 2244 3097 1772 3097 
Q 1472 3097 1187 3025 
Q 903 2953 641 2809 
L 641 3341 
Q 956 3463 1253 3523 
Q 1550 3584 1831 3584 
Q 2591 3584 2966 3190 
Q 3341 2797 3341 1997 
z
" transform="scale(0.015625)"/>
       <path id="DejaVuSans-6c" d="M 603 4863 
L 1178 4863 
L 1178 0 
L 603 0 
L 603 4863 
z
" transform="scale(0.015625)"/>
       <path id="DejaVuSans-75" d="M 544 1381 
L 544 3500 
L 1119 3500 
L 1119 1403 
Q 1119 906 1312 657 
Q 1506 409 1894 409 
Q 2359 409 2629 706 
Q 2900 1003 2900 1516 
L 2900 3500 
L 3475 3500 
L 3475 0 
L 2900 0 
L 2900 538 
Q 2691 219 2414 64 
Q 2138 -91 1772 -91 
Q 1169 -91 856 284 
Q 544 659 544 1381 
z
M 1991 3584 
L 1991 3584 
z
" transform="scale(0.015625)"/>
      </defs>
      <use xlink:href="#DejaVuSans-4f"/>
      <use xlink:href="#DejaVuSans-70" x="78.710938"/>
      <use xlink:href="#DejaVuSans-69" x="142.1875"/>
      <use xlink:href="#DejaVuSans-6e" x="169.970703"/>
      <use xlink:href="#DejaVuSans-69" x="233.349609"/>
      <use xlink:href="#DejaVuSans-6f" x="261.132812"/>
      <use xlink:href="#DejaVuSans-6e" x="322.314453"/>
      <use xlink:href="#DejaVuSans-20" x="385.693359"/>
      <use xlink:href="#DejaVuSans-76" x="417.480469"/>
      <use xlink:href="#DejaVuSans-61" x="476.660156"/>
      <use xlink:href="#DejaVuSans-6c" x="537.939453"/>
      <use xlink:href="#DejaVuSans-75" x="565.722656"/>
      <use xlink:href="#DejaVuSans-65" x="629.101562"/>
     </g>
    </g>
   </g>
   <g id="line2d_13">
    <path d="M 73.832727 295.488 
L 76.838788 295.488 
L 79.844848 265.248 
L 82.850909 265.248 
L 85.85697 265.248 
L 88.86303 265.248 
L 91.869091 265.248 
L 94.875152 250.128 
L 97.881212 250.128 
L 100.887273 250.128 
L 103.893333 250.128 
L 106.899394 250.128 
L 109.905455 250.128 
L 112.911515 250.128 
L 115.917576 242.80425 
L 118.923636 242.80425 
L 121.929697 242.80425 
L 124.935758 242.80425 
L 127.941818 242.80425 
L 130.947879 242.80425 
L 133.953939 242.80425 
L 136.96 242.80425 
L 139.966061 242.80425 
L 142.972121 239.306643 
L 145.978182 239.306643 
L 148.984242 239.306643 
L 151.990303 239.306643 
L 154.996364 239.306643 
L 158.002424 239.306643 
L 161.008485 239.306643 
L 164.014545 239.306643 
L 167.020606 239.306643 
L 170.026667 239.306643 
L 173.032727 239.306643 
L 176.038788 237.605514 
L 179.044848 237.605514 
L 182.050909 237.605514 
L 185.05697 237.605514 
L 188.06303 237.605514 
L 191.069091 237.605514 
L 194.075152 237.605514 
L 197.081212 237.605514 
L 200.087273 237.605514 
L 203.093333 237.605514 
L 206.099394 237.605514 
L 209.105455 237.605514 
L 212.111515 237.605514 
L 215.117576 236.767405 
L 218.123636 236.767405 
L 221.129697 236.767405 
L 224.135758 236.767405 
L 227.141818 236.767405 
L 230.147879 236.767405 
L 233.153939 236.767405 
L 236.16 236.767405 
L 239.166061 236.767405 
L 242.172121 236.767405 
L 245.178182 236.767405 
L 248.184242 236.767405 
L 251.190303 236.767405 
L 254.196364 236.767405 
L 257.202424 236.767405 
L 260.208485 236.351522 
L 263.214545 236.351522 
L 266.220606 236.351522 
L 269.226667 236.351522 
L 272.232727 236.351522 
L 275.238788 236.351522 
L 278.244848 236.351522 
L 281.250909 236.351522 
L 284.25697 236.351522 
L 287.26303 236.351522 
L 290.269091 236.351522 
L 293.275152 236.351522 
L 296.281212 236.351522 
L 299.287273 236.351522 
L 302.293333 236.351522 
L 305.299394 236.351522 
L 308.305455 236.351522 
L 311.311515 236.14438 
L 314.317576 236.14438 
L 317.323636 236.14438 
L 320.329697 236.14438 
L 323.335758 236.14438 
L 326.341818 236.14438 
L 329.347879 236.14438 
L 332.353939 236.14438 
L 335.36 236.14438 
L 338.366061 236.14438 
L 341.372121 236.14438 
L 344.378182 236.14438 
L 347.384242 236.14438 
L 350.390303 236.14438 
L 353.396364 236.14438 
L 356.402424 236.14438 
L 359.408485 236.14438 
L 362.414545 236.14438 
L 365.420606 236.14438 
L 368.426667 236.04101 
L 371.432727 236.04101 
L 374.438788 236.04101 
L 377.444848 236.04101 
L 380.450909 236.04101 
L 383.45697 236.04101 
L 386.46303 236.04101 
L 389.469091 236.04101 
L 392.475152 236.04101 
L 395.481212 236.04101 
L 398.487273 236.04101 
" clip-path="url(#p1f47be0703)" style="fill: none; stroke: #0000ff; stroke-width: 1.5; stroke-linecap: square"/>
   </g>
   <g id="line2d_14">
    <path d="M 73.832727 174.528 
L 76.838788 235.008 
L 79.844848 235.008 
L 82.850909 144.288 
L 85.85697 144.288 
L 88.86303 204.768 
L 91.869091 235.008 
L 94.875152 235.008 
L 97.881212 166.968 
L 100.887273 132.948 
L 103.893333 132.948 
L 106.899394 191.538 
L 109.905455 220.833 
L 112.911515 235.4805 
L 115.917576 235.4805 
L 118.923636 175.70925 
L 121.929697 145.823625 
L 124.935758 130.880813 
L 127.941818 130.880813 
L 130.947879 186.842531 
L 133.953939 214.823391 
L 136.96 228.81382 
L 139.966061 235.809035 
L 142.972121 235.809035 
L 145.978182 179.609221 
L 148.984242 151.509313 
L 151.990303 137.45936 
L 154.996364 130.434383 
L 158.002424 130.434383 
L 161.008485 184.870513 
L 164.014545 212.088578 
L 167.020606 225.69761 
L 170.026667 232.502126 
L 173.032727 235.904384 
L 176.038788 235.904384 
L 179.044848 181.41314 
L 182.050909 154.167517 
L 185.05697 140.544706 
L 188.06303 133.7333 
L 191.069091 130.327597 
L 194.075152 130.327597 
L 197.081212 183.966555 
L 200.087273 210.786035 
L 203.093333 224.195774 
L 206.099394 230.900644 
L 209.105455 234.253079 
L 212.111515 235.929296 
L 215.117576 235.929296 
L 218.123636 182.277021 
L 221.129697 155.450884 
L 224.135758 142.037815 
L 227.141818 135.33128 
L 230.147879 131.978013 
L 233.153939 130.30138 
L 236.16 130.30138 
L 239.166061 183.534392 
L 242.172121 210.150899 
L 245.178182 223.459152 
L 248.184242 230.113278 
L 251.190303 233.440342 
L 254.196364 235.103873 
L 257.202424 235.935639 
L 260.208485 235.935639 
L 263.214545 182.699351 
L 266.220606 156.081207 
L 269.226667 142.772135 
L 272.232727 136.117599 
L 275.238788 132.790331 
L 278.244848 131.126697 
L 281.250909 130.29488 
L 284.25697 130.29488 
L 287.26303 183.323201 
L 290.269091 209.837361 
L 293.275152 223.094442 
L 296.281212 229.722982 
L 299.287273 233.037252 
L 302.293333 234.694387 
L 305.299394 235.522954 
L 308.305455 235.937238 
L 311.311515 235.937238 
L 314.317576 182.908105 
L 317.323636 156.393538 
L 320.329697 143.136255 
L 323.335758 136.507613 
L 326.341818 133.193292 
L 329.347879 131.536132 
L 332.353939 130.707552 
L 335.36 130.293261 
L 338.366061 130.293261 
L 341.372121 183.218821 
L 344.378182 209.6816 
L 347.384242 222.91299 
L 350.390303 229.528685 
L 353.396364 232.836533 
L 356.402424 234.490456 
L 359.408485 235.317418 
L 362.414545 235.730899 
L 365.420606 235.93764 
L 368.426667 235.93764 
L 371.432727 183.011878 
L 374.438788 156.548997 
L 377.444848 143.317557 
L 380.450909 136.701837 
L 383.45697 133.393977 
L 386.46303 131.740046 
L 389.469091 130.913081 
L 392.475152 130.499599 
L 395.481212 130.292858 
L 398.487273 130.292858 
" clip-path="url(#p1f47be0703)" style="fill: none; stroke: #ff0000; stroke-width: 1.5; stroke-linecap: square"/>
   </g>
   <g id="line2d_15">
    <path d="M 73.832727 53.568 
L 76.838788 53.568 
L 79.844848 53.568 
L 82.850909 53.568 
L 85.85697 98.928 
L 88.86303 98.928 
L 91.869091 98.928 
L 94.875152 98.928 
L 97.881212 98.928 
L 100.887273 98.928 
L 103.893333 115.938 
L 106.899394 115.938 
L 109.905455 115.938 
L 112.911515 115.938 
L 115.917576 115.938 
L 118.923636 115.938 
L 121.929697 115.938 
L 124.935758 115.938 
L 127.941818 123.409406 
L 130.947879 123.409406 
L 133.953939 123.409406 
L 136.96 123.409406 
L 139.966061 123.409406 
L 142.972121 123.409406 
L 145.978182 123.409406 
L 148.984242 123.409406 
L 151.990303 123.409406 
L 154.996364 123.409406 
L 158.002424 126.921895 
L 161.008485 126.921895 
L 164.014545 126.921895 
L 167.020606 126.921895 
L 170.026667 126.921895 
L 173.032727 126.921895 
L 176.038788 126.921895 
L 179.044848 126.921895 
L 182.050909 126.921895 
L 185.05697 126.921895 
L 188.06303 126.921895 
L 191.069091 126.921895 
L 194.075152 128.624746 
L 197.081212 128.624746 
L 200.087273 128.624746 
L 203.093333 128.624746 
L 206.099394 128.624746 
L 209.105455 128.624746 
L 212.111515 128.624746 
L 215.117576 128.624746 
L 218.123636 128.624746 
L 221.129697 128.624746 
L 224.135758 128.624746 
L 227.141818 128.624746 
L 230.147879 128.624746 
L 233.153939 128.624746 
L 236.16 129.463063 
L 239.166061 129.463063 
L 242.172121 129.463063 
L 245.178182 129.463063 
L 248.184242 129.463063 
L 251.190303 129.463063 
L 254.196364 129.463063 
L 257.202424 129.463063 
L 260.208485 129.463063 
L 263.214545 129.463063 
L 266.220606 129.463063 
L 269.226667 129.463063 
L 272.232727 129.463063 
L 275.238788 129.463063 
L 278.244848 129.463063 
L 281.250909 129.463063 
L 284.25697 129.878971 
L 287.26303 129.878971 
L 290.269091 129.878971 
L 293.275152 129.878971 
L 296.281212 129.878971 
L 299.287273 129.878971 
L 302.293333 129.878971 
L 305.299394 129.878971 
L 308.305455 129.878971 
L 311.311515 129.878971 
L 314.317576 129.878971 
L 317.323636 129.878971 
L 320.329697 129.878971 
L 323.335758 129.878971 
L 326.341818 129.878971 
L 329.347879 129.878971 
L 332.353939 129.878971 
L 335.36 129.878971 
L 338.366061 130.086116 
L 341.372121 130.086116 
L 344.378182 130.086116 
L 347.384242 130.086116 
L 350.390303 130.086116 
L 353.396364 130.086116 
L 356.402424 130.086116 
L 359.408485 130.086116 
L 362.414545 130.086116 
L 365.420606 130.086116 
L 368.426667 130.086116 
L 371.432727 130.086116 
L 374.438788 130.086116 
L 377.444848 130.086116 
L 380.450909 130.086116 
L 383.45697 130.086116 
L 386.46303 130.086116 
L 389.469091 130.086116 
L 392.475152 130.086116 
L 395.481212 130.086116 
L 398.487273 130.189487 
" clip-path="url(#p1f47be0703)" style="fill: none; stroke: #bfbf00; stroke-width: 1.5; stroke-linecap: square"/>
   </g>
   <g id="patch_3">
    <path d="M 57.6 307.584 
L 57.6 41.472 
" style="fill: none; stroke: #000000; stroke-width: 0.8; stroke-linejoin: miter; stroke-linecap: square"/>
   </g>
   <g id="patch_4">
    <path d="M 414.72 307.584 
L 414.72 41.472 
" style="fill: none; stroke: #000000; stroke-width: 0.8; stroke-linejoin: miter; stroke-linecap: square"/>
   </g>
   <g id="patch_5">
    <path d="M 57.6 307.584 
L 414.72 307.584 
" style="fill: none; stroke: #000000; stroke-width: 0.8; stroke-linejoin: miter; stroke-linecap: square"/>
   </g>
   <g id="patch_6">
    <path d="M 57.6 41.472 
L 414.72 41.472 
" style="fill: none; stroke: #000000; stroke-width: 0.8; stroke-linejoin: miter; stroke-linecap: square"/>
   </g>
  </g>
 </g>
 <defs>
  <clipPath id="p1f47be0703">
   <rect x="57.6" y="41.472" width="357.12" height="266.112"/>
  </clipPath>
 </defs>
</svg>
