<?xml version="1.0" encoding="utf-8" standalone="no"?>
<!DOCTYPE svg PUBLIC "-//W3C//DTD SVG 1.1//EN"
  "http://www.w3.org/Graphics/SVG/1.1/DTD/svg11.dtd">
<svg xmlns:xlink="http://www.w3.org/1999/xlink" width="460.8pt" height="345.6pt" viewBox="0 0 460.8 345.6" xmlns="http://www.w3.org/2000/svg" version="1.1">
 <metadata>
  <rdf:RDF xmlns:dc="http://purl.org/dc/elements/1.1/" xmlns:cc="http://creativecommons.org/ns#" xmlns:rdf="http://www.w3.org/1999/02/22-rdf-syntax-ns#">
   <cc:Work>
    <dc:type rdf:resource="http://purl.org/dc/dcmitype/StillImage"/>
    <dc:date>2024-04-25T01:14:44.866581</dc:date>
    <dc:format>image/svg+xml</dc:format>
    <dc:creator>
     <cc:Agent>
      <dc:title>Matplotlib v3.6.1, https://matplotlib.org/</dc:title>
     </cc:Agent>
    </dc:creator>
   </cc:Work>
  </rdf:RDF>
 </metadata>
 <defs>
  <style type="text/css">*{stroke-linejoin: round; stroke-linecap: butt}</style>
 </defs>
 <g id="figure_1">
  <g id="patch_1">
   <path d="M 0 345.6 
L 460.8 345.6 
L 460.8 0 
L 0 0 
z
" style="fill: #ffffff"/>
  </g>
  <g id="axes_1">
   <g id="patch_2">
    <path d="M 57.6 307.584 
L 414.72 307.584 
L 414.72 41.472 
L 57.6 41.472 
z
" style="fill: #ffffff"/>
   </g>
   <g id="matplotlib.axis_1">
    <g id="xtick_1">
     <g id="line2d_1">
      <defs>
       <path id="mb3b784a064" d="M 0 0 
L 0 3.5 
" style="stroke: #000000; stroke-width: 0.8"/>
      </defs>
      <g>
       <use xlink:href="#mb3b784a064" x="73.832727" y="307.584" style="stroke: #000000; stroke-width: 0.8"/>
      </g>
     </g>
     <g id="text_1">
      <!-- 0 -->
      <g transform="translate(70.651477 322.182437) scale(0.1 -0.1)">
       <defs>
        <path id="DejaVuSans-30" d="M 2034 4250 
Q 1547 4250 1301 3770 
Q 1056 3291 1056 2328 
Q 1056 1369 1301 889 
Q 1547 409 2034 409 
Q 2525 409 2770 889 
Q 3016 1369 3016 2328 
Q 3016 3291 2770 3770 
Q 2525 4250 2034 4250 
z
M 2034 4750 
Q 2819 4750 3233 4129 
Q 3647 3509 3647 2328 
Q 3647 1150 3233 529 
Q 2819 -91 2034 -91 
Q 1250 -91 836 529 
Q 422 1150 422 2328 
Q 422 3509 836 4129 
Q 1250 4750 2034 4750 
z
" transform="scale(0.015625)"/>
       </defs>
       <use xlink:href="#DejaVuSans-30"/>
      </g>
     </g>
    </g>
    <g id="xtick_2">
     <g id="line2d_2">
      <g>
       <use xlink:href="#mb3b784a064" x="146.788805" y="307.584" style="stroke: #000000; stroke-width: 0.8"/>
      </g>
     </g>
     <g id="text_2">
      <!-- 20 -->
      <g transform="translate(140.426305 322.182437) scale(0.1 -0.1)">
       <defs>
        <path id="DejaVuSans-32" d="M 1228 531 
L 3431 531 
L 3431 0 
L 469 0 
L 469 531 
Q 828 903 1448 1529 
Q 2069 2156 2228 2338 
Q 2531 2678 2651 2914 
Q 2772 3150 2772 3378 
Q 2772 3750 2511 3984 
Q 2250 4219 1831 4219 
Q 1534 4219 1204 4116 
Q 875 4013 500 3803 
L 500 4441 
Q 881 4594 1212 4672 
Q 1544 4750 1819 4750 
Q 2544 4750 2975 4387 
Q 3406 4025 3406 3419 
Q 3406 3131 3298 2873 
Q 3191 2616 2906 2266 
Q 2828 2175 2409 1742 
Q 1991 1309 1228 531 
z
" transform="scale(0.015625)"/>
       </defs>
       <use xlink:href="#DejaVuSans-32"/>
       <use xlink:href="#DejaVuSans-30" x="63.623047"/>
      </g>
     </g>
    </g>
    <g id="xtick_3">
     <g id="line2d_3">
      <g>
       <use xlink:href="#mb3b784a064" x="219.744883" y="307.584" style="stroke: #000000; stroke-width: 0.8"/>
      </g>
     </g>
     <g id="text_3">
      <!-- 40 -->
      <g transform="translate(213.382383 322.182437) scale(0.1 -0.1)">
       <defs>
        <path id="DejaVuSans-34" d="M 2419 4116 
L 825 1625 
L 2419 1625 
L 2419 4116 
z
M 2253 4666 
L 3047 4666 
L 3047 1625 
L 3713 1625 
L 3713 1100 
L 3047 1100 
L 3047 0 
L 2419 0 
L 2419 1100 
L 313 1100 
L 313 1709 
L 2253 4666 
z
" transform="scale(0.015625)"/>
       </defs>
       <use xlink:href="#DejaVuSans-34"/>
       <use xlink:href="#DejaVuSans-30" x="63.623047"/>
      </g>
     </g>
    </g>
    <g id="xtick_4">
     <g id="line2d_4">
      <g>
       <use xlink:href="#mb3b784a064" x="292.70096" y="307.584" style="stroke: #000000; stroke-width: 0.8"/>
      </g>
     </g>
     <g id="text_4">
      <!-- 60 -->
      <g transform="translate(286.33846 322.182437) scale(0.1 -0.1)">
       <defs>
        <path id="DejaVuSans-36" d="M 2113 2584 
Q 1688 2584 1439 2293 
Q 1191 2003 1191 1497 
Q 1191 994 1439 701 
Q 1688 409 2113 409 
Q 2538 409 2786 701 
Q 3034 994 3034 1497 
Q 3034 2003 2786 2293 
Q 2538 2584 2113 2584 
z
M 3366 4563 
L 3366 3988 
Q 3128 4100 2886 4159 
Q 2644 4219 2406 4219 
Q 1781 4219 1451 3797 
Q 1122 3375 1075 2522 
Q 1259 2794 1537 2939 
Q 1816 3084 2150 3084 
Q 2853 3084 3261 2657 
Q 3669 2231 3669 1497 
Q 3669 778 3244 343 
Q 2819 -91 2113 -91 
Q 1303 -91 875 529 
Q 447 1150 447 2328 
Q 447 3434 972 4092 
Q 1497 4750 2381 4750 
Q 2619 4750 2861 4703 
Q 3103 4656 3366 4563 
z
" transform="scale(0.015625)"/>
       </defs>
       <use xlink:href="#DejaVuSans-36"/>
       <use xlink:href="#DejaVuSans-30" x="63.623047"/>
      </g>
     </g>
    </g>
    <g id="xtick_5">
     <g id="line2d_5">
      <g>
       <use xlink:href="#mb3b784a064" x="365.657038" y="307.584" style="stroke: #000000; stroke-width: 0.8"/>
      </g>
     </g>
     <g id="text_5">
      <!-- 80 -->
      <g transform="translate(359.294538 322.182437) scale(0.1 -0.1)">
       <defs>
        <path id="DejaVuSans-38" d="M 2034 2216 
Q 1584 2216 1326 1975 
Q 1069 1734 1069 1313 
Q 1069 891 1326 650 
Q 1584 409 2034 409 
Q 2484 409 2743 651 
Q 3003 894 3003 1313 
Q 3003 1734 2745 1975 
Q 2488 2216 2034 2216 
z
M 1403 2484 
Q 997 2584 770 2862 
Q 544 3141 544 3541 
Q 544 4100 942 4425 
Q 1341 4750 2034 4750 
Q 2731 4750 3128 4425 
Q 3525 4100 3525 3541 
Q 3525 3141 3298 2862 
Q 3072 2584 2669 2484 
Q 3125 2378 3379 2068 
Q 3634 1759 3634 1313 
Q 3634 634 3220 271 
Q 2806 -91 2034 -91 
Q 1263 -91 848 271 
Q 434 634 434 1313 
Q 434 1759 690 2068 
Q 947 2378 1403 2484 
z
M 1172 3481 
Q 1172 3119 1398 2916 
Q 1625 2713 2034 2713 
Q 2441 2713 2670 2916 
Q 2900 3119 2900 3481 
Q 2900 3844 2670 4047 
Q 2441 4250 2034 4250 
Q 1625 4250 1398 4047 
Q 1172 3844 1172 3481 
z
" transform="scale(0.015625)"/>
       </defs>
       <use xlink:href="#DejaVuSans-38"/>
       <use xlink:href="#DejaVuSans-30" x="63.623047"/>
      </g>
     </g>
    </g>
    <g id="text_6">
     <!-- Time -->
     <g transform="translate(223.926406 335.860562) scale(0.1 -0.1)">
      <defs>
       <path id="DejaVuSans-54" d="M -19 4666 
L 3928 4666 
L 3928 4134 
L 2272 4134 
L 2272 0 
L 1638 0 
L 1638 4134 
L -19 4134 
L -19 4666 
z
" transform="scale(0.015625)"/>
       <path id="DejaVuSans-69" d="M 603 3500 
L 1178 3500 
L 1178 0 
L 603 0 
L 603 3500 
z
M 603 4863 
L 1178 4863 
L 1178 4134 
L 603 4134 
L 603 4863 
z
" transform="scale(0.015625)"/>
       <path id="DejaVuSans-6d" d="M 3328 2828 
Q 3544 3216 3844 3400 
Q 4144 3584 4550 3584 
Q 5097 3584 5394 3201 
Q 5691 2819 5691 2113 
L 5691 0 
L 5113 0 
L 5113 2094 
Q 5113 2597 4934 2840 
Q 4756 3084 4391 3084 
Q 3944 3084 3684 2787 
Q 3425 2491 3425 1978 
L 3425 0 
L 2847 0 
L 2847 2094 
Q 2847 2600 2669 2842 
Q 2491 3084 2119 3084 
Q 1678 3084 1418 2786 
Q 1159 2488 1159 1978 
L 1159 0 
L 581 0 
L 581 3500 
L 1159 3500 
L 1159 2956 
Q 1356 3278 1631 3431 
Q 1906 3584 2284 3584 
Q 2666 3584 2933 3390 
Q 3200 3197 3328 2828 
z
" transform="scale(0.015625)"/>
       <path id="DejaVuSans-65" d="M 3597 1894 
L 3597 1613 
L 953 1613 
Q 991 1019 1311 708 
Q 1631 397 2203 397 
Q 2534 397 2845 478 
Q 3156 559 3463 722 
L 3463 178 
Q 3153 47 2828 -22 
Q 2503 -91 2169 -91 
Q 1331 -91 842 396 
Q 353 884 353 1716 
Q 353 2575 817 3079 
Q 1281 3584 2069 3584 
Q 2775 3584 3186 3129 
Q 3597 2675 3597 1894 
z
M 3022 2063 
Q 3016 2534 2758 2815 
Q 2500 3097 2075 3097 
Q 1594 3097 1305 2825 
Q 1016 2553 972 2059 
L 3022 2063 
z
" transform="scale(0.015625)"/>
      </defs>
      <use xlink:href="#DejaVuSans-54"/>
      <use xlink:href="#DejaVuSans-69" x="57.958984"/>
      <use xlink:href="#DejaVuSans-6d" x="85.742188"/>
      <use xlink:href="#DejaVuSans-65" x="183.154297"/>
     </g>
    </g>
   </g>
   <g id="matplotlib.axis_2">
    <g id="ytick_1">
     <g id="line2d_6">
      <defs>
       <path id="m6a017b313b" d="M 0 0 
L -3.5 0 
" style="stroke: #000000; stroke-width: 0.8"/>
      </defs>
      <g>
       <use xlink:href="#m6a017b313b" x="57.6" y="295.488" style="stroke: #000000; stroke-width: 0.8"/>
      </g>
     </g>
     <g id="text_7">
      <!-- 0 -->
      <g transform="translate(44.2375 299.287219) scale(0.1 -0.1)">
       <use xlink:href="#DejaVuSans-30"/>
      </g>
     </g>
    </g>
    <g id="ytick_2">
     <g id="line2d_7">
      <g>
       <use xlink:href="#m6a017b313b" x="57.6" y="247.104" style="stroke: #000000; stroke-width: 0.8"/>
      </g>
     </g>
     <g id="text_8">
      <!-- L -->
      <g transform="translate(45.028125 250.903219) scale(0.1 -0.1)">
       <defs>
        <path id="DejaVuSans-4c" d="M 628 4666 
L 1259 4666 
L 1259 531 
L 3531 531 
L 3531 0 
L 628 0 
L 628 4666 
z
" transform="scale(0.015625)"/>
       </defs>
       <use xlink:href="#DejaVuSans-4c"/>
      </g>
     </g>
    </g>
    <g id="ytick_3">
     <g id="line2d_8">
      <g>
       <use xlink:href="#m6a017b313b" x="57.6" y="198.72" style="stroke: #000000; stroke-width: 0.8"/>
      </g>
     </g>
     <g id="text_9">
      <!-- 0.4 -->
      <g transform="translate(34.696875 202.519219) scale(0.1 -0.1)">
       <defs>
        <path id="DejaVuSans-2e" d="M 684 794 
L 1344 794 
L 1344 0 
L 684 0 
L 684 794 
z
" transform="scale(0.015625)"/>
       </defs>
       <use xlink:href="#DejaVuSans-30"/>
       <use xlink:href="#DejaVuSans-2e" x="63.623047"/>
       <use xlink:href="#DejaVuSans-34" x="95.410156"/>
      </g>
     </g>
    </g>
    <g id="ytick_4">
     <g id="line2d_9">
      <g>
       <use xlink:href="#m6a017b313b" x="57.6" y="150.336" style="stroke: #000000; stroke-width: 0.8"/>
      </g>
     </g>
     <g id="text_10">
      <!-- 0.6 -->
      <g transform="translate(34.696875 154.135219) scale(0.1 -0.1)">
       <use xlink:href="#DejaVuSans-30"/>
       <use xlink:href="#DejaVuSans-2e" x="63.623047"/>
       <use xlink:href="#DejaVuSans-36" x="95.410156"/>
      </g>
     </g>
    </g>
    <g id="ytick_5">
     <g id="line2d_10">
      <g>
       <use xlink:href="#m6a017b313b" x="57.6" y="101.952" style="stroke: #000000; stroke-width: 0.8"/>
      </g>
     </g>
     <g id="text_11">
      <!-- U -->
      <g transform="translate(43.28125 105.751219) scale(0.1 -0.1)">
       <defs>
        <path id="DejaVuSans-55" d="M 556 4666 
L 1191 4666 
L 1191 1831 
Q 1191 1081 1462 751 
Q 1734 422 2344 422 
Q 2950 422 3222 751 
Q 3494 1081 3494 1831 
L 3494 4666 
L 4128 4666 
L 4128 1753 
Q 4128 841 3676 375 
Q 3225 -91 2344 -91 
Q 1459 -91 1007 375 
Q 556 841 556 1753 
L 556 4666 
z
" transform="scale(0.015625)"/>
       </defs>
       <use xlink:href="#DejaVuSans-55"/>
      </g>
     </g>
    </g>
    <g id="ytick_6">
     <g id="line2d_11">
      <g>
       <use xlink:href="#m6a017b313b" x="57.6" y="53.568" style="stroke: #000000; stroke-width: 0.8"/>
      </g>
     </g>
     <g id="text_12">
      <!-- 1 -->
      <g transform="translate(44.2375 57.367219) scale(0.1 -0.1)">
       <defs>
        <path id="DejaVuSans-31" d="M 794 531 
L 1825 531 
L 1825 4091 
L 703 3866 
L 703 4441 
L 1819 4666 
L 2450 4666 
L 2450 531 
L 3481 531 
L 3481 0 
L 794 0 
L 794 531 
z
" transform="scale(0.015625)"/>
       </defs>
       <use xlink:href="#DejaVuSans-31"/>
      </g>
     </g>
    </g>
    <g id="text_13">
     <!-- Opinion value -->
     <g transform="translate(28.617187 209.060031) rotate(-90) scale(0.1 -0.1)">
      <defs>
       <path id="DejaVuSans-4f" d="M 2522 4238 
Q 1834 4238 1429 3725 
Q 1025 3213 1025 2328 
Q 1025 1447 1429 934 
Q 1834 422 2522 422 
Q 3209 422 3611 934 
Q 4013 1447 4013 2328 
Q 4013 3213 3611 3725 
Q 3209 4238 2522 4238 
z
M 2522 4750 
Q 3503 4750 4090 4092 
Q 4678 3434 4678 2328 
Q 4678 1225 4090 567 
Q 3503 -91 2522 -91 
Q 1538 -91 948 565 
Q 359 1222 359 2328 
Q 359 3434 948 4092 
Q 1538 4750 2522 4750 
z
" transform="scale(0.015625)"/>
       <path id="DejaVuSans-70" d="M 1159 525 
L 1159 -1331 
L 581 -1331 
L 581 3500 
L 1159 3500 
L 1159 2969 
Q 1341 3281 1617 3432 
Q 1894 3584 2278 3584 
Q 2916 3584 3314 3078 
Q 3713 2572 3713 1747 
Q 3713 922 3314 415 
Q 2916 -91 2278 -91 
Q 1894 -91 1617 61 
Q 1341 213 1159 525 
z
M 3116 1747 
Q 3116 2381 2855 2742 
Q 2594 3103 2138 3103 
Q 1681 3103 1420 2742 
Q 1159 2381 1159 1747 
Q 1159 1113 1420 752 
Q 1681 391 2138 391 
Q 2594 391 2855 752 
Q 3116 1113 3116 1747 
z
" transform="scale(0.015625)"/>
       <path id="DejaVuSans-6e" d="M 3513 2113 
L 3513 0 
L 2938 0 
L 2938 2094 
Q 2938 2591 2744 2837 
Q 2550 3084 2163 3084 
Q 1697 3084 1428 2787 
Q 1159 2491 1159 1978 
L 1159 0 
L 581 0 
L 581 3500 
L 1159 3500 
L 1159 2956 
Q 1366 3272 1645 3428 
Q 1925 3584 2291 3584 
Q 2894 3584 3203 3211 
Q 3513 2838 3513 2113 
z
" transform="scale(0.015625)"/>
       <path id="DejaVuSans-6f" d="M 1959 3097 
Q 1497 3097 1228 2736 
Q 959 2375 959 1747 
Q 959 1119 1226 758 
Q 1494 397 1959 397 
Q 2419 397 2687 759 
Q 2956 1122 2956 1747 
Q 2956 2369 2687 2733 
Q 2419 3097 1959 3097 
z
M 1959 3584 
Q 2709 3584 3137 3096 
Q 3566 2609 3566 1747 
Q 3566 888 3137 398 
Q 2709 -91 1959 -91 
Q 1206 -91 779 398 
Q 353 888 353 1747 
Q 353 2609 779 3096 
Q 1206 3584 1959 3584 
z
" transform="scale(0.015625)"/>
       <path id="DejaVuSans-20" transform="scale(0.015625)"/>
       <path id="DejaVuSans-76" d="M 191 3500 
L 800 3500 
L 1894 563 
L 2988 3500 
L 3597 3500 
L 2284 0 
L 1503 0 
L 191 3500 
z
" transform="scale(0.015625)"/>
       <path id="DejaVuSans-61" d="M 2194 1759 
Q 1497 1759 1228 1600 
Q 959 1441 959 1056 
Q 959 750 1161 570 
Q 1363 391 1709 391 
Q 2188 391 2477 730 
Q 2766 1069 2766 1631 
L 2766 1759 
L 2194 1759 
z
M 3341 1997 
L 3341 0 
L 2766 0 
L 2766 531 
Q 2569 213 2275 61 
Q 1981 -91 1556 -91 
Q 1019 -91 701 211 
Q 384 513 384 1019 
Q 384 1609 779 1909 
Q 1175 2209 1959 2209 
L 2766 2209 
L 2766 2266 
Q 2766 2663 2505 2880 
Q 2244 3097 1772 3097 
Q 1472 3097 1187 3025 
Q 903 2953 641 2809 
L 641 3341 
Q 956 3463 1253 3523 
Q 1550 3584 1831 3584 
Q 2591 3584 2966 3190 
Q 3341 2797 3341 1997 
z
" transform="scale(0.015625)"/>
       <path id="DejaVuSans-6c" d="M 603 4863 
L 1178 4863 
L 1178 0 
L 603 0 
L 603 4863 
z
" transform="scale(0.015625)"/>
       <path id="DejaVuSans-75" d="M 544 1381 
L 544 3500 
L 1119 3500 
L 1119 1403 
Q 1119 906 1312 657 
Q 1506 409 1894 409 
Q 2359 409 2629 706 
Q 2900 1003 2900 1516 
L 2900 3500 
L 3475 3500 
L 3475 0 
L 2900 0 
L 2900 538 
Q 2691 219 2414 64 
Q 2138 -91 1772 -91 
Q 1169 -91 856 284 
Q 544 659 544 1381 
z
M 1991 3584 
L 1991 3584 
z
" transform="scale(0.015625)"/>
      </defs>
      <use xlink:href="#DejaVuSans-4f"/>
      <use xlink:href="#DejaVuSans-70" x="78.710938"/>
      <use xlink:href="#DejaVuSans-69" x="142.1875"/>
      <use xlink:href="#DejaVuSans-6e" x="169.970703"/>
      <use xlink:href="#DejaVuSans-69" x="233.349609"/>
      <use xlink:href="#DejaVuSans-6f" x="261.132812"/>
      <use xlink:href="#DejaVuSans-6e" x="322.314453"/>
      <use xlink:href="#DejaVuSans-20" x="385.693359"/>
      <use xlink:href="#DejaVuSans-76" x="417.480469"/>
      <use xlink:href="#DejaVuSans-61" x="476.660156"/>
      <use xlink:href="#DejaVuSans-6c" x="537.939453"/>
      <use xlink:href="#DejaVuSans-75" x="565.722656"/>
      <use xlink:href="#DejaVuSans-65" x="629.101562"/>
     </g>
    </g>
   </g>
   <g id="line2d_12">
    <path d="M 57.6 101.952 
L 414.72 101.952 
" clip-path="url(#pce2d5bbc7a)" style="fill: none; stroke-dasharray: 5.55,2.4; stroke-dashoffset: 0; stroke: #ffc0cb; stroke-width: 1.5"/>
   </g>
   <g id="line2d_13">
    <path d="M 57.6 247.104 
L 414.72 247.104 
" clip-path="url(#pce2d5bbc7a)" style="fill: none; stroke-dasharray: 5.55,2.4; stroke-dashoffset: 0; stroke: #ffc0cb; stroke-width: 1.5"/>
   </g>
   <g id="line2d_14">
    <path d="M 73.832727 295.488 
L 77.480531 271.296 
L 81.128335 271.296 
L 84.776139 271.296 
L 88.423943 271.296 
L 92.071747 271.296 
L 95.719551 271.296 
L 99.367354 271.296 
L 103.015158 271.296 
L 106.662962 271.296 
L 110.310766 264.492 
L 113.95857 264.492 
L 117.606374 264.492 
L 121.254178 264.492 
L 124.901982 264.492 
L 128.549785 264.492 
L 132.197589 264.492 
L 135.845393 264.492 
L 139.493197 264.492 
L 143.141001 264.492 
L 146.788805 258.987375 
L 150.436609 258.987375 
L 154.084413 258.987375 
L 157.732217 258.987375 
L 161.38002 258.987375 
L 165.027824 258.987375 
L 168.675628 258.987375 
L 172.323432 258.987375 
L 175.971236 258.987375 
L 179.61904 258.987375 
L 183.266844 258.987375 
L 186.914648 253.709402 
L 190.562451 253.709402 
L 194.210255 253.709402 
L 197.858059 253.709402 
L 201.505863 253.709402 
L 205.153667 253.709402 
L 208.801471 253.709402 
L 212.449275 253.709402 
L 216.097079 253.709402 
L 219.744883 253.709402 
L 223.392686 253.709402 
L 227.04049 253.709402 
L 230.688294 253.709402 
L 234.336098 251.152008 
L 237.983902 251.152008 
L 241.631706 251.152008 
L 245.27951 251.152008 
L 248.927314 251.152008 
L 252.575117 251.152008 
L 256.222921 251.152008 
L 259.870725 251.152008 
L 263.518529 251.152008 
L 267.166333 251.152008 
L 270.814137 251.152008 
L 274.461941 251.152008 
L 278.109745 251.152008 
L 281.757549 251.152008 
L 285.405352 249.934496 
L 289.053156 249.934496 
L 292.70096 249.934496 
L 296.348764 249.934496 
L 299.996568 249.934496 
L 303.644372 249.934496 
L 307.292176 249.934496 
L 310.93998 249.934496 
L 314.587783 249.934496 
L 318.235587 249.934496 
L 321.883391 249.934496 
L 325.531195 249.934496 
L 329.178999 249.934496 
L 332.826803 249.934496 
L 336.474607 249.934496 
L 340.122411 248.756475 
L 343.770215 248.756475 
L 347.418018 248.756475 
L 351.065822 248.756475 
L 354.713626 248.756475 
L 358.36143 248.756475 
L 362.009234 248.756475 
L 365.657038 248.756475 
L 369.304842 248.756475 
L 372.952646 248.756475 
L 376.600449 248.756475 
L 380.248253 248.756475 
L 383.896057 248.756475 
L 387.543861 248.756475 
L 391.191665 248.756475 
L 394.839469 248.756475 
L 398.487273 248.756475 
" clip-path="url(#pce2d5bbc7a)" style="fill: none; stroke: #90ee90; stroke-width: 1.5; stroke-linecap: square"/>
   </g>
   <g id="line2d_15">
    <path d="M 73.832727 247.104 
L 77.480531 247.104 
L 81.128335 247.104 
L 84.776139 247.104 
L 88.423943 259.2 
L 92.071747 216.864 
L 95.719551 216.864 
L 99.367354 244.08 
L 103.015158 257.688 
L 106.662962 257.688 
L 110.310766 257.688 
L 113.95857 257.688 
L 117.606374 257.688 
L 121.254178 261.09 
L 124.901982 220.455 
L 128.549785 220.455 
L 132.197589 242.4735 
L 135.845393 253.48275 
L 139.493197 253.48275 
L 143.141001 253.48275 
L 146.788805 253.48275 
L 150.436609 253.48275 
L 154.084413 253.48275 
L 157.732217 256.235063 
L 161.38002 216.763594 
L 165.027824 216.763594 
L 168.675628 237.875484 
L 172.323432 248.43143 
L 175.971236 248.43143 
L 179.61904 248.43143 
L 183.266844 248.43143 
L 186.914648 248.43143 
L 190.562451 248.43143 
L 194.210255 248.43143 
L 197.858059 251.070416 
L 201.505863 212.791087 
L 205.153667 212.791087 
L 208.801471 233.250245 
L 212.449275 243.479823 
L 216.097079 248.594613 
L 219.744883 248.594613 
L 223.392686 248.594613 
L 227.04049 248.594613 
L 230.688294 248.594613 
L 234.336098 248.594613 
L 237.983902 248.594613 
L 241.631706 248.594613 
L 245.27951 249.87331 
L 248.927314 212.191634 
L 252.575117 212.191634 
L 256.222921 231.671821 
L 259.870725 241.411914 
L 263.518529 246.281961 
L 267.166333 248.716984 
L 270.814137 248.716984 
L 274.461941 248.716984 
L 278.109745 248.716984 
L 281.757549 248.716984 
L 285.405352 248.716984 
L 289.053156 248.716984 
L 292.70096 248.716984 
L 296.348764 249.32574 
L 299.996568 212.237828 
L 303.644372 212.237828 
L 307.292176 231.086162 
L 310.93998 240.510329 
L 314.587783 245.222412 
L 318.235587 247.578454 
L 321.883391 247.578454 
L 325.531195 247.578454 
L 329.178999 247.578454 
L 332.826803 247.578454 
L 336.474607 247.578454 
L 340.122411 247.578454 
L 343.770215 247.578454 
L 347.418018 247.578454 
L 351.065822 248.167465 
L 354.713626 211.371963 
L 358.36143 211.371963 
L 362.009234 230.064219 
L 365.657038 239.410347 
L 369.304842 244.083411 
L 372.952646 246.419943 
L 376.600449 247.588209 
L 380.248253 247.588209 
L 383.896057 247.588209 
L 387.543861 247.588209 
L 391.191665 247.588209 
L 394.839469 247.588209 
L 398.487273 247.588209 
" clip-path="url(#pce2d5bbc7a)" style="fill: none; stroke: #bfbf00; stroke-width: 1.5; stroke-linecap: square"/>
   </g>
   <g id="line2d_16">
    <path d="M 73.832727 101.952 
L 77.480531 101.952 
L 81.128335 101.952 
L 84.776139 174.528 
L 88.423943 174.528 
L 92.071747 174.528 
L 95.719551 126.144 
L 99.367354 126.144 
L 103.015158 126.144 
L 106.662962 101.952 
L 110.310766 101.952 
L 113.95857 101.952 
L 117.606374 179.82 
L 121.254178 179.82 
L 124.901982 179.82 
L 128.549785 134.838 
L 132.197589 134.838 
L 135.845393 134.838 
L 139.493197 112.347 
L 143.141001 101.1015 
L 146.788805 101.1015 
L 150.436609 101.1015 
L 154.084413 177.292125 
L 157.732217 177.292125 
L 161.38002 177.292125 
L 165.027824 136.385438 
L 168.675628 136.385438 
L 172.323432 136.385438 
L 175.971236 115.932094 
L 179.61904 105.705422 
L 183.266844 100.592086 
L 186.914648 100.592086 
L 190.562451 100.592086 
L 194.210255 174.511758 
L 197.858059 174.511758 
L 201.505863 174.511758 
L 205.153667 136.273588 
L 208.801471 136.273588 
L 212.449275 136.273588 
L 216.097079 136.273588 
L 219.744883 117.154503 
L 223.392686 107.59496 
L 227.04049 102.815189 
L 230.688294 100.425304 
L 234.336098 100.425304 
L 237.983902 100.425304 
L 241.631706 174.509958 
L 245.27951 174.509958 
L 248.927314 174.509958 
L 252.575117 136.87016 
L 256.222921 136.87016 
L 259.870725 136.87016 
L 263.518529 136.87016 
L 267.166333 136.87016 
L 270.814137 118.05026 
L 274.461941 108.64031 
L 278.109745 103.935336 
L 281.757549 101.582848 
L 285.405352 101.582848 
L 289.053156 101.582848 
L 292.70096 175.149916 
L 296.348764 175.149916 
L 299.996568 175.149916 
L 303.644372 137.77826 
L 307.292176 137.77826 
L 310.93998 137.77826 
L 314.587783 137.77826 
L 318.235587 137.77826 
L 321.883391 119.092432 
L 325.531195 109.749518 
L 329.178999 105.078061 
L 332.826803 102.742333 
L 336.474607 101.574469 
L 340.122411 101.574469 
L 343.770215 101.574469 
L 347.418018 174.576461 
L 351.065822 174.576461 
L 354.713626 174.576461 
L 358.36143 137.783499 
L 362.009234 137.783499 
L 365.657038 137.783499 
L 369.304842 137.783499 
L 372.952646 137.783499 
L 376.600449 137.783499 
L 380.248253 119.387018 
L 383.896057 110.188777 
L 387.543861 105.589657 
L 391.191665 103.290097 
L 394.839469 102.140317 
L 398.487273 101.565427 
" clip-path="url(#pce2d5bbc7a)" style="fill: none; stroke: #ff0000; stroke-width: 1.5; stroke-linecap: square"/>
   </g>
   <g id="line2d_17">
    <path d="M 73.832727 53.568 
L 77.480531 53.568 
L 81.128335 77.76 
L 84.776139 77.76 
L 88.423943 77.76 
L 92.071747 77.76 
L 95.719551 77.76 
L 99.367354 77.76 
L 103.015158 77.76 
L 106.662962 77.76 
L 110.310766 77.76 
L 113.95857 89.856 
L 117.606374 89.856 
L 121.254178 89.856 
L 124.901982 89.856 
L 128.549785 89.856 
L 132.197589 89.856 
L 135.845393 89.856 
L 139.493197 89.856 
L 143.141001 89.856 
L 146.788805 89.856 
L 150.436609 95.47875 
L 154.084413 95.47875 
L 157.732217 95.47875 
L 161.38002 95.47875 
L 165.027824 95.47875 
L 168.675628 95.47875 
L 172.323432 95.47875 
L 175.971236 95.47875 
L 179.61904 95.47875 
L 183.266844 95.47875 
L 186.914648 95.47875 
L 190.562451 98.035418 
L 194.210255 98.035418 
L 197.858059 98.035418 
L 201.505863 98.035418 
L 205.153667 98.035418 
L 208.801471 98.035418 
L 212.449275 98.035418 
L 216.097079 98.035418 
L 219.744883 98.035418 
L 223.392686 98.035418 
L 227.04049 98.035418 
L 230.688294 98.035418 
L 234.336098 98.035418 
L 237.983902 99.230361 
L 241.631706 99.230361 
L 245.27951 99.230361 
L 248.927314 99.230361 
L 252.575117 99.230361 
L 256.222921 99.230361 
L 259.870725 99.230361 
L 263.518529 99.230361 
L 267.166333 99.230361 
L 270.814137 99.230361 
L 274.461941 99.230361 
L 278.109745 99.230361 
L 281.757549 99.230361 
L 285.405352 99.230361 
L 289.053156 100.406604 
L 292.70096 100.406604 
L 296.348764 100.406604 
L 299.996568 100.406604 
L 303.644372 100.406604 
L 307.292176 100.406604 
L 310.93998 100.406604 
L 314.587783 100.406604 
L 318.235587 100.406604 
L 321.883391 100.406604 
L 325.531195 100.406604 
L 329.178999 100.406604 
L 332.826803 100.406604 
L 336.474607 100.406604 
L 340.122411 100.406604 
L 343.770215 100.990537 
L 347.418018 100.990537 
L 351.065822 100.990537 
L 354.713626 100.990537 
L 358.36143 100.990537 
L 362.009234 100.990537 
L 365.657038 100.990537 
L 369.304842 100.990537 
L 372.952646 100.990537 
L 376.600449 100.990537 
L 380.248253 100.990537 
L 383.896057 100.990537 
L 387.543861 100.990537 
L 391.191665 100.990537 
L 394.839469 100.990537 
L 398.487273 100.990537 
" clip-path="url(#pce2d5bbc7a)" style="fill: none; stroke: #0000ff; stroke-width: 1.5; stroke-linecap: square"/>
   </g>
   <g id="patch_3">
    <path d="M 57.6 307.584 
L 57.6 41.472 
" style="fill: none; stroke: #000000; stroke-width: 0.8; stroke-linejoin: miter; stroke-linecap: square"/>
   </g>
   <g id="patch_4">
    <path d="M 414.72 307.584 
L 414.72 41.472 
" style="fill: none; stroke: #000000; stroke-width: 0.8; stroke-linejoin: miter; stroke-linecap: square"/>
   </g>
   <g id="patch_5">
    <path d="M 57.6 307.584 
L 414.72 307.584 
" style="fill: none; stroke: #000000; stroke-width: 0.8; stroke-linejoin: miter; stroke-linecap: square"/>
   </g>
   <g id="patch_6">
    <path d="M 57.6 41.472 
L 414.72 41.472 
" style="fill: none; stroke: #000000; stroke-width: 0.8; stroke-linejoin: miter; stroke-linecap: square"/>
   </g>
  </g>
 </g>
 <defs>
  <clipPath id="pce2d5bbc7a">
   <rect x="57.6" y="41.472" width="357.12" height="266.112"/>
  </clipPath>
 </defs>
</svg>
