<?xml version="1.0" encoding="utf-8" standalone="no"?>
<!DOCTYPE svg PUBLIC "-//W3C//DTD SVG 1.1//EN"
  "http://www.w3.org/Graphics/SVG/1.1/DTD/svg11.dtd">
<svg xmlns:xlink="http://www.w3.org/1999/xlink" width="460.8pt" height="345.6pt" viewBox="0 0 460.8 345.6" xmlns="http://www.w3.org/2000/svg" version="1.1">
 <metadata>
  <rdf:RDF xmlns:dc="http://purl.org/dc/elements/1.1/" xmlns:cc="http://creativecommons.org/ns#" xmlns:rdf="http://www.w3.org/1999/02/22-rdf-syntax-ns#">
   <cc:Work>
    <dc:type rdf:resource="http://purl.org/dc/dcmitype/StillImage"/>
    <dc:date>2024-04-16T19:30:14.214788</dc:date>
    <dc:format>image/svg+xml</dc:format>
    <dc:creator>
     <cc:Agent>
      <dc:title>Matplotlib v3.8.4, https://matplotlib.org/</dc:title>
     </cc:Agent>
    </dc:creator>
   </cc:Work>
  </rdf:RDF>
 </metadata>
 <defs>
  <style type="text/css">*{stroke-linejoin: round; stroke-linecap: butt}</style>
 </defs>
 <g id="figure_1">
  <g id="patch_1">
   <path d="M 0 345.6 
L 460.8 345.6 
L 460.8 0 
L 0 0 
z
" style="fill: #ffffff"/>
  </g>
  <g id="axes_1">
   <g id="patch_2">
    <path d="M 57.6 307.584 
L 414.72 307.584 
L 414.72 41.472 
L 57.6 41.472 
z
" style="fill: #ffffff"/>
   </g>
   <g id="matplotlib.axis_1">
    <g id="xtick_1">
     <g id="line2d_1">
      <defs>
       <path id="mb1d88f31ad" d="M 0 0 
L 0 3.5 
" style="stroke: #000000; stroke-width: 0.8"/>
      </defs>
      <g>
       <use xlink:href="#mb1d88f31ad" x="73.832727" y="307.584" style="stroke: #000000; stroke-width: 0.8"/>
      </g>
     </g>
     <g id="text_1">
      <!-- 0 -->
      <g transform="translate(70.651477 322.182437) scale(0.1 -0.1)">
       <defs>
        <path id="DejaVuSans-30" d="M 2034 4250 
Q 1547 4250 1301 3770 
Q 1056 3291 1056 2328 
Q 1056 1369 1301 889 
Q 1547 409 2034 409 
Q 2525 409 2770 889 
Q 3016 1369 3016 2328 
Q 3016 3291 2770 3770 
Q 2525 4250 2034 4250 
z
M 2034 4750 
Q 2819 4750 3233 4129 
Q 3647 3509 3647 2328 
Q 3647 1150 3233 529 
Q 2819 -91 2034 -91 
Q 1250 -91 836 529 
Q 422 1150 422 2328 
Q 422 3509 836 4129 
Q 1250 4750 2034 4750 
z
" transform="scale(0.015625)"/>
       </defs>
       <use xlink:href="#DejaVuSans-30"/>
      </g>
     </g>
    </g>
    <g id="xtick_2">
     <g id="line2d_2">
      <g>
       <use xlink:href="#mb1d88f31ad" x="132.860826" y="307.584" style="stroke: #000000; stroke-width: 0.8"/>
      </g>
     </g>
     <g id="text_2">
      <!-- 20 -->
      <g transform="translate(126.498326 322.182437) scale(0.1 -0.1)">
       <defs>
        <path id="DejaVuSans-32" d="M 1228 531 
L 3431 531 
L 3431 0 
L 469 0 
L 469 531 
Q 828 903 1448 1529 
Q 2069 2156 2228 2338 
Q 2531 2678 2651 2914 
Q 2772 3150 2772 3378 
Q 2772 3750 2511 3984 
Q 2250 4219 1831 4219 
Q 1534 4219 1204 4116 
Q 875 4013 500 3803 
L 500 4441 
Q 881 4594 1212 4672 
Q 1544 4750 1819 4750 
Q 2544 4750 2975 4387 
Q 3406 4025 3406 3419 
Q 3406 3131 3298 2873 
Q 3191 2616 2906 2266 
Q 2828 2175 2409 1742 
Q 1991 1309 1228 531 
z
" transform="scale(0.015625)"/>
       </defs>
       <use xlink:href="#DejaVuSans-32"/>
       <use xlink:href="#DejaVuSans-30" x="63.623047"/>
      </g>
     </g>
    </g>
    <g id="xtick_3">
     <g id="line2d_3">
      <g>
       <use xlink:href="#mb1d88f31ad" x="191.888926" y="307.584" style="stroke: #000000; stroke-width: 0.8"/>
      </g>
     </g>
     <g id="text_3">
      <!-- 40 -->
      <g transform="translate(185.526426 322.182437) scale(0.1 -0.1)">
       <defs>
        <path id="DejaVuSans-34" d="M 2419 4116 
L 825 1625 
L 2419 1625 
L 2419 4116 
z
M 2253 4666 
L 3047 4666 
L 3047 1625 
L 3713 1625 
L 3713 1100 
L 3047 1100 
L 3047 0 
L 2419 0 
L 2419 1100 
L 313 1100 
L 313 1709 
L 2253 4666 
z
" transform="scale(0.015625)"/>
       </defs>
       <use xlink:href="#DejaVuSans-34"/>
       <use xlink:href="#DejaVuSans-30" x="63.623047"/>
      </g>
     </g>
    </g>
    <g id="xtick_4">
     <g id="line2d_4">
      <g>
       <use xlink:href="#mb1d88f31ad" x="250.917025" y="307.584" style="stroke: #000000; stroke-width: 0.8"/>
      </g>
     </g>
     <g id="text_4">
      <!-- 60 -->
      <g transform="translate(244.554525 322.182437) scale(0.1 -0.1)">
       <defs>
        <path id="DejaVuSans-36" d="M 2113 2584 
Q 1688 2584 1439 2293 
Q 1191 2003 1191 1497 
Q 1191 994 1439 701 
Q 1688 409 2113 409 
Q 2538 409 2786 701 
Q 3034 994 3034 1497 
Q 3034 2003 2786 2293 
Q 2538 2584 2113 2584 
z
M 3366 4563 
L 3366 3988 
Q 3128 4100 2886 4159 
Q 2644 4219 2406 4219 
Q 1781 4219 1451 3797 
Q 1122 3375 1075 2522 
Q 1259 2794 1537 2939 
Q 1816 3084 2150 3084 
Q 2853 3084 3261 2657 
Q 3669 2231 3669 1497 
Q 3669 778 3244 343 
Q 2819 -91 2113 -91 
Q 1303 -91 875 529 
Q 447 1150 447 2328 
Q 447 3434 972 4092 
Q 1497 4750 2381 4750 
Q 2619 4750 2861 4703 
Q 3103 4656 3366 4563 
z
" transform="scale(0.015625)"/>
       </defs>
       <use xlink:href="#DejaVuSans-36"/>
       <use xlink:href="#DejaVuSans-30" x="63.623047"/>
      </g>
     </g>
    </g>
    <g id="xtick_5">
     <g id="line2d_5">
      <g>
       <use xlink:href="#mb1d88f31ad" x="309.945124" y="307.584" style="stroke: #000000; stroke-width: 0.8"/>
      </g>
     </g>
     <g id="text_5">
      <!-- 80 -->
      <g transform="translate(303.582624 322.182437) scale(0.1 -0.1)">
       <defs>
        <path id="DejaVuSans-38" d="M 2034 2216 
Q 1584 2216 1326 1975 
Q 1069 1734 1069 1313 
Q 1069 891 1326 650 
Q 1584 409 2034 409 
Q 2484 409 2743 651 
Q 3003 894 3003 1313 
Q 3003 1734 2745 1975 
Q 2488 2216 2034 2216 
z
M 1403 2484 
Q 997 2584 770 2862 
Q 544 3141 544 3541 
Q 544 4100 942 4425 
Q 1341 4750 2034 4750 
Q 2731 4750 3128 4425 
Q 3525 4100 3525 3541 
Q 3525 3141 3298 2862 
Q 3072 2584 2669 2484 
Q 3125 2378 3379 2068 
Q 3634 1759 3634 1313 
Q 3634 634 3220 271 
Q 2806 -91 2034 -91 
Q 1263 -91 848 271 
Q 434 634 434 1313 
Q 434 1759 690 2068 
Q 947 2378 1403 2484 
z
M 1172 3481 
Q 1172 3119 1398 2916 
Q 1625 2713 2034 2713 
Q 2441 2713 2670 2916 
Q 2900 3119 2900 3481 
Q 2900 3844 2670 4047 
Q 2441 4250 2034 4250 
Q 1625 4250 1398 4047 
Q 1172 3844 1172 3481 
z
" transform="scale(0.015625)"/>
       </defs>
       <use xlink:href="#DejaVuSans-38"/>
       <use xlink:href="#DejaVuSans-30" x="63.623047"/>
      </g>
     </g>
    </g>
    <g id="xtick_6">
     <g id="line2d_6">
      <g>
       <use xlink:href="#mb1d88f31ad" x="368.973223" y="307.584" style="stroke: #000000; stroke-width: 0.8"/>
      </g>
     </g>
     <g id="text_6">
      <!-- 100 -->
      <g transform="translate(359.429473 322.182437) scale(0.1 -0.1)">
       <defs>
        <path id="DejaVuSans-31" d="M 794 531 
L 1825 531 
L 1825 4091 
L 703 3866 
L 703 4441 
L 1819 4666 
L 2450 4666 
L 2450 531 
L 3481 531 
L 3481 0 
L 794 0 
L 794 531 
z
" transform="scale(0.015625)"/>
       </defs>
       <use xlink:href="#DejaVuSans-31"/>
       <use xlink:href="#DejaVuSans-30" x="63.623047"/>
       <use xlink:href="#DejaVuSans-30" x="127.246094"/>
      </g>
     </g>
    </g>
    <g id="text_7">
     <!-- Time -->
     <g transform="translate(223.926406 335.860562) scale(0.1 -0.1)">
      <defs>
       <path id="DejaVuSans-54" d="M -19 4666 
L 3928 4666 
L 3928 4134 
L 2272 4134 
L 2272 0 
L 1638 0 
L 1638 4134 
L -19 4134 
L -19 4666 
z
" transform="scale(0.015625)"/>
       <path id="DejaVuSans-69" d="M 603 3500 
L 1178 3500 
L 1178 0 
L 603 0 
L 603 3500 
z
M 603 4863 
L 1178 4863 
L 1178 4134 
L 603 4134 
L 603 4863 
z
" transform="scale(0.015625)"/>
       <path id="DejaVuSans-6d" d="M 3328 2828 
Q 3544 3216 3844 3400 
Q 4144 3584 4550 3584 
Q 5097 3584 5394 3201 
Q 5691 2819 5691 2113 
L 5691 0 
L 5113 0 
L 5113 2094 
Q 5113 2597 4934 2840 
Q 4756 3084 4391 3084 
Q 3944 3084 3684 2787 
Q 3425 2491 3425 1978 
L 3425 0 
L 2847 0 
L 2847 2094 
Q 2847 2600 2669 2842 
Q 2491 3084 2119 3084 
Q 1678 3084 1418 2786 
Q 1159 2488 1159 1978 
L 1159 0 
L 581 0 
L 581 3500 
L 1159 3500 
L 1159 2956 
Q 1356 3278 1631 3431 
Q 1906 3584 2284 3584 
Q 2666 3584 2933 3390 
Q 3200 3197 3328 2828 
z
" transform="scale(0.015625)"/>
       <path id="DejaVuSans-65" d="M 3597 1894 
L 3597 1613 
L 953 1613 
Q 991 1019 1311 708 
Q 1631 397 2203 397 
Q 2534 397 2845 478 
Q 3156 559 3463 722 
L 3463 178 
Q 3153 47 2828 -22 
Q 2503 -91 2169 -91 
Q 1331 -91 842 396 
Q 353 884 353 1716 
Q 353 2575 817 3079 
Q 1281 3584 2069 3584 
Q 2775 3584 3186 3129 
Q 3597 2675 3597 1894 
z
M 3022 2063 
Q 3016 2534 2758 2815 
Q 2500 3097 2075 3097 
Q 1594 3097 1305 2825 
Q 1016 2553 972 2059 
L 3022 2063 
z
" transform="scale(0.015625)"/>
      </defs>
      <use xlink:href="#DejaVuSans-54"/>
      <use xlink:href="#DejaVuSans-69" x="57.958984"/>
      <use xlink:href="#DejaVuSans-6d" x="85.742188"/>
      <use xlink:href="#DejaVuSans-65" x="183.154297"/>
     </g>
    </g>
   </g>
   <g id="matplotlib.axis_2">
    <g id="ytick_1">
     <g id="line2d_7">
      <defs>
       <path id="maeb1fcdeca" d="M 0 0 
L -3.5 0 
" style="stroke: #000000; stroke-width: 0.8"/>
      </defs>
      <g>
       <use xlink:href="#maeb1fcdeca" x="57.6" y="285.408" style="stroke: #000000; stroke-width: 0.8"/>
      </g>
     </g>
     <g id="text_8">
      <!-- 0.0 -->
      <g transform="translate(34.696875 289.207219) scale(0.1 -0.1)">
       <defs>
        <path id="DejaVuSans-2e" d="M 684 794 
L 1344 794 
L 1344 0 
L 684 0 
L 684 794 
z
" transform="scale(0.015625)"/>
       </defs>
       <use xlink:href="#DejaVuSans-30"/>
       <use xlink:href="#DejaVuSans-2e" x="63.623047"/>
       <use xlink:href="#DejaVuSans-30" x="95.410156"/>
      </g>
     </g>
    </g>
    <g id="ytick_2">
     <g id="line2d_8">
      <g>
       <use xlink:href="#maeb1fcdeca" x="57.6" y="241.056" style="stroke: #000000; stroke-width: 0.8"/>
      </g>
     </g>
     <g id="text_9">
      <!-- 0.2 -->
      <g transform="translate(34.696875 244.855219) scale(0.1 -0.1)">
       <use xlink:href="#DejaVuSans-30"/>
       <use xlink:href="#DejaVuSans-2e" x="63.623047"/>
       <use xlink:href="#DejaVuSans-32" x="95.410156"/>
      </g>
     </g>
    </g>
    <g id="ytick_3">
     <g id="line2d_9">
      <g>
       <use xlink:href="#maeb1fcdeca" x="57.6" y="196.704" style="stroke: #000000; stroke-width: 0.8"/>
      </g>
     </g>
     <g id="text_10">
      <!-- 0.4 -->
      <g transform="translate(34.696875 200.503219) scale(0.1 -0.1)">
       <use xlink:href="#DejaVuSans-30"/>
       <use xlink:href="#DejaVuSans-2e" x="63.623047"/>
       <use xlink:href="#DejaVuSans-34" x="95.410156"/>
      </g>
     </g>
    </g>
    <g id="ytick_4">
     <g id="line2d_10">
      <g>
       <use xlink:href="#maeb1fcdeca" x="57.6" y="152.352" style="stroke: #000000; stroke-width: 0.8"/>
      </g>
     </g>
     <g id="text_11">
      <!-- 0.6 -->
      <g transform="translate(34.696875 156.151219) scale(0.1 -0.1)">
       <use xlink:href="#DejaVuSans-30"/>
       <use xlink:href="#DejaVuSans-2e" x="63.623047"/>
       <use xlink:href="#DejaVuSans-36" x="95.410156"/>
      </g>
     </g>
    </g>
    <g id="ytick_5">
     <g id="line2d_11">
      <g>
       <use xlink:href="#maeb1fcdeca" x="57.6" y="108" style="stroke: #000000; stroke-width: 0.8"/>
      </g>
     </g>
     <g id="text_12">
      <!-- 0.8 -->
      <g transform="translate(34.696875 111.799219) scale(0.1 -0.1)">
       <use xlink:href="#DejaVuSans-30"/>
       <use xlink:href="#DejaVuSans-2e" x="63.623047"/>
       <use xlink:href="#DejaVuSans-38" x="95.410156"/>
      </g>
     </g>
    </g>
    <g id="ytick_6">
     <g id="line2d_12">
      <g>
       <use xlink:href="#maeb1fcdeca" x="57.6" y="63.648" style="stroke: #000000; stroke-width: 0.8"/>
      </g>
     </g>
     <g id="text_13">
      <!-- 1.0 -->
      <g transform="translate(34.696875 67.447219) scale(0.1 -0.1)">
       <use xlink:href="#DejaVuSans-31"/>
       <use xlink:href="#DejaVuSans-2e" x="63.623047"/>
       <use xlink:href="#DejaVuSans-30" x="95.410156"/>
      </g>
     </g>
    </g>
    <g id="text_14">
     <!-- Opinion value -->
     <g transform="translate(28.617187 209.060031) rotate(-90) scale(0.1 -0.1)">
      <defs>
       <path id="DejaVuSans-4f" d="M 2522 4238 
Q 1834 4238 1429 3725 
Q 1025 3213 1025 2328 
Q 1025 1447 1429 934 
Q 1834 422 2522 422 
Q 3209 422 3611 934 
Q 4013 1447 4013 2328 
Q 4013 3213 3611 3725 
Q 3209 4238 2522 4238 
z
M 2522 4750 
Q 3503 4750 4090 4092 
Q 4678 3434 4678 2328 
Q 4678 1225 4090 567 
Q 3503 -91 2522 -91 
Q 1538 -91 948 565 
Q 359 1222 359 2328 
Q 359 3434 948 4092 
Q 1538 4750 2522 4750 
z
" transform="scale(0.015625)"/>
       <path id="DejaVuSans-70" d="M 1159 525 
L 1159 -1331 
L 581 -1331 
L 581 3500 
L 1159 3500 
L 1159 2969 
Q 1341 3281 1617 3432 
Q 1894 3584 2278 3584 
Q 2916 3584 3314 3078 
Q 3713 2572 3713 1747 
Q 3713 922 3314 415 
Q 2916 -91 2278 -91 
Q 1894 -91 1617 61 
Q 1341 213 1159 525 
z
M 3116 1747 
Q 3116 2381 2855 2742 
Q 2594 3103 2138 3103 
Q 1681 3103 1420 2742 
Q 1159 2381 1159 1747 
Q 1159 1113 1420 752 
Q 1681 391 2138 391 
Q 2594 391 2855 752 
Q 3116 1113 3116 1747 
z
" transform="scale(0.015625)"/>
       <path id="DejaVuSans-6e" d="M 3513 2113 
L 3513 0 
L 2938 0 
L 2938 2094 
Q 2938 2591 2744 2837 
Q 2550 3084 2163 3084 
Q 1697 3084 1428 2787 
Q 1159 2491 1159 1978 
L 1159 0 
L 581 0 
L 581 3500 
L 1159 3500 
L 1159 2956 
Q 1366 3272 1645 3428 
Q 1925 3584 2291 3584 
Q 2894 3584 3203 3211 
Q 3513 2838 3513 2113 
z
" transform="scale(0.015625)"/>
       <path id="DejaVuSans-6f" d="M 1959 3097 
Q 1497 3097 1228 2736 
Q 959 2375 959 1747 
Q 959 1119 1226 758 
Q 1494 397 1959 397 
Q 2419 397 2687 759 
Q 2956 1122 2956 1747 
Q 2956 2369 2687 2733 
Q 2419 3097 1959 3097 
z
M 1959 3584 
Q 2709 3584 3137 3096 
Q 3566 2609 3566 1747 
Q 3566 888 3137 398 
Q 2709 -91 1959 -91 
Q 1206 -91 779 398 
Q 353 888 353 1747 
Q 353 2609 779 3096 
Q 1206 3584 1959 3584 
z
" transform="scale(0.015625)"/>
       <path id="DejaVuSans-20" transform="scale(0.015625)"/>
       <path id="DejaVuSans-76" d="M 191 3500 
L 800 3500 
L 1894 563 
L 2988 3500 
L 3597 3500 
L 2284 0 
L 1503 0 
L 191 3500 
z
" transform="scale(0.015625)"/>
       <path id="DejaVuSans-61" d="M 2194 1759 
Q 1497 1759 1228 1600 
Q 959 1441 959 1056 
Q 959 750 1161 570 
Q 1363 391 1709 391 
Q 2188 391 2477 730 
Q 2766 1069 2766 1631 
L 2766 1759 
L 2194 1759 
z
M 3341 1997 
L 3341 0 
L 2766 0 
L 2766 531 
Q 2569 213 2275 61 
Q 1981 -91 1556 -91 
Q 1019 -91 701 211 
Q 384 513 384 1019 
Q 384 1609 779 1909 
Q 1175 2209 1959 2209 
L 2766 2209 
L 2766 2266 
Q 2766 2663 2505 2880 
Q 2244 3097 1772 3097 
Q 1472 3097 1187 3025 
Q 903 2953 641 2809 
L 641 3341 
Q 956 3463 1253 3523 
Q 1550 3584 1831 3584 
Q 2591 3584 2966 3190 
Q 3341 2797 3341 1997 
z
" transform="scale(0.015625)"/>
       <path id="DejaVuSans-6c" d="M 603 4863 
L 1178 4863 
L 1178 0 
L 603 0 
L 603 4863 
z
" transform="scale(0.015625)"/>
       <path id="DejaVuSans-75" d="M 544 1381 
L 544 3500 
L 1119 3500 
L 1119 1403 
Q 1119 906 1312 657 
Q 1506 409 1894 409 
Q 2359 409 2629 706 
Q 2900 1003 2900 1516 
L 2900 3500 
L 3475 3500 
L 3475 0 
L 2900 0 
L 2900 538 
Q 2691 219 2414 64 
Q 2138 -91 1772 -91 
Q 1169 -91 856 284 
Q 544 659 544 1381 
z
M 1991 3584 
L 1991 3584 
z
" transform="scale(0.015625)"/>
      </defs>
      <use xlink:href="#DejaVuSans-4f"/>
      <use xlink:href="#DejaVuSans-70" x="78.710938"/>
      <use xlink:href="#DejaVuSans-69" x="142.1875"/>
      <use xlink:href="#DejaVuSans-6e" x="169.970703"/>
      <use xlink:href="#DejaVuSans-69" x="233.349609"/>
      <use xlink:href="#DejaVuSans-6f" x="261.132812"/>
      <use xlink:href="#DejaVuSans-6e" x="322.314453"/>
      <use xlink:href="#DejaVuSans-20" x="385.693359"/>
      <use xlink:href="#DejaVuSans-76" x="417.480469"/>
      <use xlink:href="#DejaVuSans-61" x="476.660156"/>
      <use xlink:href="#DejaVuSans-6c" x="537.939453"/>
      <use xlink:href="#DejaVuSans-75" x="565.722656"/>
      <use xlink:href="#DejaVuSans-65" x="629.101562"/>
     </g>
    </g>
   </g>
   <g id="line2d_13">
    <path d="M 73.832727 285.408 
L 76.784132 206.393733 
L 79.735537 206.393733 
L 82.686942 206.393733 
L 85.638347 206.393733 
L 88.589752 206.393733 
L 91.541157 206.393733 
L 94.492562 206.393733 
L 97.443967 196.849367 
L 100.395372 196.849367 
L 103.346777 196.849367 
L 106.298182 196.849367 
L 109.249587 195.793432 
L 112.200992 195.793432 
L 115.152397 195.793432 
L 118.103802 195.793432 
L 121.055207 195.793432 
L 124.006612 195.793432 
L 126.958017 195.793432 
L 129.909421 195.793432 
L 132.860826 195.793432 
L 135.812231 195.793432 
L 138.763636 195.793432 
L 141.715041 195.793432 
L 144.666446 195.793432 
L 147.617851 195.793432 
L 150.569256 195.793432 
L 153.520661 195.793432 
L 156.472066 189.049846 
L 159.423471 189.049846 
L 162.374876 164.27552 
L 165.326281 164.27552 
L 168.277686 151.888357 
L 171.229091 151.888357 
L 174.180496 151.888357 
L 177.131901 151.888357 
L 180.083306 151.888357 
L 183.034711 151.888357 
L 185.986116 206.623713 
L 188.937521 206.623713 
L 191.888926 206.623713 
L 194.840331 206.623713 
L 197.791736 206.623713 
L 200.74314 243.162196 
L 203.694545 243.162196 
L 206.64595 243.162196 
L 209.597355 243.162196 
L 212.54876 243.162196 
L 215.500165 243.162196 
L 218.45157 200.812616 
L 221.402975 200.812616 
L 224.35438 200.812616 
L 227.305785 200.812616 
L 230.25719 200.812616 
L 233.208595 200.812616 
L 236.16 200.812616 
L 239.111405 200.812616 
L 242.06281 200.812616 
L 245.014215 200.812616 
L 247.96562 200.812616 
L 250.917025 200.812616 
L 253.86843 200.812616 
L 256.819835 200.812616 
L 259.77124 200.812616 
L 262.722645 200.812616 
L 265.67405 200.812616 
L 268.625455 200.812616 
L 271.57686 200.812616 
L 274.528264 200.812616 
L 277.479669 240.256648 
L 280.431074 240.256648 
L 283.382479 240.256648 
L 286.333884 240.256648 
L 289.285289 240.256648 
L 292.236694 240.256648 
L 295.188099 201.313105 
L 298.139504 201.313105 
L 301.090909 201.313105 
L 304.042314 201.313105 
L 306.993719 201.313105 
L 309.945124 201.313105 
L 312.896529 201.550858 
L 315.847934 201.550858 
L 318.799339 201.550858 
L 321.750744 201.550858 
L 324.702149 201.550858 
L 327.653554 201.550858 
L 330.604959 201.550858 
L 333.556364 201.550858 
L 336.507769 201.550858 
L 339.459174 201.550858 
L 342.410579 240.625768 
L 345.361983 212.796025 
L 348.313388 212.796025 
L 351.264793 212.796025 
L 354.216198 212.796025 
L 357.167603 212.796025 
L 360.119008 212.796025 
L 363.070413 212.796025 
L 366.021818 212.796025 
L 368.973223 212.796025 
L 371.924628 198.881153 
L 374.876033 198.881153 
L 377.827438 198.881153 
L 380.778843 198.881153 
L 383.730248 198.881153 
L 386.681653 198.881153 
L 389.633058 239.290916 
L 392.584463 239.290916 
L 395.535868 239.290916 
L 398.487273 239.290916 
" clip-path="url(#p61d52794c9)" style="fill: none; stroke: #1f77b4; stroke-width: 1.5; stroke-linecap: square"/>
   </g>
   <g id="line2d_14">
    <path d="M 73.832727 263.232 
L 76.784132 256.93697 
L 79.735537 256.93697 
L 82.686942 256.93697 
L 85.638347 256.93697 
L 88.589752 256.93697 
L 91.541157 256.93697 
L 94.492562 256.93697 
L 97.443967 256.93697 
L 100.395372 256.93697 
L 103.346777 231.688383 
L 106.298182 219.064089 
L 109.249587 219.064089 
L 112.200992 148.175244 
L 115.152397 148.175244 
L 118.103802 148.175244 
L 121.055207 148.175244 
L 124.006612 148.175244 
L 126.958017 148.175244 
L 129.909421 148.175244 
L 132.860826 148.175244 
L 135.812231 148.175244 
L 138.763636 148.175244 
L 141.715041 148.175244 
L 144.666446 148.175244 
L 147.617851 148.175244 
L 150.569256 148.175244 
L 153.520661 148.175244 
L 156.472066 148.175244 
L 159.423471 148.175244 
L 162.374876 148.175244 
L 165.326281 148.175244 
L 168.277686 148.175244 
L 171.229091 148.175244 
L 174.180496 148.175244 
L 177.131901 148.175244 
L 180.083306 148.175244 
L 183.034711 148.175244 
L 185.986116 148.175244 
L 188.937521 148.175244 
L 191.888926 183.754269 
L 194.840331 159.922831 
L 197.791736 159.922831 
L 200.74314 159.922831 
L 203.694545 159.922831 
L 206.64595 159.922831 
L 209.597355 159.922831 
L 212.54876 159.922831 
L 215.500165 159.922831 
L 218.45157 159.922831 
L 221.402975 159.922831 
L 224.35438 159.922831 
L 227.305785 159.922831 
L 230.25719 189.628063 
L 233.208595 189.628063 
L 236.16 189.628063 
L 239.111405 189.628063 
L 242.06281 189.628063 
L 245.014215 189.628063 
L 247.96562 189.628063 
L 250.917025 189.628063 
L 253.86843 189.628063 
L 256.819835 189.628063 
L 259.77124 189.628063 
L 262.722645 189.628063 
L 265.67405 189.628063 
L 268.625455 189.628063 
L 271.57686 189.628063 
L 274.528264 189.628063 
L 277.479669 189.628063 
L 280.431074 167.141603 
L 283.382479 167.141603 
L 286.333884 167.141603 
L 289.285289 167.141603 
L 292.236694 167.141603 
L 295.188099 167.141603 
L 298.139504 167.141603 
L 301.090909 167.141603 
L 304.042314 158.694829 
L 306.993719 158.694829 
L 309.945124 158.694829 
L 312.896529 158.694829 
L 315.847934 158.694829 
L 318.799339 158.694829 
L 321.750744 169.570883 
L 324.702149 169.570883 
L 327.653554 169.570883 
L 330.604959 169.570883 
L 333.556364 169.570883 
L 336.507769 169.570883 
L 339.459174 169.570883 
L 342.410579 169.570883 
L 345.361983 169.570883 
L 348.313388 169.570883 
L 351.264793 169.570883 
L 354.216198 169.570883 
L 357.167603 169.570883 
L 360.119008 169.570883 
L 363.070413 167.096366 
L 366.021818 167.096366 
L 368.973223 167.096366 
L 371.924628 167.096366 
L 374.876033 167.096366 
L 377.827438 167.096366 
L 380.778843 167.096366 
L 383.730248 165.859107 
L 386.681653 165.859107 
L 389.633058 165.859107 
L 392.584463 165.859107 
L 395.535868 163.223158 
L 398.487273 163.223158 
" clip-path="url(#p61d52794c9)" style="fill: none; stroke: #ff7f0e; stroke-width: 1.5; stroke-linecap: square"/>
   </g>
   <g id="line2d_15">
    <path d="M 73.832727 241.056 
L 76.784132 279.700679 
L 79.735537 279.700679 
L 82.686942 279.700679 
L 85.638347 279.700679 
L 88.589752 279.700679 
L 91.541157 279.700679 
L 94.492562 279.700679 
L 97.443967 279.700679 
L 100.395372 279.700679 
L 103.346777 279.700679 
L 106.298182 279.700679 
L 109.249587 279.700679 
L 112.200992 279.700679 
L 115.152397 279.700679 
L 118.103802 279.700679 
L 121.055207 279.700679 
L 124.006612 279.700679 
L 126.958017 279.700679 
L 129.909421 279.700679 
L 132.860826 279.700679 
L 135.812231 279.700679 
L 138.763636 279.700679 
L 141.715041 279.700679 
L 144.666446 279.700679 
L 147.617851 279.700679 
L 150.569256 279.700679 
L 153.520661 279.700679 
L 156.472066 279.700679 
L 159.423471 279.700679 
L 162.374876 279.700679 
L 165.326281 279.700679 
L 168.277686 279.700679 
L 171.229091 279.700679 
L 174.180496 279.700679 
L 177.131901 279.700679 
L 180.083306 279.700679 
L 183.034711 279.700679 
L 185.986116 279.700679 
L 188.937521 279.700679 
L 191.888926 279.700679 
L 194.840331 279.700679 
L 197.791736 279.700679 
L 200.74314 279.700679 
L 203.694545 279.700679 
L 206.64595 279.700679 
L 209.597355 279.700679 
L 212.54876 279.700679 
L 215.500165 279.700679 
L 218.45157 279.700679 
L 221.402975 279.700679 
L 224.35438 279.700679 
L 227.305785 279.700679 
L 230.25719 279.700679 
L 233.208595 279.700679 
L 236.16 279.700679 
L 239.111405 279.700679 
L 242.06281 279.700679 
L 245.014215 279.700679 
L 247.96562 279.700679 
L 250.917025 279.700679 
L 253.86843 279.700679 
L 256.819835 279.700679 
L 259.77124 279.700679 
L 262.722645 279.700679 
L 265.67405 279.700679 
L 268.625455 279.700679 
L 271.57686 279.700679 
L 274.528264 279.700679 
L 277.479669 279.700679 
L 280.431074 279.700679 
L 283.382479 279.700679 
L 286.333884 279.700679 
L 289.285289 279.700679 
L 292.236694 279.700679 
L 295.188099 279.700679 
L 298.139504 279.700679 
L 301.090909 279.700679 
L 304.042314 279.700679 
L 306.993719 279.700679 
L 309.945124 279.700679 
L 312.896529 279.700679 
L 315.847934 279.700679 
L 318.799339 279.700679 
L 321.750744 279.700679 
L 324.702149 279.700679 
L 327.653554 279.700679 
L 330.604959 279.700679 
L 333.556364 279.700679 
L 336.507769 279.700679 
L 339.459174 279.700679 
L 342.410579 279.700679 
L 345.361983 279.700679 
L 348.313388 279.700679 
L 351.264793 279.700679 
L 354.216198 279.700679 
L 357.167603 279.700679 
L 360.119008 279.700679 
L 363.070413 279.700679 
L 366.021818 279.700679 
L 368.973223 279.700679 
L 371.924628 279.700679 
L 374.876033 279.700679 
L 377.827438 279.700679 
L 380.778843 279.700679 
L 383.730248 279.700679 
L 386.681653 279.700679 
L 389.633058 279.700679 
L 392.584463 279.700679 
L 395.535868 279.700679 
L 398.487273 279.700679 
" clip-path="url(#p61d52794c9)" style="fill: none; stroke: #2ca02c; stroke-width: 1.5; stroke-linecap: square"/>
   </g>
   <g id="line2d_16">
    <path d="M 73.832727 218.88 
L 76.784132 100.018399 
L 79.735537 100.018399 
L 82.686942 100.018399 
L 85.638347 100.018399 
L 88.589752 100.018399 
L 91.541157 100.018399 
L 94.492562 100.018399 
L 97.443967 100.018399 
L 100.395372 156.42079 
L 103.346777 156.42079 
L 106.298182 156.42079 
L 109.249587 156.42079 
L 112.200992 156.42079 
L 115.152397 156.42079 
L 118.103802 156.42079 
L 121.055207 156.42079 
L 124.006612 156.42079 
L 126.958017 156.42079 
L 129.909421 156.42079 
L 132.860826 156.42079 
L 135.812231 156.42079 
L 138.763636 156.42079 
L 141.715041 136.295307 
L 144.666446 136.295307 
L 147.617851 136.295307 
L 150.569256 136.295307 
L 153.520661 136.295307 
L 156.472066 136.295307 
L 159.423471 139.501193 
L 162.374876 139.501193 
L 165.326281 139.501193 
L 168.277686 139.501193 
L 171.229091 139.501193 
L 174.180496 139.501193 
L 177.131901 139.501193 
L 180.083306 139.501193 
L 183.034711 139.501193 
L 185.986116 139.501193 
L 188.937521 139.501193 
L 191.888926 139.501193 
L 194.840331 139.501193 
L 197.791736 138.4705 
L 200.74314 138.4705 
L 203.694545 137.955154 
L 206.64595 137.955154 
L 209.597355 137.955154 
L 212.54876 137.955154 
L 215.500165 137.955154 
L 218.45157 137.955154 
L 221.402975 137.955154 
L 224.35438 137.955154 
L 227.305785 137.955154 
L 230.25719 137.955154 
L 233.208595 137.955154 
L 236.16 137.955154 
L 239.111405 137.955154 
L 242.06281 137.955154 
L 245.014215 137.955154 
L 247.96562 137.955154 
L 250.917025 137.955154 
L 253.86843 137.955154 
L 256.819835 137.955154 
L 259.77124 137.955154 
L 262.722645 137.955154 
L 265.67405 137.955154 
L 268.625455 137.955154 
L 271.57686 137.955154 
L 274.528264 137.955154 
L 277.479669 137.955154 
L 280.431074 137.955154 
L 283.382479 137.955154 
L 286.333884 137.955154 
L 289.285289 137.955154 
L 292.236694 137.955154 
L 295.188099 137.955154 
L 298.139504 137.955154 
L 301.090909 137.955154 
L 304.042314 137.955154 
L 306.993719 137.955154 
L 309.945124 151.201677 
L 312.896529 151.201677 
L 315.847934 151.201677 
L 318.799339 151.201677 
L 321.750744 151.201677 
L 324.702149 151.201677 
L 327.653554 151.201677 
L 330.604959 151.201677 
L 333.556364 151.201677 
L 336.507769 151.201677 
L 339.459174 151.201677 
L 342.410579 151.201677 
L 345.361983 151.201677 
L 348.313388 151.201677 
L 351.264793 151.201677 
L 354.216198 151.201677 
L 357.167603 151.201677 
L 360.119008 151.201677 
L 363.070413 151.201677 
L 366.021818 151.201677 
L 368.973223 156.685484 
L 371.924628 156.685484 
L 374.876033 156.685484 
L 377.827438 156.685484 
L 380.778843 156.685484 
L 383.730248 156.685484 
L 386.681653 156.685484 
L 389.633058 156.685484 
L 392.584463 156.685484 
L 395.535868 156.685484 
L 398.487273 156.685484 
" clip-path="url(#p61d52794c9)" style="fill: none; stroke: #d62728; stroke-width: 1.5; stroke-linecap: square"/>
   </g>
   <g id="line2d_17">
    <path d="M 73.832727 196.704 
L 76.784132 84.164402 
L 79.735537 84.164402 
L 82.686942 84.164402 
L 85.638347 84.164402 
L 88.589752 84.164402 
L 91.541157 84.164402 
L 94.492562 84.164402 
L 97.443967 84.164402 
L 100.395372 84.164402 
L 103.346777 84.164402 
L 106.298182 84.164402 
L 109.249587 84.164402 
L 112.200992 84.164402 
L 115.152397 116.169823 
L 118.103802 116.169823 
L 121.055207 116.169823 
L 124.006612 116.169823 
L 126.958017 116.169823 
L 129.909421 116.169823 
L 132.860826 116.169823 
L 135.812231 116.169823 
L 138.763636 116.169823 
L 141.715041 116.169823 
L 144.666446 116.169823 
L 147.617851 116.169823 
L 150.569256 116.169823 
L 153.520661 132.172534 
L 156.472066 132.172534 
L 159.423471 132.172534 
L 162.374876 132.172534 
L 165.326281 132.172534 
L 168.277686 132.172534 
L 171.229091 132.172534 
L 174.180496 132.172534 
L 177.131901 132.172534 
L 180.083306 132.172534 
L 183.034711 132.172534 
L 185.986116 132.172534 
L 188.937521 132.172534 
L 191.888926 132.172534 
L 194.840331 132.172534 
L 197.791736 132.172534 
L 200.74314 132.172534 
L 203.694545 132.172534 
L 206.64595 132.172534 
L 209.597355 132.172534 
L 212.54876 132.172534 
L 215.500165 132.172534 
L 218.45157 132.172534 
L 221.402975 146.047683 
L 224.35438 146.047683 
L 227.305785 146.047683 
L 230.25719 146.047683 
L 233.208595 146.047683 
L 236.16 146.047683 
L 239.111405 146.047683 
L 242.06281 146.047683 
L 245.014215 146.047683 
L 247.96562 146.047683 
L 250.917025 146.047683 
L 253.86843 146.047683 
L 256.819835 146.047683 
L 259.77124 146.047683 
L 262.722645 167.837873 
L 265.67405 167.837873 
L 268.625455 167.837873 
L 271.57686 167.837873 
L 274.528264 167.837873 
L 277.479669 167.837873 
L 280.431074 167.837873 
L 283.382479 167.837873 
L 286.333884 167.837873 
L 289.285289 167.837873 
L 292.236694 167.837873 
L 295.188099 167.837873 
L 298.139504 167.837873 
L 301.090909 167.837873 
L 304.042314 167.837873 
L 306.993719 167.837873 
L 309.945124 167.837873 
L 312.896529 167.837873 
L 315.847934 167.837873 
L 318.799339 167.837873 
L 321.750744 167.837873 
L 324.702149 167.837873 
L 327.653554 167.837873 
L 330.604959 167.837873 
L 333.556364 167.837873 
L 336.507769 167.837873 
L 339.459174 167.837873 
L 342.410579 167.837873 
L 345.361983 167.837873 
L 348.313388 167.837873 
L 351.264793 167.837873 
L 354.216198 167.837873 
L 357.167603 167.837873 
L 360.119008 167.837873 
L 363.070413 167.837873 
L 366.021818 167.837873 
L 368.973223 167.837873 
L 371.924628 167.837873 
L 374.876033 167.837873 
L 377.827438 167.837873 
L 380.778843 167.837873 
L 383.730248 167.837873 
L 386.681653 167.837873 
L 389.633058 167.837873 
L 392.584463 167.837873 
L 395.535868 167.837873 
L 398.487273 167.837873 
" clip-path="url(#p61d52794c9)" style="fill: none; stroke: #9467bd; stroke-width: 1.5; stroke-linecap: square"/>
   </g>
   <g id="line2d_18">
    <path d="M 73.832727 174.528 
L 76.784132 148.339217 
L 79.735537 148.339217 
L 82.686942 148.339217 
L 85.638347 148.339217 
L 88.589752 171.275714 
L 91.541157 171.275714 
L 94.492562 171.275714 
L 97.443967 171.275714 
L 100.395372 171.275714 
L 103.346777 171.275714 
L 106.298182 171.275714 
L 109.249587 171.275714 
L 112.200992 171.275714 
L 115.152397 171.275714 
L 118.103802 171.275714 
L 121.055207 171.275714 
L 124.006612 171.275714 
L 126.958017 171.275714 
L 129.909421 174.291617 
L 132.860826 174.291617 
L 135.812231 174.291617 
L 138.763636 174.291617 
L 141.715041 174.291617 
L 144.666446 174.291617 
L 147.617851 174.291617 
L 150.569256 174.291617 
L 153.520661 174.291617 
L 156.472066 174.291617 
L 159.423471 174.291617 
L 162.374876 174.291617 
L 165.326281 174.291617 
L 168.277686 174.291617 
L 171.229091 174.291617 
L 174.180496 174.291617 
L 177.131901 174.291617 
L 180.083306 174.291617 
L 183.034711 174.291617 
L 185.986116 174.291617 
L 188.937521 174.291617 
L 191.888926 174.291617 
L 194.840331 174.291617 
L 197.791736 174.291617 
L 200.74314 174.291617 
L 203.694545 174.291617 
L 206.64595 174.291617 
L 209.597355 208.726906 
L 212.54876 208.726906 
L 215.500165 208.726906 
L 218.45157 208.726906 
L 221.402975 208.726906 
L 224.35438 208.726906 
L 227.305785 208.726906 
L 230.25719 208.726906 
L 233.208595 208.726906 
L 236.16 208.726906 
L 239.111405 193.685565 
L 242.06281 193.685565 
L 245.014215 193.685565 
L 247.96562 226.854498 
L 250.917025 226.854498 
L 253.86843 226.854498 
L 256.819835 226.854498 
L 259.77124 226.854498 
L 262.722645 226.854498 
L 265.67405 226.854498 
L 268.625455 226.854498 
L 271.57686 226.854498 
L 274.528264 226.854498 
L 277.479669 226.854498 
L 280.431074 226.854498 
L 283.382479 197.876329 
L 286.333884 197.876329 
L 289.285289 197.876329 
L 292.236694 197.876329 
L 295.188099 197.876329 
L 298.139504 197.876329 
L 301.090909 197.876329 
L 304.042314 197.876329 
L 306.993719 197.876329 
L 309.945124 197.876329 
L 312.896529 197.876329 
L 315.847934 178.490797 
L 318.799339 178.490797 
L 321.750744 178.490797 
L 324.702149 178.490797 
L 327.653554 178.490797 
L 330.604959 178.490797 
L 333.556364 178.490797 
L 336.507769 178.490797 
L 339.459174 178.490797 
L 342.410579 178.490797 
L 345.361983 178.490797 
L 348.313388 171.556323 
L 351.264793 171.556323 
L 354.216198 171.556323 
L 357.167603 192.176174 
L 360.119008 192.176174 
L 363.070413 192.176174 
L 366.021818 192.176174 
L 368.973223 192.176174 
L 371.924628 192.176174 
L 374.876033 192.176174 
L 377.827438 192.176174 
L 380.778843 192.176174 
L 383.730248 192.176174 
L 386.681653 178.399011 
L 389.633058 178.399011 
L 392.584463 178.399011 
L 395.535868 178.399011 
L 398.487273 178.399011 
" clip-path="url(#p61d52794c9)" style="fill: none; stroke: #8c564b; stroke-width: 1.5; stroke-linecap: square"/>
   </g>
   <g id="line2d_19">
    <path d="M 73.832727 152.352 
L 76.784132 212.823181 
L 79.735537 212.823181 
L 82.686942 212.823181 
L 85.638347 212.823181 
L 88.589752 212.823181 
L 91.541157 212.823181 
L 94.492562 212.823181 
L 97.443967 212.823181 
L 100.395372 212.823181 
L 103.346777 212.823181 
L 106.298182 212.823181 
L 109.249587 212.823181 
L 112.200992 212.823181 
L 115.152397 212.823181 
L 118.103802 212.823181 
L 121.055207 145.05479 
L 124.006612 145.05479 
L 126.958017 145.05479 
L 129.909421 145.05479 
L 132.860826 145.05479 
L 135.812231 161.181155 
L 138.763636 169.244337 
L 141.715041 169.244337 
L 144.666446 169.244337 
L 147.617851 142.70708 
L 150.569256 142.70708 
L 153.520661 142.70708 
L 156.472066 142.70708 
L 159.423471 142.70708 
L 162.374876 142.70708 
L 165.326281 142.70708 
L 168.277686 142.70708 
L 171.229091 142.70708 
L 174.180496 142.70708 
L 177.131901 142.70708 
L 180.083306 142.70708 
L 183.034711 137.439807 
L 185.986116 137.439807 
L 188.937521 137.439807 
L 191.888926 137.439807 
L 194.840331 137.439807 
L 197.791736 137.439807 
L 200.74314 137.439807 
L 203.694545 137.439807 
L 206.64595 137.439807 
L 209.597355 137.439807 
L 212.54876 136.7656 
L 215.500165 178.049447 
L 218.45157 178.049447 
L 221.402975 178.049447 
L 224.35438 178.049447 
L 227.305785 162.048565 
L 230.25719 162.048565 
L 233.208595 162.048565 
L 236.16 162.048565 
L 239.111405 162.048565 
L 242.06281 170.346395 
L 245.014215 170.346395 
L 247.96562 170.346395 
L 250.917025 170.346395 
L 253.86843 170.346395 
L 256.819835 170.346395 
L 259.77124 153.218894 
L 262.722645 153.218894 
L 265.67405 153.218894 
L 268.625455 153.218894 
L 271.57686 153.218894 
L 274.528264 153.218894 
L 277.479669 153.218894 
L 280.431074 153.218894 
L 283.382479 153.218894 
L 286.333884 161.058527 
L 289.285289 161.058527 
L 292.236694 161.058527 
L 295.188099 161.058527 
L 298.139504 161.058527 
L 301.090909 164.4482 
L 304.042314 164.4482 
L 306.993719 164.4482 
L 309.945124 164.4482 
L 312.896529 164.4482 
L 315.847934 164.4482 
L 318.799339 164.4482 
L 321.750744 164.4482 
L 324.702149 166.143036 
L 327.653554 166.143036 
L 330.604959 166.143036 
L 333.556364 166.143036 
L 336.507769 166.143036 
L 339.459174 166.143036 
L 342.410579 166.143036 
L 345.361983 166.143036 
L 348.313388 166.143036 
L 351.264793 166.143036 
L 354.216198 162.169291 
L 357.167603 162.169291 
L 360.119008 162.169291 
L 363.070413 162.169291 
L 366.021818 162.169291 
L 368.973223 162.169291 
L 371.924628 162.169291 
L 374.876033 161.37825 
L 377.827438 161.37825 
L 380.778843 164.608062 
L 383.730248 164.608062 
L 386.681653 164.608062 
L 389.633058 164.608062 
L 392.584463 164.608062 
L 395.535868 164.608062 
L 398.487273 164.92427 
" clip-path="url(#p61d52794c9)" style="fill: none; stroke: #e377c2; stroke-width: 1.5; stroke-linecap: square"/>
   </g>
   <g id="line2d_20">
    <path d="M 73.832727 130.176 
L 76.784132 163.887967 
L 79.735537 188.355574 
L 82.686942 194.737498 
L 85.638347 194.737498 
L 88.589752 194.737498 
L 91.541157 194.737498 
L 94.492562 194.737498 
L 97.443967 194.737498 
L 100.395372 194.737498 
L 103.346777 194.737498 
L 106.298182 194.737498 
L 109.249587 194.737498 
L 112.200992 194.737498 
L 115.152397 194.737498 
L 118.103802 194.737498 
L 121.055207 194.737498 
L 124.006612 186.022509 
L 126.958017 186.022509 
L 129.909421 186.022509 
L 132.860826 181.665014 
L 135.812231 181.665014 
L 138.763636 181.665014 
L 141.715041 181.665014 
L 144.666446 181.665014 
L 147.617851 181.665014 
L 150.569256 181.665014 
L 153.520661 181.665014 
L 156.472066 181.665014 
L 159.423471 181.665014 
L 162.374876 181.665014 
L 165.326281 181.665014 
L 168.277686 181.665014 
L 171.229091 181.665014 
L 174.180496 179.486267 
L 177.131901 179.486267 
L 180.083306 179.486267 
L 183.034711 179.486267 
L 185.986116 179.486267 
L 188.937521 179.486267 
L 191.888926 179.486267 
L 194.840331 179.486267 
L 197.791736 179.486267 
L 200.74314 179.486267 
L 203.694545 179.486267 
L 206.64595 158.463037 
L 209.597355 158.463037 
L 212.54876 158.463037 
L 215.500165 158.463037 
L 218.45157 158.463037 
L 221.402975 158.463037 
L 224.35438 158.463037 
L 227.305785 158.463037 
L 230.25719 158.463037 
L 233.208595 158.463037 
L 236.16 158.463037 
L 239.111405 158.463037 
L 242.06281 158.463037 
L 245.014215 158.463037 
L 247.96562 158.463037 
L 250.917025 158.463037 
L 253.86843 158.463037 
L 256.819835 158.463037 
L 259.77124 158.463037 
L 262.722645 158.463037 
L 265.67405 158.463037 
L 268.625455 155.840966 
L 271.57686 155.840966 
L 274.528264 155.840966 
L 277.479669 155.840966 
L 280.431074 155.840966 
L 283.382479 155.840966 
L 286.333884 155.840966 
L 289.285289 155.840966 
L 292.236694 155.840966 
L 295.188099 155.840966 
L 298.139504 155.840966 
L 301.090909 155.840966 
L 304.042314 155.840966 
L 306.993719 155.840966 
L 309.945124 155.840966 
L 312.896529 155.840966 
L 315.847934 155.840966 
L 318.799339 155.840966 
L 321.750744 155.840966 
L 324.702149 155.840966 
L 327.653554 155.840966 
L 330.604959 155.840966 
L 333.556364 155.840966 
L 336.507769 155.840966 
L 339.459174 160.992001 
L 342.410579 160.992001 
L 345.361983 160.992001 
L 348.313388 160.992001 
L 351.264793 160.992001 
L 354.216198 160.992001 
L 357.167603 160.992001 
L 360.119008 160.992001 
L 363.070413 160.992001 
L 366.021818 160.992001 
L 368.973223 160.992001 
L 371.924628 160.992001 
L 374.876033 160.992001 
L 377.827438 161.185126 
L 380.778843 161.185126 
L 383.730248 161.185126 
L 386.681653 161.185126 
L 389.633058 161.185126 
L 392.584463 161.185126 
L 395.535868 161.185126 
L 398.487273 161.185126 
" clip-path="url(#p61d52794c9)" style="fill: none; stroke: #7f7f7f; stroke-width: 1.5; stroke-linecap: square"/>
   </g>
   <g id="line2d_21">
    <path d="M 73.832727 108 
L 76.784132 77.286399 
L 79.735537 77.286399 
L 82.686942 77.286399 
L 85.638347 77.286399 
L 88.589752 77.286399 
L 91.541157 77.286399 
L 94.492562 77.286399 
L 97.443967 77.286399 
L 100.395372 77.286399 
L 103.346777 77.286399 
L 106.298182 77.286399 
L 109.249587 77.286399 
L 112.200992 77.286399 
L 115.152397 77.286399 
L 118.103802 77.286399 
L 121.055207 77.286399 
L 124.006612 77.286399 
L 126.958017 77.286399 
L 129.909421 77.286399 
L 132.860826 77.286399 
L 135.812231 77.286399 
L 138.763636 77.286399 
L 141.715041 77.286399 
L 144.666446 129.475707 
L 147.617851 129.475707 
L 150.569256 136.091394 
L 153.520661 136.091394 
L 156.472066 136.091394 
L 159.423471 136.091394 
L 162.374876 136.091394 
L 165.326281 136.091394 
L 168.277686 136.091394 
L 171.229091 136.091394 
L 174.180496 136.091394 
L 177.131901 136.091394 
L 180.083306 136.091394 
L 183.034711 136.091394 
L 185.986116 136.091394 
L 188.937521 136.091394 
L 191.888926 136.091394 
L 194.840331 136.091394 
L 197.791736 136.091394 
L 200.74314 136.091394 
L 203.694545 136.091394 
L 206.64595 136.091394 
L 209.597355 136.091394 
L 212.54876 136.091394 
L 215.500165 136.091394 
L 218.45157 136.091394 
L 221.402975 136.091394 
L 224.35438 136.091394 
L 227.305785 136.091394 
L 230.25719 136.091394 
L 233.208595 136.091394 
L 236.16 136.091394 
L 239.111405 136.091394 
L 242.06281 136.091394 
L 245.014215 136.091394 
L 247.96562 136.091394 
L 250.917025 136.091394 
L 253.86843 136.091394 
L 256.819835 136.091394 
L 259.77124 136.091394 
L 262.722645 136.091394 
L 265.67405 136.091394 
L 268.625455 136.091394 
L 271.57686 144.655144 
L 274.528264 144.655144 
L 277.479669 144.655144 
L 280.431074 144.655144 
L 283.382479 144.655144 
L 286.333884 144.655144 
L 289.285289 150.248055 
L 292.236694 150.248055 
L 295.188099 150.248055 
L 298.139504 150.248055 
L 301.090909 150.248055 
L 304.042314 150.248055 
L 306.993719 150.248055 
L 309.945124 150.248055 
L 312.896529 150.248055 
L 315.847934 150.248055 
L 318.799339 150.248055 
L 321.750744 150.248055 
L 324.702149 150.248055 
L 327.653554 150.248055 
L 330.604959 150.248055 
L 333.556364 150.248055 
L 336.507769 150.248055 
L 339.459174 150.248055 
L 342.410579 150.248055 
L 345.361983 150.248055 
L 348.313388 150.248055 
L 351.264793 158.195546 
L 354.216198 158.195546 
L 357.167603 158.195546 
L 360.119008 160.182418 
L 363.070413 160.182418 
L 366.021818 160.58721 
L 368.973223 160.58721 
L 371.924628 160.58721 
L 374.876033 160.58721 
L 377.827438 160.58721 
L 380.778843 160.58721 
L 383.730248 160.58721 
L 386.681653 160.58721 
L 389.633058 160.58721 
L 392.584463 160.58721 
L 395.535868 160.58721 
L 398.487273 160.58721 
" clip-path="url(#p61d52794c9)" style="fill: none; stroke: #bcbd22; stroke-width: 1.5; stroke-linecap: square"/>
   </g>
   <g id="line2d_22">
    <path d="M 73.832727 85.824 
L 76.784132 187.305001 
L 79.735537 187.305001 
L 82.686942 187.305001 
L 85.638347 187.305001 
L 88.589752 187.305001 
L 91.541157 187.305001 
L 94.492562 187.305001 
L 97.443967 187.305001 
L 100.395372 187.305001 
L 103.346777 187.305001 
L 106.298182 187.305001 
L 109.249587 187.305001 
L 112.200992 187.305001 
L 115.152397 187.305001 
L 118.103802 187.305001 
L 121.055207 187.305001 
L 124.006612 187.305001 
L 126.958017 182.30626 
L 129.909421 182.30626 
L 132.860826 182.30626 
L 135.812231 182.30626 
L 138.763636 182.30626 
L 141.715041 182.30626 
L 144.666446 182.30626 
L 147.617851 182.30626 
L 150.569256 182.30626 
L 153.520661 182.30626 
L 156.472066 182.30626 
L 159.423471 182.30626 
L 162.374876 182.30626 
L 165.326281 231.003469 
L 168.277686 231.003469 
L 171.229091 206.334242 
L 174.180496 206.334242 
L 177.131901 243.01746 
L 180.083306 261.359069 
L 183.034711 261.359069 
L 185.986116 261.359069 
L 188.937521 261.359069 
L 191.888926 261.359069 
L 194.840331 261.359069 
L 197.791736 261.359069 
L 200.74314 261.359069 
L 203.694545 261.359069 
L 206.64595 261.359069 
L 209.597355 261.359069 
L 212.54876 261.359069 
L 215.500165 261.359069 
L 218.45157 261.359069 
L 221.402975 261.359069 
L 224.35438 240.346182 
L 227.305785 240.346182 
L 230.25719 240.346182 
L 233.208595 240.346182 
L 236.16 260.02343 
L 239.111405 260.02343 
L 242.06281 260.02343 
L 245.014215 260.02343 
L 247.96562 260.02343 
L 250.917025 209.243234 
L 253.86843 209.243234 
L 256.819835 209.243234 
L 259.77124 209.243234 
L 262.722645 209.243234 
L 265.67405 244.471956 
L 268.625455 244.471956 
L 271.57686 244.471956 
L 274.528264 244.471956 
L 277.479669 244.471956 
L 280.431074 244.471956 
L 283.382479 244.471956 
L 286.333884 244.471956 
L 289.285289 244.471956 
L 292.236694 244.471956 
L 295.188099 244.471956 
L 298.139504 244.471956 
L 301.090909 244.471956 
L 304.042314 244.471956 
L 306.993719 201.78861 
L 309.945124 201.78861 
L 312.896529 201.78861 
L 315.847934 201.78861 
L 318.799339 201.78861 
L 321.750744 201.78861 
L 324.702149 201.78861 
L 327.653554 201.78861 
L 330.604959 184.966281 
L 333.556364 184.966281 
L 336.507769 184.966281 
L 339.459174 184.966281 
L 342.410579 184.966281 
L 345.361983 184.966281 
L 348.313388 184.966281 
L 351.264793 184.966281 
L 354.216198 184.966281 
L 357.167603 184.966281 
L 360.119008 184.966281 
L 363.070413 184.966281 
L 366.021818 184.966281 
L 368.973223 184.966281 
L 371.924628 184.966281 
L 374.876033 184.966281 
L 377.827438 184.966281 
L 380.778843 184.966281 
L 383.730248 184.966281 
L 386.681653 184.966281 
L 389.633058 184.966281 
L 392.584463 184.966281 
L 395.535868 184.966281 
L 398.487273 184.966281 
" clip-path="url(#p61d52794c9)" style="fill: none; stroke: #17becf; stroke-width: 1.5; stroke-linecap: square"/>
   </g>
   <g id="line2d_23">
    <path d="M 73.832727 63.648 
L 76.784132 201.119421 
L 79.735537 201.119421 
L 82.686942 201.119421 
L 85.638347 194.212211 
L 88.589752 194.212211 
L 91.541157 225.57459 
L 94.492562 206.439795 
L 97.443967 206.439795 
L 100.395372 206.439795 
L 103.346777 206.439795 
L 106.298182 206.439795 
L 109.249587 206.439795 
L 112.200992 206.439795 
L 115.152397 206.439795 
L 118.103802 177.30752 
L 121.055207 177.30752 
L 124.006612 177.30752 
L 126.958017 177.30752 
L 129.909421 177.30752 
L 132.860826 177.30752 
L 135.812231 177.30752 
L 138.763636 177.30752 
L 141.715041 177.30752 
L 144.666446 177.30752 
L 147.617851 177.30752 
L 150.569256 177.30752 
L 153.520661 177.30752 
L 156.472066 177.30752 
L 159.423471 177.30752 
L 162.374876 177.30752 
L 165.326281 177.30752 
L 168.277686 177.30752 
L 171.229091 177.30752 
L 174.180496 177.30752 
L 177.131901 177.30752 
L 180.083306 177.30752 
L 183.034711 177.30752 
L 185.986116 177.30752 
L 188.937521 219.333295 
L 191.888926 219.333295 
L 194.840331 219.333295 
L 197.791736 219.333295 
L 200.74314 219.333295 
L 203.694545 219.333295 
L 206.64595 219.333295 
L 209.597355 219.333295 
L 212.54876 219.333295 
L 215.500165 219.333295 
L 218.45157 219.333295 
L 221.402975 219.333295 
L 224.35438 219.333295 
L 227.305785 219.333295 
L 230.25719 219.333295 
L 233.208595 178.644224 
L 236.16 178.644224 
L 239.111405 178.644224 
L 242.06281 178.644224 
L 245.014215 158.299689 
L 247.96562 158.299689 
L 250.917025 158.299689 
L 253.86843 158.381363 
L 256.819835 148.168258 
L 259.77124 148.168258 
L 262.722645 148.168258 
L 265.67405 148.168258 
L 268.625455 148.168258 
L 271.57686 148.168258 
L 274.528264 168.898161 
L 277.479669 168.898161 
L 280.431074 168.898161 
L 283.382479 168.898161 
L 286.333884 168.898161 
L 289.285289 168.898161 
L 292.236694 162.369563 
L 295.188099 162.369563 
L 298.139504 159.105264 
L 301.090909 159.105264 
L 304.042314 159.105264 
L 306.993719 159.105264 
L 309.945124 159.105264 
L 312.896529 159.105264 
L 315.847934 159.105264 
L 318.799339 180.446937 
L 321.750744 180.446937 
L 324.702149 180.446937 
L 327.653554 168.143951 
L 330.604959 168.143951 
L 333.556364 159.672814 
L 336.507769 164.621849 
L 339.459174 164.621849 
L 342.410579 164.621849 
L 345.361983 164.621849 
L 348.313388 164.621849 
L 351.264793 164.621849 
L 354.216198 164.621849 
L 357.167603 164.621849 
L 360.119008 164.621849 
L 363.070413 164.621849 
L 366.021818 164.621849 
L 368.973223 164.621849 
L 371.924628 164.621849 
L 374.876033 164.621849 
L 377.827438 164.621849 
L 380.778843 164.621849 
L 383.730248 164.621849 
L 386.681653 164.621849 
L 389.633058 164.621849 
L 392.584463 165.240478 
L 395.535868 165.240478 
L 398.487273 165.240478 
" clip-path="url(#p61d52794c9)" style="fill: none; stroke: #1f77b4; stroke-width: 1.5; stroke-linecap: square"/>
   </g>
   <g id="patch_3">
    <path d="M 57.6 307.584 
L 57.6 41.472 
" style="fill: none; stroke: #000000; stroke-width: 0.8; stroke-linejoin: miter; stroke-linecap: square"/>
   </g>
   <g id="patch_4">
    <path d="M 414.72 307.584 
L 414.72 41.472 
" style="fill: none; stroke: #000000; stroke-width: 0.8; stroke-linejoin: miter; stroke-linecap: square"/>
   </g>
   <g id="patch_5">
    <path d="M 57.6 307.584 
L 414.72 307.584 
" style="fill: none; stroke: #000000; stroke-width: 0.8; stroke-linejoin: miter; stroke-linecap: square"/>
   </g>
   <g id="patch_6">
    <path d="M 57.6 41.472 
L 414.72 41.472 
" style="fill: none; stroke: #000000; stroke-width: 0.8; stroke-linejoin: miter; stroke-linecap: square"/>
   </g>
  </g>
 </g>
 <defs>
  <clipPath id="p61d52794c9">
   <rect x="57.6" y="41.472" width="357.12" height="266.112"/>
  </clipPath>
 </defs>
</svg>
