<?xml version="1.0" encoding="utf-8" standalone="no"?>
<!DOCTYPE svg PUBLIC "-//W3C//DTD SVG 1.1//EN"
  "http://www.w3.org/Graphics/SVG/1.1/DTD/svg11.dtd">
<svg xmlns:xlink="http://www.w3.org/1999/xlink" width="460.8pt" height="345.6pt" viewBox="0 0 460.8 345.6" xmlns="http://www.w3.org/2000/svg" version="1.1">
 <metadata>
  <rdf:RDF xmlns:dc="http://purl.org/dc/elements/1.1/" xmlns:cc="http://creativecommons.org/ns#" xmlns:rdf="http://www.w3.org/1999/02/22-rdf-syntax-ns#">
   <cc:Work>
    <dc:type rdf:resource="http://purl.org/dc/dcmitype/StillImage"/>
    <dc:date>2024-04-23T01:05:25.643222</dc:date>
    <dc:format>image/svg+xml</dc:format>
    <dc:creator>
     <cc:Agent>
      <dc:title>Matplotlib v3.8.4, https://matplotlib.org/</dc:title>
     </cc:Agent>
    </dc:creator>
   </cc:Work>
  </rdf:RDF>
 </metadata>
 <defs>
  <style type="text/css">*{stroke-linejoin: round; stroke-linecap: butt}</style>
 </defs>
 <g id="figure_1">
  <g id="patch_1">
   <path d="M 0 345.6 
L 460.8 345.6 
L 460.8 0 
L 0 0 
z
" style="fill: #ffffff"/>
  </g>
  <g id="axes_1">
   <g id="patch_2">
    <path d="M 57.6 307.584 
L 414.72 307.584 
L 414.72 41.472 
L 57.6 41.472 
z
" style="fill: #ffffff"/>
   </g>
   <g id="matplotlib.axis_1">
    <g id="xtick_1">
     <g id="line2d_1">
      <defs>
       <path id="m64b03614c0" d="M 0 0 
L 0 3.5 
" style="stroke: #000000; stroke-width: 0.8"/>
      </defs>
      <g>
       <use xlink:href="#m64b03614c0" x="73.832727" y="307.584" style="stroke: #000000; stroke-width: 0.8"/>
      </g>
     </g>
     <g id="text_1">
      <!-- 0 -->
      <g transform="translate(70.651477 322.182437) scale(0.1 -0.1)">
       <defs>
        <path id="DejaVuSans-30" d="M 2034 4250 
Q 1547 4250 1301 3770 
Q 1056 3291 1056 2328 
Q 1056 1369 1301 889 
Q 1547 409 2034 409 
Q 2525 409 2770 889 
Q 3016 1369 3016 2328 
Q 3016 3291 2770 3770 
Q 2525 4250 2034 4250 
z
M 2034 4750 
Q 2819 4750 3233 4129 
Q 3647 3509 3647 2328 
Q 3647 1150 3233 529 
Q 2819 -91 2034 -91 
Q 1250 -91 836 529 
Q 422 1150 422 2328 
Q 422 3509 836 4129 
Q 1250 4750 2034 4750 
z
" transform="scale(0.015625)"/>
       </defs>
       <use xlink:href="#DejaVuSans-30"/>
      </g>
     </g>
    </g>
    <g id="xtick_2">
     <g id="line2d_2">
      <g>
       <use xlink:href="#m64b03614c0" x="121.576043" y="307.584" style="stroke: #000000; stroke-width: 0.8"/>
      </g>
     </g>
     <g id="text_2">
      <!-- 10 -->
      <g transform="translate(115.213543 322.182437) scale(0.1 -0.1)">
       <defs>
        <path id="DejaVuSans-31" d="M 794 531 
L 1825 531 
L 1825 4091 
L 703 3866 
L 703 4441 
L 1819 4666 
L 2450 4666 
L 2450 531 
L 3481 531 
L 3481 0 
L 794 0 
L 794 531 
z
" transform="scale(0.015625)"/>
       </defs>
       <use xlink:href="#DejaVuSans-31"/>
       <use xlink:href="#DejaVuSans-30" x="63.623047"/>
      </g>
     </g>
    </g>
    <g id="xtick_3">
     <g id="line2d_3">
      <g>
       <use xlink:href="#m64b03614c0" x="169.319358" y="307.584" style="stroke: #000000; stroke-width: 0.8"/>
      </g>
     </g>
     <g id="text_3">
      <!-- 20 -->
      <g transform="translate(162.956858 322.182437) scale(0.1 -0.1)">
       <defs>
        <path id="DejaVuSans-32" d="M 1228 531 
L 3431 531 
L 3431 0 
L 469 0 
L 469 531 
Q 828 903 1448 1529 
Q 2069 2156 2228 2338 
Q 2531 2678 2651 2914 
Q 2772 3150 2772 3378 
Q 2772 3750 2511 3984 
Q 2250 4219 1831 4219 
Q 1534 4219 1204 4116 
Q 875 4013 500 3803 
L 500 4441 
Q 881 4594 1212 4672 
Q 1544 4750 1819 4750 
Q 2544 4750 2975 4387 
Q 3406 4025 3406 3419 
Q 3406 3131 3298 2873 
Q 3191 2616 2906 2266 
Q 2828 2175 2409 1742 
Q 1991 1309 1228 531 
z
" transform="scale(0.015625)"/>
       </defs>
       <use xlink:href="#DejaVuSans-32"/>
       <use xlink:href="#DejaVuSans-30" x="63.623047"/>
      </g>
     </g>
    </g>
    <g id="xtick_4">
     <g id="line2d_4">
      <g>
       <use xlink:href="#m64b03614c0" x="217.062674" y="307.584" style="stroke: #000000; stroke-width: 0.8"/>
      </g>
     </g>
     <g id="text_4">
      <!-- 30 -->
      <g transform="translate(210.700174 322.182437) scale(0.1 -0.1)">
       <defs>
        <path id="DejaVuSans-33" d="M 2597 2516 
Q 3050 2419 3304 2112 
Q 3559 1806 3559 1356 
Q 3559 666 3084 287 
Q 2609 -91 1734 -91 
Q 1441 -91 1130 -33 
Q 819 25 488 141 
L 488 750 
Q 750 597 1062 519 
Q 1375 441 1716 441 
Q 2309 441 2620 675 
Q 2931 909 2931 1356 
Q 2931 1769 2642 2001 
Q 2353 2234 1838 2234 
L 1294 2234 
L 1294 2753 
L 1863 2753 
Q 2328 2753 2575 2939 
Q 2822 3125 2822 3475 
Q 2822 3834 2567 4026 
Q 2313 4219 1838 4219 
Q 1578 4219 1281 4162 
Q 984 4106 628 3988 
L 628 4550 
Q 988 4650 1302 4700 
Q 1616 4750 1894 4750 
Q 2613 4750 3031 4423 
Q 3450 4097 3450 3541 
Q 3450 3153 3228 2886 
Q 3006 2619 2597 2516 
z
" transform="scale(0.015625)"/>
       </defs>
       <use xlink:href="#DejaVuSans-33"/>
       <use xlink:href="#DejaVuSans-30" x="63.623047"/>
      </g>
     </g>
    </g>
    <g id="xtick_5">
     <g id="line2d_5">
      <g>
       <use xlink:href="#m64b03614c0" x="264.805989" y="307.584" style="stroke: #000000; stroke-width: 0.8"/>
      </g>
     </g>
     <g id="text_5">
      <!-- 40 -->
      <g transform="translate(258.443489 322.182437) scale(0.1 -0.1)">
       <defs>
        <path id="DejaVuSans-34" d="M 2419 4116 
L 825 1625 
L 2419 1625 
L 2419 4116 
z
M 2253 4666 
L 3047 4666 
L 3047 1625 
L 3713 1625 
L 3713 1100 
L 3047 1100 
L 3047 0 
L 2419 0 
L 2419 1100 
L 313 1100 
L 313 1709 
L 2253 4666 
z
" transform="scale(0.015625)"/>
       </defs>
       <use xlink:href="#DejaVuSans-34"/>
       <use xlink:href="#DejaVuSans-30" x="63.623047"/>
      </g>
     </g>
    </g>
    <g id="xtick_6">
     <g id="line2d_6">
      <g>
       <use xlink:href="#m64b03614c0" x="312.549305" y="307.584" style="stroke: #000000; stroke-width: 0.8"/>
      </g>
     </g>
     <g id="text_6">
      <!-- 50 -->
      <g transform="translate(306.186805 322.182437) scale(0.1 -0.1)">
       <defs>
        <path id="DejaVuSans-35" d="M 691 4666 
L 3169 4666 
L 3169 4134 
L 1269 4134 
L 1269 2991 
Q 1406 3038 1543 3061 
Q 1681 3084 1819 3084 
Q 2600 3084 3056 2656 
Q 3513 2228 3513 1497 
Q 3513 744 3044 326 
Q 2575 -91 1722 -91 
Q 1428 -91 1123 -41 
Q 819 9 494 109 
L 494 744 
Q 775 591 1075 516 
Q 1375 441 1709 441 
Q 2250 441 2565 725 
Q 2881 1009 2881 1497 
Q 2881 1984 2565 2268 
Q 2250 2553 1709 2553 
Q 1456 2553 1204 2497 
Q 953 2441 691 2322 
L 691 4666 
z
" transform="scale(0.015625)"/>
       </defs>
       <use xlink:href="#DejaVuSans-35"/>
       <use xlink:href="#DejaVuSans-30" x="63.623047"/>
      </g>
     </g>
    </g>
    <g id="xtick_7">
     <g id="line2d_7">
      <g>
       <use xlink:href="#m64b03614c0" x="360.29262" y="307.584" style="stroke: #000000; stroke-width: 0.8"/>
      </g>
     </g>
     <g id="text_7">
      <!-- 60 -->
      <g transform="translate(353.93012 322.182437) scale(0.1 -0.1)">
       <defs>
        <path id="DejaVuSans-36" d="M 2113 2584 
Q 1688 2584 1439 2293 
Q 1191 2003 1191 1497 
Q 1191 994 1439 701 
Q 1688 409 2113 409 
Q 2538 409 2786 701 
Q 3034 994 3034 1497 
Q 3034 2003 2786 2293 
Q 2538 2584 2113 2584 
z
M 3366 4563 
L 3366 3988 
Q 3128 4100 2886 4159 
Q 2644 4219 2406 4219 
Q 1781 4219 1451 3797 
Q 1122 3375 1075 2522 
Q 1259 2794 1537 2939 
Q 1816 3084 2150 3084 
Q 2853 3084 3261 2657 
Q 3669 2231 3669 1497 
Q 3669 778 3244 343 
Q 2819 -91 2113 -91 
Q 1303 -91 875 529 
Q 447 1150 447 2328 
Q 447 3434 972 4092 
Q 1497 4750 2381 4750 
Q 2619 4750 2861 4703 
Q 3103 4656 3366 4563 
z
" transform="scale(0.015625)"/>
       </defs>
       <use xlink:href="#DejaVuSans-36"/>
       <use xlink:href="#DejaVuSans-30" x="63.623047"/>
      </g>
     </g>
    </g>
    <g id="xtick_8">
     <g id="line2d_8">
      <g>
       <use xlink:href="#m64b03614c0" x="408.035936" y="307.584" style="stroke: #000000; stroke-width: 0.8"/>
      </g>
     </g>
     <g id="text_8">
      <!-- 70 -->
      <g transform="translate(401.673436 322.182437) scale(0.1 -0.1)">
       <defs>
        <path id="DejaVuSans-37" d="M 525 4666 
L 3525 4666 
L 3525 4397 
L 1831 0 
L 1172 0 
L 2766 4134 
L 525 4134 
L 525 4666 
z
" transform="scale(0.015625)"/>
       </defs>
       <use xlink:href="#DejaVuSans-37"/>
       <use xlink:href="#DejaVuSans-30" x="63.623047"/>
      </g>
     </g>
    </g>
    <g id="text_9">
     <!-- Time -->
     <g transform="translate(223.926406 335.860562) scale(0.1 -0.1)">
      <defs>
       <path id="DejaVuSans-54" d="M -19 4666 
L 3928 4666 
L 3928 4134 
L 2272 4134 
L 2272 0 
L 1638 0 
L 1638 4134 
L -19 4134 
L -19 4666 
z
" transform="scale(0.015625)"/>
       <path id="DejaVuSans-69" d="M 603 3500 
L 1178 3500 
L 1178 0 
L 603 0 
L 603 3500 
z
M 603 4863 
L 1178 4863 
L 1178 4134 
L 603 4134 
L 603 4863 
z
" transform="scale(0.015625)"/>
       <path id="DejaVuSans-6d" d="M 3328 2828 
Q 3544 3216 3844 3400 
Q 4144 3584 4550 3584 
Q 5097 3584 5394 3201 
Q 5691 2819 5691 2113 
L 5691 0 
L 5113 0 
L 5113 2094 
Q 5113 2597 4934 2840 
Q 4756 3084 4391 3084 
Q 3944 3084 3684 2787 
Q 3425 2491 3425 1978 
L 3425 0 
L 2847 0 
L 2847 2094 
Q 2847 2600 2669 2842 
Q 2491 3084 2119 3084 
Q 1678 3084 1418 2786 
Q 1159 2488 1159 1978 
L 1159 0 
L 581 0 
L 581 3500 
L 1159 3500 
L 1159 2956 
Q 1356 3278 1631 3431 
Q 1906 3584 2284 3584 
Q 2666 3584 2933 3390 
Q 3200 3197 3328 2828 
z
" transform="scale(0.015625)"/>
       <path id="DejaVuSans-65" d="M 3597 1894 
L 3597 1613 
L 953 1613 
Q 991 1019 1311 708 
Q 1631 397 2203 397 
Q 2534 397 2845 478 
Q 3156 559 3463 722 
L 3463 178 
Q 3153 47 2828 -22 
Q 2503 -91 2169 -91 
Q 1331 -91 842 396 
Q 353 884 353 1716 
Q 353 2575 817 3079 
Q 1281 3584 2069 3584 
Q 2775 3584 3186 3129 
Q 3597 2675 3597 1894 
z
M 3022 2063 
Q 3016 2534 2758 2815 
Q 2500 3097 2075 3097 
Q 1594 3097 1305 2825 
Q 1016 2553 972 2059 
L 3022 2063 
z
" transform="scale(0.015625)"/>
      </defs>
      <use xlink:href="#DejaVuSans-54"/>
      <use xlink:href="#DejaVuSans-69" x="57.958984"/>
      <use xlink:href="#DejaVuSans-6d" x="85.742188"/>
      <use xlink:href="#DejaVuSans-65" x="183.154297"/>
     </g>
    </g>
   </g>
   <g id="matplotlib.axis_2">
    <g id="ytick_1">
     <g id="line2d_9">
      <defs>
       <path id="m88b7f63540" d="M 0 0 
L -3.5 0 
" style="stroke: #000000; stroke-width: 0.8"/>
      </defs>
      <g>
       <use xlink:href="#m88b7f63540" x="57.6" y="307.584" style="stroke: #000000; stroke-width: 0.8"/>
      </g>
     </g>
     <g id="text_10">
      <!-- 0.0 -->
      <g transform="translate(34.696875 311.383219) scale(0.1 -0.1)">
       <defs>
        <path id="DejaVuSans-2e" d="M 684 794 
L 1344 794 
L 1344 0 
L 684 0 
L 684 794 
z
" transform="scale(0.015625)"/>
       </defs>
       <use xlink:href="#DejaVuSans-30"/>
       <use xlink:href="#DejaVuSans-2e" x="63.623047"/>
       <use xlink:href="#DejaVuSans-30" x="95.410156"/>
      </g>
     </g>
    </g>
    <g id="ytick_2">
     <g id="line2d_10">
      <g>
       <use xlink:href="#m88b7f63540" x="57.6" y="254.3616" style="stroke: #000000; stroke-width: 0.8"/>
      </g>
     </g>
     <g id="text_11">
      <!-- 0.2 -->
      <g transform="translate(34.696875 258.160819) scale(0.1 -0.1)">
       <use xlink:href="#DejaVuSans-30"/>
       <use xlink:href="#DejaVuSans-2e" x="63.623047"/>
       <use xlink:href="#DejaVuSans-32" x="95.410156"/>
      </g>
     </g>
    </g>
    <g id="ytick_3">
     <g id="line2d_11">
      <g>
       <use xlink:href="#m88b7f63540" x="57.6" y="201.1392" style="stroke: #000000; stroke-width: 0.8"/>
      </g>
     </g>
     <g id="text_12">
      <!-- 0.4 -->
      <g transform="translate(34.696875 204.938419) scale(0.1 -0.1)">
       <use xlink:href="#DejaVuSans-30"/>
       <use xlink:href="#DejaVuSans-2e" x="63.623047"/>
       <use xlink:href="#DejaVuSans-34" x="95.410156"/>
      </g>
     </g>
    </g>
    <g id="ytick_4">
     <g id="line2d_12">
      <g>
       <use xlink:href="#m88b7f63540" x="57.6" y="147.9168" style="stroke: #000000; stroke-width: 0.8"/>
      </g>
     </g>
     <g id="text_13">
      <!-- 0.6 -->
      <g transform="translate(34.696875 151.716019) scale(0.1 -0.1)">
       <use xlink:href="#DejaVuSans-30"/>
       <use xlink:href="#DejaVuSans-2e" x="63.623047"/>
       <use xlink:href="#DejaVuSans-36" x="95.410156"/>
      </g>
     </g>
    </g>
    <g id="ytick_5">
     <g id="line2d_13">
      <g>
       <use xlink:href="#m88b7f63540" x="57.6" y="94.6944" style="stroke: #000000; stroke-width: 0.8"/>
      </g>
     </g>
     <g id="text_14">
      <!-- 0.8 -->
      <g transform="translate(34.696875 98.493619) scale(0.1 -0.1)">
       <defs>
        <path id="DejaVuSans-38" d="M 2034 2216 
Q 1584 2216 1326 1975 
Q 1069 1734 1069 1313 
Q 1069 891 1326 650 
Q 1584 409 2034 409 
Q 2484 409 2743 651 
Q 3003 894 3003 1313 
Q 3003 1734 2745 1975 
Q 2488 2216 2034 2216 
z
M 1403 2484 
Q 997 2584 770 2862 
Q 544 3141 544 3541 
Q 544 4100 942 4425 
Q 1341 4750 2034 4750 
Q 2731 4750 3128 4425 
Q 3525 4100 3525 3541 
Q 3525 3141 3298 2862 
Q 3072 2584 2669 2484 
Q 3125 2378 3379 2068 
Q 3634 1759 3634 1313 
Q 3634 634 3220 271 
Q 2806 -91 2034 -91 
Q 1263 -91 848 271 
Q 434 634 434 1313 
Q 434 1759 690 2068 
Q 947 2378 1403 2484 
z
M 1172 3481 
Q 1172 3119 1398 2916 
Q 1625 2713 2034 2713 
Q 2441 2713 2670 2916 
Q 2900 3119 2900 3481 
Q 2900 3844 2670 4047 
Q 2441 4250 2034 4250 
Q 1625 4250 1398 4047 
Q 1172 3844 1172 3481 
z
" transform="scale(0.015625)"/>
       </defs>
       <use xlink:href="#DejaVuSans-30"/>
       <use xlink:href="#DejaVuSans-2e" x="63.623047"/>
       <use xlink:href="#DejaVuSans-38" x="95.410156"/>
      </g>
     </g>
    </g>
    <g id="ytick_6">
     <g id="line2d_14">
      <g>
       <use xlink:href="#m88b7f63540" x="57.6" y="41.472" style="stroke: #000000; stroke-width: 0.8"/>
      </g>
     </g>
     <g id="text_15">
      <!-- 1.0 -->
      <g transform="translate(34.696875 45.271219) scale(0.1 -0.1)">
       <use xlink:href="#DejaVuSans-31"/>
       <use xlink:href="#DejaVuSans-2e" x="63.623047"/>
       <use xlink:href="#DejaVuSans-30" x="95.410156"/>
      </g>
     </g>
    </g>
    <g id="text_16">
     <!-- Opinion value -->
     <g transform="translate(28.617187 209.060031) rotate(-90) scale(0.1 -0.1)">
      <defs>
       <path id="DejaVuSans-4f" d="M 2522 4238 
Q 1834 4238 1429 3725 
Q 1025 3213 1025 2328 
Q 1025 1447 1429 934 
Q 1834 422 2522 422 
Q 3209 422 3611 934 
Q 4013 1447 4013 2328 
Q 4013 3213 3611 3725 
Q 3209 4238 2522 4238 
z
M 2522 4750 
Q 3503 4750 4090 4092 
Q 4678 3434 4678 2328 
Q 4678 1225 4090 567 
Q 3503 -91 2522 -91 
Q 1538 -91 948 565 
Q 359 1222 359 2328 
Q 359 3434 948 4092 
Q 1538 4750 2522 4750 
z
" transform="scale(0.015625)"/>
       <path id="DejaVuSans-70" d="M 1159 525 
L 1159 -1331 
L 581 -1331 
L 581 3500 
L 1159 3500 
L 1159 2969 
Q 1341 3281 1617 3432 
Q 1894 3584 2278 3584 
Q 2916 3584 3314 3078 
Q 3713 2572 3713 1747 
Q 3713 922 3314 415 
Q 2916 -91 2278 -91 
Q 1894 -91 1617 61 
Q 1341 213 1159 525 
z
M 3116 1747 
Q 3116 2381 2855 2742 
Q 2594 3103 2138 3103 
Q 1681 3103 1420 2742 
Q 1159 2381 1159 1747 
Q 1159 1113 1420 752 
Q 1681 391 2138 391 
Q 2594 391 2855 752 
Q 3116 1113 3116 1747 
z
" transform="scale(0.015625)"/>
       <path id="DejaVuSans-6e" d="M 3513 2113 
L 3513 0 
L 2938 0 
L 2938 2094 
Q 2938 2591 2744 2837 
Q 2550 3084 2163 3084 
Q 1697 3084 1428 2787 
Q 1159 2491 1159 1978 
L 1159 0 
L 581 0 
L 581 3500 
L 1159 3500 
L 1159 2956 
Q 1366 3272 1645 3428 
Q 1925 3584 2291 3584 
Q 2894 3584 3203 3211 
Q 3513 2838 3513 2113 
z
" transform="scale(0.015625)"/>
       <path id="DejaVuSans-6f" d="M 1959 3097 
Q 1497 3097 1228 2736 
Q 959 2375 959 1747 
Q 959 1119 1226 758 
Q 1494 397 1959 397 
Q 2419 397 2687 759 
Q 2956 1122 2956 1747 
Q 2956 2369 2687 2733 
Q 2419 3097 1959 3097 
z
M 1959 3584 
Q 2709 3584 3137 3096 
Q 3566 2609 3566 1747 
Q 3566 888 3137 398 
Q 2709 -91 1959 -91 
Q 1206 -91 779 398 
Q 353 888 353 1747 
Q 353 2609 779 3096 
Q 1206 3584 1959 3584 
z
" transform="scale(0.015625)"/>
       <path id="DejaVuSans-20" transform="scale(0.015625)"/>
       <path id="DejaVuSans-76" d="M 191 3500 
L 800 3500 
L 1894 563 
L 2988 3500 
L 3597 3500 
L 2284 0 
L 1503 0 
L 191 3500 
z
" transform="scale(0.015625)"/>
       <path id="DejaVuSans-61" d="M 2194 1759 
Q 1497 1759 1228 1600 
Q 959 1441 959 1056 
Q 959 750 1161 570 
Q 1363 391 1709 391 
Q 2188 391 2477 730 
Q 2766 1069 2766 1631 
L 2766 1759 
L 2194 1759 
z
M 3341 1997 
L 3341 0 
L 2766 0 
L 2766 531 
Q 2569 213 2275 61 
Q 1981 -91 1556 -91 
Q 1019 -91 701 211 
Q 384 513 384 1019 
Q 384 1609 779 1909 
Q 1175 2209 1959 2209 
L 2766 2209 
L 2766 2266 
Q 2766 2663 2505 2880 
Q 2244 3097 1772 3097 
Q 1472 3097 1187 3025 
Q 903 2953 641 2809 
L 641 3341 
Q 956 3463 1253 3523 
Q 1550 3584 1831 3584 
Q 2591 3584 2966 3190 
Q 3341 2797 3341 1997 
z
" transform="scale(0.015625)"/>
       <path id="DejaVuSans-6c" d="M 603 4863 
L 1178 4863 
L 1178 0 
L 603 0 
L 603 4863 
z
" transform="scale(0.015625)"/>
       <path id="DejaVuSans-75" d="M 544 1381 
L 544 3500 
L 1119 3500 
L 1119 1403 
Q 1119 906 1312 657 
Q 1506 409 1894 409 
Q 2359 409 2629 706 
Q 2900 1003 2900 1516 
L 2900 3500 
L 3475 3500 
L 3475 0 
L 2900 0 
L 2900 538 
Q 2691 219 2414 64 
Q 2138 -91 1772 -91 
Q 1169 -91 856 284 
Q 544 659 544 1381 
z
M 1991 3584 
L 1991 3584 
z
" transform="scale(0.015625)"/>
      </defs>
      <use xlink:href="#DejaVuSans-4f"/>
      <use xlink:href="#DejaVuSans-70" x="78.710938"/>
      <use xlink:href="#DejaVuSans-69" x="142.1875"/>
      <use xlink:href="#DejaVuSans-6e" x="169.970703"/>
      <use xlink:href="#DejaVuSans-69" x="233.349609"/>
      <use xlink:href="#DejaVuSans-6f" x="261.132812"/>
      <use xlink:href="#DejaVuSans-6e" x="322.314453"/>
      <use xlink:href="#DejaVuSans-20" x="385.693359"/>
      <use xlink:href="#DejaVuSans-76" x="417.480469"/>
      <use xlink:href="#DejaVuSans-61" x="476.660156"/>
      <use xlink:href="#DejaVuSans-6c" x="537.939453"/>
      <use xlink:href="#DejaVuSans-75" x="565.722656"/>
      <use xlink:href="#DejaVuSans-65" x="629.101562"/>
     </g>
    </g>
   </g>
   <g id="line2d_15">
    <path d="M 73.832727 201.1392 
L 78.607059 201.1392 
L 83.38139 201.1392 
L 88.155722 201.1392 
L 92.930053 201.1392 
L 97.704385 201.1392 
L 102.478717 201.1392 
L 107.253048 201.1392 
L 112.02738 201.1392 
L 116.801711 201.1392 
L 121.576043 201.1392 
L 126.350374 201.1392 
L 131.124706 201.1392 
L 135.899037 201.1392 
L 140.673369 201.1392 
L 145.447701 201.1392 
L 150.222032 201.1392 
L 154.996364 201.1392 
L 159.770695 201.1392 
L 164.545027 201.1392 
L 169.319358 201.1392 
L 174.09369 201.1392 
L 178.868021 194.4864 
L 183.642353 194.4864 
L 188.416684 192.8232 
L 193.191016 192.8232 
L 197.965348 192.4074 
L 202.739679 192.4074 
L 207.514011 192.30345 
L 212.288342 192.30345 
L 217.062674 192.277462 
L 221.837005 192.277462 
L 226.611337 192.277462 
L 231.385668 192.277462 
L 236.16 192.277462 
L 240.934332 192.277462 
L 245.708663 192.277462 
L 250.482995 192.277462 
L 255.257326 192.277462 
L 260.031658 192.277462 
L 264.805989 192.277462 
L 269.580321 192.277462 
L 274.354652 192.277462 
L 279.128984 192.277462 
L 283.903316 192.277462 
L 288.677647 192.277462 
L 293.451979 192.277462 
L 298.22631 192.277462 
L 303.000642 192.277462 
L 307.774973 192.277462 
L 312.549305 192.277462 
L 317.323636 192.277462 
L 322.097968 192.277462 
L 326.872299 192.277462 
L 331.646631 192.277462 
L 336.420963 192.277462 
L 341.195294 192.270966 
L 345.969626 192.270966 
L 350.743957 192.269341 
L 355.518289 192.269341 
L 360.29262 192.268935 
L 365.066952 192.268935 
L 369.841283 192.268834 
L 374.615615 192.268834 
L 379.389947 192.268808 
L 384.164278 192.268808 
L 388.93861 192.268808 
L 393.712941 192.268808 
L 398.487273 192.268808 
" clip-path="url(#p623e9833d4)" style="fill: none; stroke: #1f77b4; stroke-width: 1.5; stroke-linecap: square"/>
   </g>
   <g id="line2d_16">
    <path d="M 73.832727 174.528 
L 78.607059 174.528 
L 83.38139 174.528 
L 88.155722 174.528 
L 92.930053 174.528 
L 97.704385 174.528 
L 102.478717 174.528 
L 107.253048 174.528 
L 112.02738 174.528 
L 116.801711 174.528 
L 121.576043 174.528 
L 126.350374 174.528 
L 131.124706 174.528 
L 135.899037 174.528 
L 140.673369 174.528 
L 145.447701 174.528 
L 150.222032 174.528 
L 154.996364 174.528 
L 159.770695 174.528 
L 164.545027 174.528 
L 169.319358 174.528 
L 174.09369 187.8336 
L 178.868021 187.8336 
L 183.642353 191.16 
L 188.416684 191.16 
L 193.191016 191.9916 
L 197.965348 191.9916 
L 202.739679 192.1995 
L 207.514011 192.1995 
L 212.288342 192.251475 
L 217.062674 192.251475 
L 221.837005 192.251475 
L 226.611337 192.251475 
L 231.385668 192.251475 
L 236.16 192.251475 
L 240.934332 192.251475 
L 245.708663 192.251475 
L 250.482995 192.251475 
L 255.257326 192.251475 
L 260.031658 192.251475 
L 264.805989 192.251475 
L 269.580321 192.251475 
L 274.354652 192.251475 
L 279.128984 192.251475 
L 283.903316 192.251475 
L 288.677647 192.251475 
L 293.451979 192.251475 
L 298.22631 192.251475 
L 303.000642 192.251475 
L 307.774973 192.251475 
L 312.549305 192.251475 
L 317.323636 192.251475 
L 322.097968 192.251475 
L 326.872299 192.251475 
L 331.646631 192.251475 
L 336.420963 192.264469 
L 341.195294 192.264469 
L 345.969626 192.267717 
L 350.743957 192.267717 
L 355.518289 192.268529 
L 360.29262 192.268529 
L 365.066952 192.268732 
L 369.841283 192.268732 
L 374.615615 192.268783 
L 379.389947 192.268783 
L 384.164278 192.268783 
L 388.93861 192.268783 
L 393.712941 192.268783 
L 398.487273 192.268783 
" clip-path="url(#p623e9833d4)" style="fill: none; stroke: #ff7f0e; stroke-width: 1.5; stroke-linecap: square"/>
   </g>
   <g id="line2d_17">
    <path d="M 73.832727 187.8336 
L 78.607059 187.8336 
L 83.38139 181.1808 
L 88.155722 181.1808 
L 92.930053 179.5176 
L 97.704385 179.5176 
L 102.478717 179.1018 
L 107.253048 179.1018 
L 112.02738 178.99785 
L 116.801711 178.99785 
L 121.576043 178.971862 
L 126.350374 178.971862 
L 131.124706 178.971862 
L 135.899037 178.971862 
L 140.673369 178.971862 
L 145.447701 178.971862 
L 150.222032 178.971862 
L 154.996364 178.971862 
L 159.770695 178.971862 
L 164.545027 178.971862 
L 169.319358 178.971862 
L 174.09369 178.971862 
L 178.868021 178.971862 
L 183.642353 178.971862 
L 188.416684 178.971862 
L 193.191016 178.971862 
L 197.965348 178.971862 
L 202.739679 178.971862 
L 207.514011 178.971862 
L 212.288342 178.971862 
L 217.062674 178.971862 
L 221.837005 185.624662 
L 226.611337 175.645462 
L 231.385668 175.645462 
L 236.16 175.645462 
L 240.934332 175.645462 
L 245.708663 175.638966 
L 250.482995 175.638966 
L 255.257326 175.637341 
L 260.031658 175.637341 
L 264.805989 175.636935 
L 269.580321 175.636935 
L 274.354652 175.636834 
L 279.128984 175.636834 
L 283.903316 175.636808 
L 288.677647 175.636808 
L 293.451979 175.636808 
L 298.22631 175.636808 
L 303.000642 175.636808 
L 307.774973 175.636808 
L 312.549305 175.636808 
L 317.323636 175.636808 
L 322.097968 175.636808 
L 326.872299 175.636808 
L 331.646631 175.636808 
L 336.420963 175.636808 
L 341.195294 175.636808 
L 345.969626 175.636808 
L 350.743957 175.636808 
L 355.518289 175.636808 
L 360.29262 175.636808 
L 365.066952 175.636808 
L 369.841283 175.636808 
L 374.615615 175.636808 
L 379.389947 175.636808 
L 384.164278 183.952808 
L 388.93861 174.805208 
L 393.712941 174.805208 
L 398.487273 174.805208 
" clip-path="url(#p623e9833d4)" style="fill: none; stroke: #2ca02c; stroke-width: 1.5; stroke-linecap: square"/>
   </g>
   <g id="line2d_18">
    <path d="M 73.832727 161.2224 
L 78.607059 174.528 
L 83.38139 174.528 
L 88.155722 177.8544 
L 92.930053 177.8544 
L 97.704385 178.686 
L 102.478717 178.686 
L 107.253048 178.8939 
L 112.02738 178.8939 
L 116.801711 178.945875 
L 121.576043 178.945875 
L 126.350374 178.945875 
L 131.124706 178.945875 
L 135.899037 178.945875 
L 140.673369 178.945875 
L 145.447701 178.945875 
L 150.222032 178.945875 
L 154.996364 178.945875 
L 159.770695 178.945875 
L 164.545027 178.945875 
L 169.319358 178.945875 
L 174.09369 178.945875 
L 178.868021 178.945875 
L 183.642353 178.945875 
L 188.416684 178.945875 
L 193.191016 178.945875 
L 197.965348 178.945875 
L 202.739679 178.945875 
L 207.514011 178.945875 
L 212.288342 178.945875 
L 217.062674 178.945875 
L 221.837005 178.945875 
L 226.611337 178.945875 
L 231.385668 185.598675 
L 236.16 175.619475 
L 240.934332 175.632469 
L 245.708663 175.632469 
L 250.482995 175.635717 
L 255.257326 175.635717 
L 260.031658 175.636529 
L 264.805989 175.636529 
L 269.580321 175.636732 
L 274.354652 175.636732 
L 279.128984 175.636783 
L 283.903316 175.636783 
L 288.677647 175.636783 
L 293.451979 175.636783 
L 298.22631 175.636783 
L 303.000642 175.636783 
L 307.774973 175.636783 
L 312.549305 175.636783 
L 317.323636 175.636783 
L 322.097968 175.636783 
L 326.872299 175.636783 
L 331.646631 175.636783 
L 336.420963 175.636783 
L 341.195294 175.636783 
L 345.969626 175.636783 
L 350.743957 175.636783 
L 355.518289 175.636783 
L 360.29262 175.636783 
L 365.066952 175.636783 
L 369.841283 175.636783 
L 374.615615 175.636783 
L 379.389947 175.636783 
L 384.164278 175.636783 
L 388.93861 175.636783 
L 393.712941 183.952783 
L 398.487273 174.805183 
" clip-path="url(#p623e9833d4)" style="fill: none; stroke: #d62728; stroke-width: 1.5; stroke-linecap: square"/>
   </g>
   <g id="line2d_19">
    <path d="M 73.832727 174.528 
L 78.607059 174.528 
L 83.38139 174.528 
L 88.155722 174.528 
L 92.930053 174.528 
L 97.704385 174.528 
L 102.478717 174.528 
L 107.253048 174.528 
L 112.02738 174.528 
L 116.801711 174.528 
L 121.576043 174.528 
L 126.350374 174.528 
L 131.124706 167.8752 
L 135.899037 167.8752 
L 140.673369 166.212 
L 145.447701 166.212 
L 150.222032 165.7962 
L 154.996364 165.7962 
L 159.770695 165.69225 
L 164.545027 165.69225 
L 169.319358 165.666262 
L 174.09369 165.666262 
L 178.868021 165.666262 
L 183.642353 165.666262 
L 188.416684 165.666262 
L 193.191016 165.666262 
L 197.965348 165.666262 
L 202.739679 165.666262 
L 207.514011 165.666262 
L 212.288342 165.666262 
L 217.062674 165.666262 
L 221.837005 165.666262 
L 226.611337 165.666262 
L 231.385668 165.666262 
L 236.16 165.666262 
L 240.934332 165.666262 
L 245.708663 165.666262 
L 250.482995 165.666262 
L 255.257326 165.666262 
L 260.031658 165.666262 
L 264.805989 165.666262 
L 269.580321 165.666262 
L 274.354652 165.666262 
L 279.128984 165.666262 
L 283.903316 165.666262 
L 288.677647 165.666262 
L 293.451979 165.659766 
L 298.22631 165.659766 
L 303.000642 165.658141 
L 307.774973 165.658141 
L 312.549305 165.657735 
L 317.323636 165.657735 
L 322.097968 165.657634 
L 326.872299 165.657634 
L 331.646631 165.657608 
L 336.420963 165.657608 
L 341.195294 165.657608 
L 345.969626 165.657608 
L 350.743957 165.657608 
L 355.518289 165.657608 
L 360.29262 165.657608 
L 365.066952 165.657608 
L 369.841283 165.657608 
L 374.615615 165.657608 
L 379.389947 165.657608 
L 384.164278 165.657608 
L 388.93861 165.657608 
L 393.712941 165.657608 
L 398.487273 165.657608 
" clip-path="url(#p623e9833d4)" style="fill: none; stroke: #9467bd; stroke-width: 1.5; stroke-linecap: square"/>
   </g>
   <g id="line2d_20">
    <path d="M 73.832727 147.9168 
L 78.607059 147.9168 
L 83.38139 147.9168 
L 88.155722 147.9168 
L 92.930053 147.9168 
L 97.704385 147.9168 
L 102.478717 147.9168 
L 107.253048 147.9168 
L 112.02738 147.9168 
L 116.801711 147.9168 
L 121.576043 147.9168 
L 126.350374 161.2224 
L 131.124706 161.2224 
L 135.899037 164.5488 
L 140.673369 164.5488 
L 145.447701 165.3804 
L 150.222032 165.3804 
L 154.996364 165.5883 
L 159.770695 165.5883 
L 164.545027 165.640275 
L 169.319358 165.640275 
L 174.09369 165.640275 
L 178.868021 165.640275 
L 183.642353 165.640275 
L 188.416684 165.640275 
L 193.191016 165.640275 
L 197.965348 165.640275 
L 202.739679 165.640275 
L 207.514011 165.640275 
L 212.288342 165.640275 
L 217.062674 165.640275 
L 221.837005 165.640275 
L 226.611337 165.640275 
L 231.385668 165.640275 
L 236.16 165.640275 
L 240.934332 165.640275 
L 245.708663 165.640275 
L 250.482995 165.640275 
L 255.257326 165.640275 
L 260.031658 165.640275 
L 264.805989 165.640275 
L 269.580321 165.640275 
L 274.354652 165.640275 
L 279.128984 165.640275 
L 283.903316 165.640275 
L 288.677647 165.653269 
L 293.451979 165.653269 
L 298.22631 165.656517 
L 303.000642 165.656517 
L 307.774973 165.657329 
L 312.549305 165.657329 
L 317.323636 165.657532 
L 322.097968 165.657532 
L 326.872299 165.657583 
L 331.646631 165.657583 
L 336.420963 165.657583 
L 341.195294 165.657583 
L 345.969626 165.657583 
L 350.743957 165.657583 
L 355.518289 165.657583 
L 360.29262 165.657583 
L 365.066952 165.657583 
L 369.841283 165.657583 
L 374.615615 165.657583 
L 379.389947 165.657583 
L 384.164278 165.657583 
L 388.93861 165.657583 
L 393.712941 165.657583 
L 398.487273 165.657583 
" clip-path="url(#p623e9833d4)" style="fill: none; stroke: #8c564b; stroke-width: 1.5; stroke-linecap: square"/>
   </g>
   <g id="patch_3">
    <path d="M 57.6 307.584 
L 57.6 41.472 
" style="fill: none; stroke: #000000; stroke-width: 0.8; stroke-linejoin: miter; stroke-linecap: square"/>
   </g>
   <g id="patch_4">
    <path d="M 414.72 307.584 
L 414.72 41.472 
" style="fill: none; stroke: #000000; stroke-width: 0.8; stroke-linejoin: miter; stroke-linecap: square"/>
   </g>
   <g id="patch_5">
    <path d="M 57.6 307.584 
L 414.72 307.584 
" style="fill: none; stroke: #000000; stroke-width: 0.8; stroke-linejoin: miter; stroke-linecap: square"/>
   </g>
   <g id="patch_6">
    <path d="M 57.6 41.472 
L 414.72 41.472 
" style="fill: none; stroke: #000000; stroke-width: 0.8; stroke-linejoin: miter; stroke-linecap: square"/>
   </g>
  </g>
 </g>
 <defs>
  <clipPath id="p623e9833d4">
   <rect x="57.6" y="41.472" width="357.12" height="266.112"/>
  </clipPath>
 </defs>
</svg>
